<svg width="120" height="120" viewBox="0 0 120 120" fill="none" xmlns="http://www.w3.org/2000/svg">
<mask id="mask0_175_9144" style="mask-type:alpha" maskUnits="userSpaceOnUse" x="0" y="0" width="120" height="120">
<rect width="120" height="120" fill="#D9D9D9"/>
</mask>
<g mask="url(#mask0_175_9144)">
<path d="M60 120C71.8669 120 83.4672 116.481 93.3342 109.888C103.201 103.295 110.891 93.9246 115.433 82.961C119.974 71.9974 121.162 59.9334 118.847 48.2946C116.532 36.6557 110.818 25.9648 102.426 17.5736C94.0352 9.18247 83.3443 3.46802 71.7054 1.15291C60.0665 -1.1622 48.0025 0.0259968 37.039 4.56725C26.0754 9.10851 16.7047 16.7989 10.1118 26.6658C3.51894 36.5328 0 48.1331 0 60C0 75.913 6.32141 91.1742 17.5736 102.426C28.8258 113.679 44.087 120 60 120Z" fill="#E0EBFA"/>
<path d="M14.8039 73.9895L21.7528 61.4828C21.8877 61.24 22.085 61.0377 22.3244 60.8968C22.5637 60.7559 22.8364 60.6816 23.1142 60.6816H96.0204C96.2981 60.6816 96.5708 60.7559 96.8102 60.8968C97.0496 61.0377 97.2469 61.24 97.3817 61.4828L104.327 73.9895C104.584 74.4521 104.719 74.9725 104.719 75.5017V82.4803H14.4121V75.5017C14.4121 74.9725 14.547 74.4521 14.8039 73.9895V73.9895Z" fill="#999999"/>
<path d="M96.0791 67.844V60.6816C96.3569 60.6816 96.6295 60.7559 96.8689 60.8968C97.1083 61.0377 97.3056 61.24 97.4405 61.4828L104.388 73.9895C104.645 74.4521 104.78 74.9725 104.78 75.5017V82.4803L96.0791 86.3058V67.844Z" fill="#C9C9C9"/>
<path d="M23.1131 67.844V60.6816C22.8353 60.6816 22.5626 60.7559 22.3233 60.8968C22.0839 61.0377 21.8866 61.24 21.7517 61.4828L14.8039 73.9895C14.5468 74.4524 14.4119 74.9733 14.4121 75.5028V82.4814L23.1131 86.3058V67.844Z" fill="#C9C9C9"/>
<path d="M103.165 74.6953H77.6565C77.3675 74.6954 77.0841 74.776 76.8382 74.928C76.5924 75.08 76.3936 75.2974 76.2643 75.5559L74.4418 79.2021C74.1831 79.7193 73.7855 80.1543 73.2935 80.4583C72.8015 80.7623 72.2346 80.9233 71.6563 80.9233H47.4782C46.8999 80.9235 46.3329 80.7625 45.8409 80.4585C45.3489 80.1544 44.9514 79.7194 44.6927 79.2021L42.8702 75.5603C42.7409 75.3018 42.5422 75.0844 42.2963 74.9324C42.0504 74.7804 41.7671 74.6998 41.478 74.6997H15.9694C15.5571 74.6997 15.1617 74.8632 14.8698 75.1543C14.5779 75.4454 14.4133 75.8403 14.4121 76.2526V118.184C14.4121 118.597 14.5762 118.993 14.8682 119.285C15.1603 119.577 15.5564 119.741 15.9694 119.741H103.165C103.578 119.741 103.974 119.577 104.266 119.285C104.558 118.993 104.722 118.597 104.722 118.184V76.2526C104.722 75.8396 104.558 75.4435 104.266 75.1514C103.974 74.8594 103.578 74.6953 103.165 74.6953V74.6953Z" fill="#B3B3B3"/>
<path d="M54.5351 70.9779C56.0106 70.6266 57.4507 70.2295 58.8552 69.7867C59.1336 69.699 59.3658 69.5044 59.5008 69.2455C59.6357 68.9866 59.6622 68.6848 59.5746 68.4063C59.4869 68.1279 59.2922 67.8956 59.0334 67.7607C58.7745 67.6258 58.4726 67.5993 58.1942 67.6869C56.8397 68.1137 55.4499 68.497 54.0249 68.8369C53.7472 68.9105 53.5093 69.0897 53.3619 69.3364C53.2146 69.583 53.1696 69.8775 53.2364 70.1569C53.3033 70.4363 53.4768 70.6785 53.7198 70.8317C53.9629 70.9849 54.2562 71.0371 54.5371 70.9769L54.5351 70.9779ZM63.084 68.2774C64.4991 67.7098 65.8656 67.0961 67.1835 66.4362C67.3128 66.3715 67.4281 66.282 67.5228 66.1728C67.6175 66.0635 67.6898 65.9367 67.7355 65.7995C67.7812 65.6624 67.7994 65.5175 67.7891 65.3733C67.7789 65.2291 67.7403 65.0883 67.6756 64.959C67.6109 64.8297 67.5214 64.7144 67.4122 64.6197C67.3029 64.525 67.1761 64.4527 67.0389 64.407C66.9018 64.3613 66.7569 64.3431 66.6127 64.3534C66.4685 64.3637 66.3277 64.4022 66.1984 64.4669C64.9361 65.0984 63.625 65.6876 62.2649 66.2344C61.9935 66.3432 61.7766 66.5553 61.6616 66.8241C61.5467 67.0929 61.5433 67.3963 61.6521 67.6676C61.7609 67.939 61.973 68.156 62.2418 68.2709C62.5106 68.3858 62.8141 68.3892 63.0854 68.2804L63.084 68.2774ZM71.1224 64.2401C72.4028 63.4489 73.6427 62.5939 74.8374 61.6783C75.0628 61.4985 75.2086 61.2373 75.2435 60.951C75.2783 60.6648 75.1994 60.3762 75.0237 60.1475C74.848 59.9188 74.5895 59.7683 74.3039 59.7282C74.0184 59.6881 73.7284 59.7617 73.4966 59.9332C72.3605 60.8041 71.1814 61.6173 69.9637 62.3699C69.8401 62.4456 69.7326 62.545 69.6475 62.6624C69.5623 62.7798 69.5012 62.9129 69.4677 63.054C69.4342 63.195 69.4288 63.3413 69.452 63.4845C69.4752 63.6276 69.5265 63.7648 69.6028 63.8881C69.6792 64.0113 69.7792 64.1183 69.897 64.2028C70.0148 64.2873 70.1482 64.3477 70.2895 64.3805C70.4307 64.4133 70.577 64.4179 70.7201 64.3939C70.8631 64.37 71 64.3181 71.1228 64.2411L71.1224 64.2401ZM78.2869 58.7037C79.38 57.6464 80.3979 56.514 81.3332 55.3147C81.4218 55.2005 81.487 55.07 81.5252 54.9306C81.5633 54.7912 81.5737 54.6457 81.5556 54.5023C81.5375 54.3589 81.4913 54.2204 81.4197 54.0949C81.3481 53.9693 81.2525 53.8591 81.1383 53.7705C81.0241 53.6819 80.8936 53.6167 80.7542 53.5785C80.6148 53.5404 80.4692 53.5301 80.3258 53.5481C80.1825 53.5662 80.044 53.6124 79.9185 53.684C79.7929 53.7556 79.6827 53.8512 79.5941 53.9654C78.7221 55.0833 77.7731 56.1389 76.754 57.1246C76.6499 57.2252 76.5666 57.3454 76.509 57.4782C76.4515 57.6111 76.4206 57.754 76.4184 57.8987C76.4161 58.0435 76.4424 58.1873 76.4958 58.3218C76.5492 58.4564 76.6286 58.5791 76.7295 58.683C76.8304 58.7868 76.9508 58.8697 77.0838 58.9269C77.2168 58.9842 77.3597 59.0146 77.5045 59.0165C77.6493 59.0184 77.793 58.9917 77.9274 58.9379C78.0618 58.8841 78.1843 58.8044 78.2879 58.7032L78.2869 58.7037ZM83.8301 51.4352C84.566 50.0387 85.1014 48.5455 85.4205 46.9996C85.4701 46.7156 85.4062 46.4235 85.2427 46.1861C85.0792 45.9487 84.8291 45.785 84.5461 45.73C84.2631 45.6751 83.9699 45.7334 83.7294 45.8923C83.489 46.0513 83.3205 46.2983 83.2602 46.5801C82.9796 47.921 82.5119 49.2157 81.871 50.4265C81.7416 50.6856 81.7196 50.9854 81.8098 51.2607C81.8999 51.536 82.095 51.7647 82.3527 51.897C82.6104 52.0294 82.9099 52.0549 83.1862 51.9678C83.4626 51.8808 83.6934 51.6883 83.8287 51.4322L83.8301 51.4352ZM83.9785 41.9149C82.7136 40.7631 81.1467 39.9955 79.4614 39.7019C79.3191 39.6764 79.1733 39.6791 79.0321 39.71C78.8909 39.7408 78.7571 39.7992 78.6385 39.8818C78.5198 39.9643 78.4186 40.0694 78.3406 40.1911C78.2626 40.3128 78.2093 40.4486 78.1838 40.5909C78.1323 40.8782 78.197 41.1742 78.3637 41.4138C78.5304 41.6534 78.7855 41.817 79.0728 41.8685C80.3375 42.0868 81.5147 42.658 82.4689 43.5162C82.5734 43.6188 82.6973 43.6996 82.8334 43.7537C82.9694 43.8079 83.1149 43.8343 83.2614 43.8315C83.4078 43.8287 83.5522 43.7967 83.6861 43.7374C83.8199 43.6781 83.9407 43.5926 84.0411 43.4861C84.1416 43.3795 84.2197 43.254 84.2711 43.1168C84.3224 42.9797 84.3458 42.8337 84.34 42.6873C84.3341 42.541 84.2992 42.3973 84.2371 42.2647C84.175 42.132 84.0871 42.0131 83.9785 41.9149ZM74.4693 40.3685C72.9026 41.2069 71.6926 42.5843 71.063 44.2459C71.0062 44.38 70.9766 44.5241 70.9758 44.6697C70.9751 44.8154 71.0033 44.9597 71.0587 45.0944C71.1142 45.2291 71.1958 45.3514 71.2989 45.4543C71.402 45.5572 71.5245 45.6386 71.6593 45.6938C71.7941 45.749 71.9385 45.7769 72.0841 45.7758C72.2298 45.7748 72.3738 45.7449 72.5078 45.6878C72.6418 45.6307 72.7631 45.5476 72.8647 45.4432C72.9664 45.3389 73.0463 45.2154 73.0998 45.08C73.5321 43.902 74.3788 42.9218 75.4814 42.3228C75.6099 42.2563 75.7239 42.1651 75.8172 42.0545C75.9104 41.9439 75.9809 41.816 76.0247 41.6782C76.0685 41.5403 76.0847 41.3952 76.0724 41.251C76.0601 41.1069 76.0195 40.9666 75.953 40.8382C75.8865 40.7097 75.7953 40.5956 75.6847 40.5024C75.5741 40.4092 75.4462 40.3387 75.3084 40.2949C75.1705 40.2511 75.0254 40.2349 74.8813 40.2472C74.7371 40.2594 74.5968 40.3 74.4684 40.3665L74.4693 40.3685ZM70.4781 49.2727C70.6863 50.165 71.0856 51.0014 71.6485 51.7243C72.2113 52.4472 72.9244 53.0393 73.7384 53.4598C73.9915 53.5806 74.2812 53.6001 74.5483 53.5145C74.8154 53.4289 75.0397 53.2446 75.1754 52.9991C75.3112 52.7537 75.3481 52.4657 75.2786 52.194C75.2092 51.9223 75.0386 51.6873 74.8018 51.5371C74.2613 51.2663 73.7866 50.8806 73.4111 50.4068C73.0355 49.9331 72.7683 49.3828 72.6281 48.7948C72.5595 48.5146 72.3837 48.2724 72.1384 48.1206C71.8931 47.9687 71.5979 47.9192 71.3165 47.9828C71.0351 48.0464 70.7899 48.2179 70.6337 48.4605C70.4775 48.703 70.4228 48.9972 70.4814 49.2797L70.4781 49.2727ZM78.4007 54.63C79.9824 54.6666 81.561 54.4729 83.087 54.0549C83.2267 54.0178 83.3577 53.9536 83.4726 53.8659C83.5875 53.7782 83.6839 53.6687 83.7565 53.5437C83.8291 53.4187 83.8763 53.2806 83.8955 53.1373C83.9147 52.9941 83.9055 52.8484 83.8684 52.7087C83.8314 52.569 83.7671 52.438 83.6794 52.3231C83.5917 52.2082 83.4822 52.1118 83.3572 52.0392C83.2322 51.9666 83.0941 51.9194 82.9509 51.9002C82.8076 51.881 82.662 51.8902 82.5223 51.9272C81.2033 52.29 79.8387 52.4592 78.4711 52.4296C78.1874 52.433 77.916 52.5458 77.7135 52.7445C77.511 52.9432 77.393 53.2125 77.3843 53.496C77.3755 53.7796 77.4766 54.0556 77.6665 54.2665C77.8563 54.4773 78.1202 54.6067 78.4032 54.6276L78.4007 54.63ZM87.5585 52.2928C88.9166 51.5758 90.2081 50.7391 91.4176 49.7927C91.5348 49.705 91.6334 49.5949 91.7075 49.4687C91.7817 49.3425 91.8299 49.2028 91.8494 49.0577C91.8689 48.9126 91.8593 48.7651 91.8211 48.6238C91.7829 48.4825 91.7169 48.3503 91.6269 48.2348C91.537 48.1193 91.4249 48.023 91.2972 47.9513C91.1696 47.8797 91.0289 47.8343 90.8835 47.8177C90.7381 47.8011 90.5908 47.8136 90.4503 47.8547C90.3098 47.8957 90.1789 47.9643 90.0652 48.0565C88.9591 48.9226 87.778 49.6883 86.5359 50.3446C86.2772 50.4804 86.083 50.7134 85.9961 50.9924C85.9091 51.2714 85.9366 51.5735 86.0724 51.8322C86.2081 52.091 86.4412 52.2852 86.7201 52.3721C86.9991 52.459 87.3012 52.4316 87.5599 52.2958L87.5585 52.2928ZM94.6722 46.853C95.0668 46.4492 95.4094 46.0903 95.7243 45.7552L96.1867 45.2494C96.3065 45.1158 96.9243 44.4197 97.0821 44.2478C97.2003 44.1186 97.3103 44.0029 97.4233 43.8883L97.653 43.6597C97.863 43.4569 97.9837 43.1789 97.9887 42.887C97.9936 42.5952 97.8824 42.3133 97.6796 42.1034C97.4767 41.8935 97.1988 41.7727 96.9069 41.7678C96.615 41.7628 96.3331 41.874 96.1232 42.0768L95.854 42.3432L95.6531 42.5426L95.0907 43.1594L94.5446 43.7723L94.1025 44.2565C93.7997 44.5835 93.4737 44.9262 93.0933 45.3161C92.9923 45.4195 92.9128 45.5418 92.8591 45.676C92.8054 45.8102 92.7787 45.9537 92.7805 46.0982C92.784 46.3901 92.9034 46.6686 93.1123 46.8724C93.3212 47.0763 93.6026 47.1888 93.8944 47.1853C94.1863 47.1817 94.4648 47.0623 94.6687 46.8534L94.6722 46.853ZM100.939 40.7239C102.026 39.6718 103.048 38.5551 104.001 37.3797C104.185 37.1528 104.271 36.8621 104.241 36.5716C104.211 36.281 104.066 36.0143 103.839 35.8303C103.612 35.6462 103.322 35.5598 103.031 35.5901C102.741 35.6204 102.474 35.7649 102.29 35.9918C101.393 37.0986 100.43 38.1502 99.4062 39.1409C99.203 39.3453 99.0881 39.6213 99.0862 39.9095C99.0842 40.1977 99.1954 40.4751 99.3958 40.6822C99.5963 40.8893 99.8699 41.0096 100.158 41.0171C100.446 41.0246 100.726 40.9188 100.937 40.7224L100.939 40.7239ZM106.665 33.648C107.379 32.5076 108.03 31.3297 108.618 30.1194C108.745 29.8568 108.763 29.5542 108.667 29.2784C108.572 29.0026 108.371 28.776 108.108 28.6486C107.845 28.5211 107.543 28.5032 107.267 28.5988C106.991 28.6944 106.765 28.8957 106.637 29.1583C106.084 30.2979 105.47 31.407 104.798 32.4808C104.648 32.7281 104.601 33.0249 104.667 33.3067C104.734 33.5885 104.909 33.8328 105.154 33.9864C105.4 34.14 105.696 34.1907 105.979 34.1275C106.261 34.0642 106.508 33.8921 106.664 33.6485L106.665 33.648Z" fill="#96A7C1"/>
</g>
</svg>
