<svg width="194" height="194" viewBox="0 0 194 194" fill="none" xmlns="http://www.w3.org/2000/svg">
<mask id="mask0_198_13533" style="mask-type:alpha" maskUnits="userSpaceOnUse" x="0" y="0" width="194" height="194">
<rect width="194" height="194" fill="#C4C4C4"/>
</mask>
<g mask="url(#mask0_198_13533)">
</g>
<g clip-path="url(#clip0_198_13533)">
<path d="M57.5176 83.6448C57.508 83.6448 57.4983 83.6448 57.4887 83.6448C56.495 83.6351 55.5689 82.9692 54.8935 81.782L53.6683 79.62C52.5106 77.5931 51.3143 75.4987 50.1856 73.4139C49.7708 72.6514 49.3849 72.4101 48.5552 72.4391C40.4996 72.6321 32.2414 72.1495 24.0314 71.0203C19.912 70.4508 15.725 69.7366 11.5959 68.8776C6.03898 67.7291 2.37296 63.5209 1.54328 57.3148C0.50136 49.5548 0.0286359 42.7986 0.0961678 36.6794C0.0479307 29.0352 0.588186 21.5841 1.75552 13.882C2.51767 8.86307 6.40558 4.71282 11.2293 3.78626C16.7959 2.72456 22.5457 1.80765 28.8166 0.996901C35.8495 0.0799858 43.4324 -0.190263 52.6746 0.137896C62.1388 0.475707 71.6801 1.64357 81.0381 3.62218C86.4406 4.76108 90.2899 8.9982 91.081 14.6734C92.451 24.4699 92.9237 32.5484 92.5667 40.1154C92.2966 45.8968 91.766 51.8905 90.9653 58.4441C90.2996 63.878 86.3538 67.9124 80.6907 68.9741C78.1438 69.4567 75.5583 69.8717 73.0403 70.2868C71.0723 70.6053 69.1042 70.9238 67.1361 71.2809C66.7599 71.3485 66.2679 71.6766 66.0653 71.9951C64.7532 74.1088 63.4797 76.2515 62.1966 78.3942C61.502 79.5621 60.8074 80.7299 60.1031 81.8882C59.4085 83.0174 58.492 83.6448 57.5176 83.6448ZM48.6324 71.4739C49.7611 71.4739 50.4557 71.9083 51.0249 72.9506C52.1537 75.0258 53.35 77.1105 54.498 79.1374L55.7329 81.2994C56.2345 82.1777 56.8616 82.67 57.4983 82.6796C57.508 82.6796 57.508 82.6796 57.5176 82.6796C58.1447 82.6796 58.7718 82.2163 59.2735 81.3766C59.9777 80.2184 60.6723 79.0505 61.367 77.8827C62.6501 75.74 63.9235 73.5973 65.2452 71.4739C65.5925 70.9141 66.3161 70.4315 66.9625 70.3157C68.9305 69.9683 70.9083 69.6401 72.886 69.3216C75.3847 68.9162 77.9798 68.4915 80.5074 68.0186C85.7556 67.0341 89.3927 63.3182 90.0102 58.3186C90.8109 51.794 91.3415 45.8196 91.6116 40.0672C91.9686 32.5678 91.4959 24.5472 90.1356 14.8085C89.4024 9.54835 85.8425 5.62009 80.8548 4.56805C71.5546 2.60874 62.0616 1.44088 52.6457 1.10307C43.4324 0.774911 35.9074 1.04516 28.9323 1.95242C22.6808 2.76317 16.9502 3.67043 11.4029 4.73213C6.97478 5.58148 3.39559 9.40357 2.70097 14.0268C1.54328 21.6709 1.00303 29.0835 1.06091 36.6794C0.993378 42.76 1.4661 49.468 2.49838 57.1893C3.27017 62.9611 6.65642 66.8797 11.7888 67.9317C15.8986 68.7811 20.0663 69.4953 24.1568 70.0648C32.3186 71.194 40.5092 71.667 48.5262 71.4739C48.5648 71.4739 48.5938 71.4739 48.6324 71.4739ZM45.1882 53.8209H45.1786C35.097 53.4445 26.5398 48.8116 20.4136 40.4339C19.8252 39.6232 19.0919 38.3588 19.6129 36.7566C20.047 35.415 21.0214 34.5367 22.3431 34.2858C23.8095 34.0059 25.0926 34.5174 26.1442 35.8011C26.424 36.1389 26.7038 36.4864 26.9835 36.8338C28.0062 38.1079 29.0674 39.4301 30.283 40.5015C35.3093 44.9413 42.0239 47.0647 48.7288 46.3215C55.4917 45.5687 61.666 41.9782 65.6504 36.4574C66.345 35.4922 67.1458 34.3919 68.6411 34.2279C70.1944 34.0541 71.4485 34.6525 72.2589 35.9362C73.1368 37.3357 73.0789 38.8028 72.0949 39.961C71.7379 40.376 71.3906 40.8007 71.0433 41.2254C69.5287 43.0399 67.9658 44.922 66.1521 46.4856C60.5373 51.3114 53.6876 53.7051 45.1979 53.8112H45.1882V53.8209ZM23.1149 35.1737C22.922 35.1737 22.729 35.193 22.5264 35.2316C21.5327 35.4247 20.8671 36.0327 20.5294 37.0558C20.2303 37.9631 20.4426 38.8317 21.1951 39.8645C27.1282 47.9912 35.4347 52.4889 45.1979 52.8557C53.5525 52.7495 60.0163 50.5007 65.5154 45.7713C67.2712 44.2657 68.8051 42.4125 70.3005 40.627C70.6574 40.2023 71.0047 39.7776 71.3617 39.3626C72.066 38.5325 72.0949 37.5094 71.4389 36.4767C70.8214 35.5019 69.9435 35.0869 68.7376 35.2123C67.6571 35.3281 67.0879 36.1196 66.4222 37.0462C62.2738 42.7793 55.8583 46.5242 48.8253 47.2963C41.8599 48.0685 34.8655 45.8582 29.6366 41.2447C28.3631 40.1154 27.273 38.7642 26.231 37.4515C25.9513 37.1041 25.6811 36.7663 25.4014 36.4285C24.7164 35.5694 23.9735 35.1737 23.1149 35.1737ZM58.1447 27.3944C56.8713 27.3944 55.5978 26.8539 54.6331 25.9177C53.6394 24.9429 53.0605 23.6302 53.0509 22.3079C53.0412 20.9953 53.5815 19.673 54.5462 18.6885C55.511 17.7041 56.8134 17.1443 58.1158 17.1346C58.1254 17.1346 58.1351 17.1346 58.1447 17.1346C60.846 17.1346 63.2482 19.4993 63.2868 22.2211C63.3254 24.9429 60.9521 27.3558 58.2026 27.3944C58.1833 27.3944 58.164 27.3944 58.1447 27.3944ZM58.1544 18.0901C58.1447 18.0901 58.1351 18.0901 58.1254 18.0901C57.0739 18.0998 56.0126 18.5631 55.2312 19.3545C54.4498 20.1556 54.006 21.227 54.0156 22.2886C54.0253 23.3503 54.498 24.4217 55.3084 25.2131C56.1091 25.9949 57.151 26.4292 58.193 26.4196C60.4215 26.3906 62.3606 24.4217 62.3221 22.2211C62.2931 20.0205 60.354 18.0901 58.1544 18.0901ZM33.2061 27.3944C33.1965 27.3944 33.1868 27.3944 33.1772 27.3944C30.447 27.3751 28.0641 24.9718 28.0737 22.25C28.0833 19.5282 30.4856 17.1346 33.2061 17.1346C34.4989 17.1346 35.8109 17.7041 36.795 18.6982C37.779 19.6827 38.3386 20.9953 38.3289 22.2886C38.3193 23.5916 37.7501 24.8946 36.7564 25.8791C35.782 26.8346 34.4892 27.3944 33.2061 27.3944ZM33.2061 18.0901C30.9969 18.0901 29.0481 20.0301 29.0384 22.2404C29.0288 24.4506 30.9679 26.4003 33.1868 26.4196C33.1965 26.4196 33.2061 26.4196 33.2061 26.4196C34.2384 26.4196 35.2803 25.966 36.0811 25.1745C36.8914 24.3734 37.3642 23.3117 37.3642 22.2597C37.3738 21.227 36.9107 20.1653 36.11 19.3545C35.3093 18.5631 34.248 18.0901 33.2061 18.0901Z" fill="#EFEFEF"/>
<path d="M98.7031 162.429C98.6935 162.429 98.6935 162.429 98.6838 162.429C98.2304 162.419 97.8252 162.149 97.5454 161.647L97.1402 160.933C96.7447 160.247 96.3588 159.562 95.9825 158.867C95.8957 158.713 95.8764 158.703 95.7317 158.713C93.0401 158.78 90.2713 158.616 87.5218 158.24C86.1422 158.047 84.7433 157.805 83.3637 157.525C81.3763 157.11 80.0643 155.614 79.7652 153.404C79.4179 150.808 79.2636 148.549 79.2829 146.494C79.2636 143.936 79.4469 141.436 79.8328 138.859C80.1029 137.054 81.5114 135.568 83.2383 135.23C85.1002 134.873 87.0201 134.574 89.1039 134.294C91.4579 133.985 94.0048 133.898 97.092 134.004C100.266 134.12 103.459 134.506 106.585 135.172C108.515 135.577 109.894 137.093 110.174 139.12C110.637 142.401 110.791 145.113 110.666 147.642C110.579 149.572 110.396 151.57 110.126 153.761C109.894 155.682 108.447 157.168 106.45 157.545C105.601 157.709 104.752 157.844 103.893 157.979C103.237 158.085 102.591 158.191 101.935 158.307C101.896 158.317 101.819 158.365 101.8 158.404C101.356 159.118 100.932 159.832 100.507 160.546L99.8222 161.685C99.5521 162.168 99.1469 162.429 98.7031 162.429ZM95.751 157.738C96.243 157.738 96.5903 157.95 96.8315 158.394C97.2078 159.079 97.5937 159.765 97.9796 160.45L98.3944 161.174C98.5198 161.396 98.6163 161.473 98.7128 161.473C98.7803 161.473 98.8961 161.405 99.0215 161.193L99.7064 160.054C100.141 159.33 100.565 158.606 101.009 157.892C101.173 157.632 101.491 157.419 101.8 157.361C102.456 157.246 103.112 157.139 103.778 157.033C104.627 156.898 105.466 156.763 106.305 156.599C107.907 156.3 109.016 155.17 109.209 153.645C109.479 151.483 109.653 149.505 109.74 147.594C109.856 145.123 109.701 142.469 109.248 139.245C109.016 137.604 107.955 136.436 106.411 136.108C103.334 135.462 100.198 135.075 97.0823 134.96C94.0434 134.854 91.5544 134.94 89.2486 135.24C87.1744 135.51 85.2739 135.809 83.4312 136.166C82.1096 136.417 81.0001 137.604 80.7975 138.984C80.4116 141.513 80.238 143.965 80.2572 146.474V146.484C80.238 148.491 80.3923 150.711 80.73 153.259C80.9712 155.035 82.0034 156.242 83.5663 156.56C84.9266 156.84 86.3062 157.081 87.6665 157.265C90.3677 157.641 93.0787 157.796 95.7221 157.728C95.7221 157.738 95.7317 157.738 95.751 157.738ZM94.603 152.507H94.5933C91.1395 152.381 88.2067 150.789 86.1036 147.922C85.7273 147.41 85.6309 146.918 85.7852 146.407C85.9685 145.847 86.3737 145.47 86.9429 145.364C87.3674 145.287 87.9752 145.326 88.5154 145.982L88.7952 146.329C89.1425 146.764 89.4705 147.169 89.8564 147.507C91.4579 148.926 93.5996 149.601 95.7414 149.36C97.9024 149.119 99.8704 147.97 101.144 146.214C101.404 145.856 101.723 145.413 102.369 145.345C103.016 145.277 103.546 145.528 103.884 146.059C104.25 146.648 104.221 147.285 103.807 147.777L103.459 148.192C102.948 148.81 102.417 149.447 101.79 149.978C99.8608 151.638 97.5165 152.458 94.6126 152.487H94.603V152.507ZM87.2613 146.3C87.213 146.3 87.1648 146.31 87.1262 146.32C86.9911 146.349 86.8078 146.416 86.7114 146.706C86.6631 146.851 86.6535 147.034 86.885 147.353C88.8242 150.007 91.429 151.416 94.6126 151.541C97.3042 151.503 99.3881 150.779 101.163 149.264C101.723 148.781 102.234 148.173 102.716 147.584L103.073 147.159C103.122 147.102 103.286 146.909 103.073 146.58C102.938 146.358 102.755 146.281 102.485 146.31C102.292 146.329 102.176 146.465 101.945 146.793C100.507 148.771 98.2979 150.065 95.8668 150.335C93.4549 150.605 91.0431 149.843 89.2293 148.24C88.7856 147.845 88.419 147.381 88.0524 146.937L87.7822 146.6C87.5796 146.368 87.4156 146.3 87.2613 146.3ZM98.9154 143.714C98.4137 143.714 97.9024 143.501 97.5261 143.135C97.1306 142.749 96.9087 142.227 96.899 141.706C96.8894 140.606 97.8059 139.67 98.9057 139.66C99.9862 139.699 100.932 140.577 100.951 141.668C100.97 142.739 100.025 143.704 98.9443 143.714C98.9347 143.714 98.925 143.714 98.9154 143.714ZM97.8638 141.697C97.8638 141.967 97.9892 142.237 98.1918 142.44C98.3944 142.642 98.6356 142.739 98.925 142.749C99.4846 142.739 99.9862 142.227 99.9862 141.677C99.9766 141.117 99.4749 140.616 98.9154 140.616C98.9154 140.616 98.9154 140.616 98.9057 140.616C98.3462 140.625 97.8541 141.127 97.8638 141.697ZM90.6186 143.714H90.6089C89.5091 143.704 88.583 142.778 88.5926 141.677C88.5926 140.577 89.5284 139.65 90.6186 139.65C91.1299 139.65 91.6509 139.872 92.0367 140.268C92.4226 140.654 92.6445 141.175 92.6445 141.687C92.6445 142.208 92.413 142.72 92.0271 143.106C91.6412 143.501 91.1299 143.714 90.6186 143.714ZM90.6186 140.625C90.059 140.625 89.5574 141.127 89.5574 141.687C89.5574 142.237 90.059 142.749 90.6186 142.758C90.8887 142.758 91.1492 142.642 91.3518 142.44C91.564 142.237 91.6798 141.967 91.6798 141.697C91.6798 141.436 91.564 141.166 91.3518 140.963C91.1492 140.741 90.8791 140.625 90.6186 140.625Z" fill="#EFEFEF"/>
<path d="M164.845 193.999C164.836 193.999 164.826 193.999 164.816 193.999C163.958 193.99 163.176 193.42 162.597 192.417L161.594 190.65C160.62 188.942 159.645 187.234 158.709 185.506C158.381 184.907 158.092 184.724 157.436 184.743C150.76 184.898 143.939 184.502 137.147 183.566C133.742 183.093 130.279 182.504 126.863 181.8C122.233 180.844 119.174 177.331 118.489 172.167C117.631 165.739 117.245 160.16 117.293 155.093C117.254 148.781 117.698 142.604 118.663 136.234C119.3 132.045 122.541 128.59 126.564 127.817C131.166 126.939 135.932 126.177 141.103 125.511C146.92 124.758 153.191 124.526 160.842 124.806C168.675 125.086 176.567 126.051 184.304 127.682C188.8 128.628 192.012 132.161 192.668 136.89C193.797 144.998 194.193 151.677 193.894 157.931C193.672 162.718 193.228 167.669 192.562 173.084C192.003 177.611 188.723 180.979 183.995 181.867C181.892 182.263 179.75 182.61 177.676 182.948C176.046 183.209 174.415 183.479 172.795 183.769C172.505 183.817 172.119 184.077 171.965 184.328C170.885 186.075 169.833 187.842 168.772 189.608C168.193 190.573 167.614 191.538 167.035 192.503C166.466 193.469 165.685 193.999 164.845 193.999ZM157.504 183.769C158.468 183.769 159.066 184.135 159.549 185.033C160.485 186.751 161.459 188.459 162.424 190.158L163.437 191.934C163.832 192.639 164.324 193.025 164.826 193.034C165.289 193.034 165.81 192.677 166.215 192.002C166.794 191.036 167.373 190.071 167.952 189.106C169.013 187.34 170.064 185.564 171.155 183.817C171.454 183.334 172.071 182.919 172.631 182.823C174.261 182.533 175.892 182.263 177.522 182.002C179.586 181.665 181.728 181.317 183.822 180.921C188.115 180.111 191.106 177.07 191.607 172.968C192.273 167.583 192.707 162.641 192.929 157.892C193.218 151.705 192.832 145.075 191.713 137.025C191.106 132.711 188.192 129.497 184.101 128.628C176.412 127.007 168.579 126.041 160.803 125.771C153.201 125.501 146.988 125.723 141.219 126.476C136.057 127.151 131.32 127.904 126.738 128.773C123.168 129.458 120.178 132.653 119.608 136.379C118.653 142.7 118.21 148.82 118.248 155.093V155.103C118.2 160.122 118.586 165.662 119.435 172.042C120.062 176.771 122.84 179.985 127.047 180.854C130.443 181.549 133.877 182.147 137.263 182.61C143.997 183.537 150.77 183.933 157.397 183.778C157.446 183.778 157.475 183.769 157.504 183.769Z" fill="#EFEFEF"/>
<path d="M14.2781 134.921C13.7957 134.921 13.3133 134.912 12.8406 134.893C11.1716 134.815 9.43506 134.661 7.54416 134.429C5.85587 134.217 4.55346 132.953 4.2158 131.196C4.08074 130.462 3.95532 129.719 3.83955 128.976C3.75273 128.416 3.65625 127.847 3.55978 127.287C3.55013 127.268 3.52119 127.219 3.5019 127.21C2.89411 126.833 2.27667 126.467 1.65924 126.09L0.665554 125.501C0.0674137 125.144 -0.00976562 124.691 -0.00976562 124.449C-0.000118205 124.034 0.250715 123.668 0.704143 123.407L1.32158 123.059C1.91972 122.722 2.51786 122.374 3.116 122.046C3.19318 122.007 3.21247 121.978 3.21247 121.978C3.16424 119.546 3.2993 117.153 3.62731 114.769C3.79132 113.572 4.00356 112.365 4.24475 111.169C4.6017 109.441 5.95234 108.263 7.86253 108.003C10.1104 107.704 12.0688 107.568 13.8439 107.588C16.0435 107.568 18.2239 107.733 20.4524 108.07C22.0346 108.312 23.3466 109.547 23.6361 111.072C23.9448 112.674 24.2053 114.334 24.4464 116.149C24.7069 118.195 24.7938 120.396 24.6973 123.069C24.6008 125.81 24.2631 128.58 23.6939 131.292C23.337 132.991 22.0056 134.198 20.2305 134.449C17.9923 134.777 16.0628 134.921 14.2781 134.921ZM13.5352 108.563C11.8855 108.563 10.0718 108.698 7.99759 108.978C6.4926 109.18 5.46997 110.059 5.19984 111.381C4.95866 112.558 4.75606 113.746 4.59205 114.923C4.27369 117.249 4.13863 119.595 4.18686 121.882C4.19651 122.355 4.00356 122.683 3.57907 122.915C2.98093 123.243 2.39244 123.581 1.80395 123.918L1.18651 124.266C1.02251 124.362 0.964624 124.449 0.964624 124.478C0.964624 124.507 1.01286 124.594 1.17687 124.691L2.1609 125.279C2.78799 125.656 3.40542 126.023 4.02286 126.409C4.26404 126.563 4.46664 126.853 4.51487 127.133C4.61135 127.702 4.70782 128.262 4.8043 128.831C4.92007 129.565 5.04548 130.298 5.18055 131.022C5.43138 132.383 6.39612 133.319 7.66958 133.474C9.53153 133.705 11.2391 133.85 12.8888 133.927C15.0209 134.024 17.3074 133.898 20.0858 133.503C21.475 133.31 22.4687 132.412 22.7389 131.099C23.2984 128.445 23.6264 125.733 23.7229 123.04C23.8194 120.415 23.7422 118.263 23.4817 116.274C23.2502 114.479 22.9897 112.838 22.681 111.255C22.4687 110.145 21.4654 109.209 20.2981 109.026C18.1177 108.698 16.005 108.543 13.8439 108.553H13.8343C13.7378 108.563 13.6317 108.563 13.5352 108.563Z" fill="#EFEFEF"/>
<path d="M165.067 88.5453C164.768 88.5453 164.489 88.5356 164.199 88.526C163.196 88.4777 162.154 88.3909 161.016 88.2461C159.916 88.111 159.067 87.2906 158.855 86.1517C158.768 85.7077 158.7 85.2637 158.623 84.8197C158.575 84.5012 158.517 84.1827 158.459 83.8738C158.112 83.6615 157.764 83.4492 157.417 83.2465L156.809 82.8797C156.491 82.6867 156.308 82.3971 156.308 82.0786C156.308 81.7601 156.501 81.4802 156.829 81.2872L157.176 81.0845C157.523 80.8818 157.88 80.6888 158.227 80.4957C158.199 79.0962 158.285 77.6678 158.478 76.2586C158.575 75.5347 158.7 74.8109 158.855 74.087C159.086 72.9674 159.954 72.2049 161.189 72.0408C162.54 71.8574 163.736 71.7802 164.797 71.7899C166.148 71.7802 167.441 71.8767 168.782 72.0794C169.814 72.2338 170.663 73.0349 170.856 74.0291C171.039 74.9942 171.203 76.0173 171.338 77.0887C171.502 78.3241 171.551 79.6464 171.493 81.2679C171.435 82.9183 171.232 84.5881 170.885 86.2289C170.653 87.3292 169.795 88.111 168.647 88.275C167.306 88.4584 166.148 88.5453 165.067 88.5453ZM157.388 82.0786L157.919 82.4068C158.285 82.6288 158.662 82.8508 159.019 83.0728C159.211 83.1886 159.356 83.4106 159.404 83.6326C159.462 83.9704 159.52 84.3178 159.578 84.6556C159.646 85.09 159.723 85.5339 159.8 85.9683C159.935 86.6922 160.446 87.2037 161.131 87.2809C162.25 87.416 163.263 87.5029 164.247 87.5512C165.511 87.6091 166.872 87.5319 168.521 87.3002C169.264 87.194 169.804 86.7115 169.949 86.0165C170.287 84.4336 170.48 82.8218 170.538 81.2196C170.595 79.656 170.547 78.382 170.393 77.1948C170.258 76.1525 170.094 75.139 169.92 74.1932C169.804 73.6044 169.274 73.1122 168.656 73.0156C167.364 72.8226 166.1 72.7261 164.817 72.7357H164.807C163.775 72.7261 162.646 72.8033 161.334 72.977C160.504 73.0832 159.974 73.5465 159.819 74.2607C159.675 74.9556 159.549 75.6699 159.453 76.3648C159.26 77.745 159.183 79.1445 159.211 80.5054C159.221 80.8625 159.067 81.1231 158.748 81.2968C158.382 81.4995 158.025 81.7022 157.668 81.9049L157.388 82.0786Z" fill="#EFEFEF"/>
<path d="M183.542 119.307H183.533C183.118 119.297 182.751 119.046 182.491 118.592L182.143 117.984C181.806 117.386 181.458 116.788 181.13 116.179C181.092 116.102 181.063 116.083 181.063 116.083C181.063 116.083 181.044 116.073 180.966 116.073C178.632 116.122 176.239 115.986 173.856 115.658C172.67 115.494 171.454 115.282 170.258 115.041C168.531 114.683 167.354 113.332 167.093 111.421C166.794 109.172 166.659 107.213 166.679 105.437C166.669 103.227 166.823 101.065 167.161 98.8256C167.402 97.2428 168.637 95.9301 170.161 95.6406C171.772 95.3317 173.432 95.0711 175.236 94.8298C177.271 94.5596 179.471 94.4824 182.153 94.5789C184.893 94.6754 187.662 95.0132 190.373 95.5827C192.071 95.9398 193.286 97.2717 193.527 99.0476C193.923 101.885 194.058 104.231 193.961 106.431C193.884 108.111 193.73 109.838 193.498 111.73C193.286 113.419 192.022 114.722 190.267 115.06C189.533 115.195 188.8 115.32 188.067 115.436C187.498 115.533 186.928 115.62 186.369 115.726C186.35 115.735 186.301 115.764 186.292 115.784C185.916 116.392 185.549 117.01 185.173 117.627L184.575 118.621C184.227 119.22 183.783 119.307 183.542 119.307ZM180.986 115.118C181.439 115.118 181.748 115.311 181.979 115.726C182.307 116.324 182.645 116.923 182.983 117.511L183.33 118.119C183.426 118.284 183.513 118.341 183.542 118.341C183.571 118.341 183.658 118.293 183.754 118.129L184.343 117.145C184.719 116.517 185.086 115.9 185.472 115.282C185.626 115.041 185.916 114.838 186.195 114.79C186.764 114.683 187.343 114.597 187.913 114.5C188.636 114.384 189.369 114.268 190.083 114.124C191.443 113.873 192.379 112.908 192.534 111.634C192.765 109.771 192.91 108.062 192.987 106.412C193.084 104.279 192.958 101.991 192.563 99.2117C192.37 97.8219 191.472 96.8277 190.16 96.5575C187.507 95.9977 184.796 95.6695 182.105 95.573C179.481 95.4765 177.329 95.5537 175.342 95.8143C173.557 96.0459 171.907 96.3065 170.325 96.6154C169.216 96.8277 168.28 97.8315 168.097 98.9994C167.769 101.181 167.614 103.294 167.624 105.456V105.466C167.605 107.194 167.74 109.114 168.039 111.315C168.241 112.821 169.119 113.844 170.441 114.114C171.618 114.355 172.805 114.558 173.982 114.722C176.307 115.041 178.651 115.176 180.937 115.127C180.966 115.118 180.976 115.118 180.986 115.118Z" fill="#EFEFEF"/>
<path d="M115.325 24.748H115.316C114.901 24.7384 114.534 24.4874 114.274 24.0338L113.927 23.4161C113.589 22.8177 113.242 22.2193 112.914 21.6209C112.875 21.5437 112.856 21.5244 112.846 21.5244C112.846 21.5244 112.817 21.5147 112.75 21.5147C110.415 21.563 108.022 21.4278 105.639 21.0997C104.443 20.9356 103.237 20.7233 102.041 20.482C100.314 20.1249 99.1371 18.7736 98.8766 16.8626C98.5775 14.6137 98.4425 12.6544 98.4618 10.8785C98.4425 8.66824 98.6065 6.50625 98.9441 4.26705C99.1853 2.68416 100.42 1.37152 101.944 1.08197C103.556 0.773116 105.215 0.512519 107.019 0.271225C109.064 0.000976406 111.264 -0.0762375 113.936 0.0202799C116.676 0.116797 119.445 0.454608 122.156 1.02406C123.854 1.38118 125.06 2.71312 125.311 4.48904C125.706 7.32665 125.841 9.67202 125.745 11.8726C125.667 13.552 125.513 15.2797 125.282 17.1714C125.069 18.8605 123.806 20.1635 122.05 20.5013C121.317 20.6364 120.583 20.7619 119.85 20.8777C119.281 20.9742 118.712 21.0611 118.152 21.1672C118.133 21.1769 118.085 21.2058 118.075 21.2252C117.708 21.8236 117.342 22.4316 116.975 23.0493L116.367 24.0628C116.01 24.6515 115.567 24.748 115.325 24.748ZM112.779 20.5592C113.232 20.5592 113.55 20.7522 113.772 21.1672C114.1 21.7657 114.438 22.3544 114.776 22.9432L115.123 23.5609C115.219 23.725 115.306 23.7829 115.335 23.7829C115.364 23.7829 115.451 23.7346 115.547 23.5705L116.155 22.5571C116.522 21.9394 116.888 21.3313 117.265 20.7136C117.419 20.4723 117.708 20.2696 117.988 20.2214C118.557 20.1152 119.136 20.0283 119.705 19.9318C120.429 19.816 121.162 19.7002 121.876 19.5554C123.236 19.3045 124.172 18.3393 124.327 17.0653C124.558 15.2025 124.703 13.4941 124.78 11.8437C124.876 9.71063 124.751 7.42316 124.355 4.64346C124.162 3.25361 123.265 2.25948 121.953 1.98923C119.291 1.42943 116.589 1.09162 113.898 1.00476C111.274 0.90824 109.122 0.985454 107.135 1.24605C105.35 1.47769 103.71 1.73829 102.118 2.04715C101.009 2.25948 100.073 3.26326 99.8896 4.43113C99.5616 6.61242 99.4072 8.72615 99.4169 10.8881V10.8978C99.3976 12.6255 99.5326 14.5461 99.8317 16.7467C100.034 18.2524 100.912 19.2755 102.234 19.5458C103.411 19.787 104.598 19.9897 105.765 20.1538C108.1 20.4723 110.434 20.6171 112.721 20.5592C112.75 20.5592 112.759 20.5592 112.779 20.5592Z" fill="#EFEFEF"/>
<path d="M68.6224 113.091C67.9567 113.091 67.2717 113.081 66.5385 113.052C63.7987 112.956 61.0299 112.618 58.3189 112.048C56.621 111.691 55.4054 110.359 55.1642 108.583C54.7687 105.746 54.6336 103.4 54.7301 101.2C54.8073 99.5301 54.9616 97.7928 55.1932 95.9011C55.4054 94.212 56.6692 92.909 58.4251 92.5712C59.1583 92.4361 59.9011 92.3106 60.644 92.1948C61.2035 92.1079 61.7727 92.0114 62.3323 91.9149C62.3516 91.9052 62.3998 91.8763 62.4094 91.857C62.776 91.2586 63.1426 90.6505 63.5092 90.0328L64.117 89.0194C64.474 88.421 64.8888 88.3534 65.1686 88.3438C65.5834 88.3534 65.95 88.6043 66.2105 89.058L66.5675 89.6757C66.9051 90.2741 67.2524 90.8725 67.5805 91.4709C67.619 91.5481 67.648 91.5674 67.648 91.5674C70.0791 91.5192 72.4717 91.6543 74.8546 91.9825C76.0509 92.1465 77.2568 92.3589 78.4531 92.6002C80.18 92.9573 81.357 94.3085 81.6175 96.2196C81.9165 98.4684 82.0516 100.428 82.0323 102.204C82.0419 104.414 81.8876 106.576 81.5499 108.815C81.3087 110.398 80.0739 111.711 78.5496 112C76.9481 112.309 75.2887 112.57 73.475 112.811C71.9797 112.994 70.4071 113.091 68.6224 113.091ZM65.159 89.3186C65.13 89.3186 65.0432 89.3668 64.9467 89.5309L64.3486 90.5347C63.982 91.1524 63.6154 91.7605 63.2391 92.3782C63.0848 92.6195 62.7953 92.8222 62.5156 92.8704C61.9464 92.9669 61.3868 93.0635 60.8176 93.1503C60.0844 93.2661 59.3512 93.3916 58.6276 93.5267C57.2674 93.7777 56.3316 94.7429 56.1772 96.0169C55.9457 97.8893 55.8009 99.5977 55.7238 101.238C55.6273 103.372 55.7527 105.659 56.1483 108.439C56.3412 109.829 57.2384 110.823 58.5505 111.093C61.2035 111.653 63.9144 111.981 66.6061 112.077C69.2302 112.174 71.3815 112.097 73.3689 111.836C75.1633 111.604 76.8034 111.344 78.3952 111.035C79.5047 110.823 80.4405 109.819 80.6238 108.651C80.9518 106.47 81.1061 104.356 81.0965 102.194V102.184C81.1158 100.457 80.9807 98.5456 80.6817 96.3354C80.4791 94.8297 79.6011 93.8066 78.2794 93.5364C77.1025 93.2951 75.9158 93.0924 74.7388 92.9283C72.4138 92.6098 70.0695 92.465 67.7831 92.523C67.32 92.5133 66.9823 92.3396 66.7508 91.9149C66.4228 91.3165 66.0851 90.7277 65.7474 90.139L65.4001 89.5213C65.2844 89.3668 65.159 89.3089 65.159 89.3186Z" fill="#EFEFEF"/>
<path d="M163.166 40.8188H163.157C151.927 40.3941 142.395 35.2401 135.575 25.9068C134.919 25.0092 134.118 23.6194 134.687 21.8627C135.17 20.386 136.231 19.4209 137.688 19.141C139.299 18.8321 140.717 19.3919 141.875 20.8204C142.183 21.1968 142.492 21.5828 142.801 21.9689C143.949 23.3974 145.126 24.8741 146.486 26.0709C152.101 31.0319 159.616 33.4062 167.103 32.5762C174.666 31.7365 181.564 27.7214 186.021 21.5539C186.832 20.4343 187.671 19.2761 189.321 19.0927C191.038 18.9093 192.417 19.556 193.305 20.9748C194.27 22.5191 194.212 24.1309 193.131 25.4049C192.736 25.8682 192.34 26.3412 191.954 26.8141C190.266 28.841 188.52 30.9354 186.504 32.6727C180.252 38.0487 172.621 40.7126 163.166 40.8284V40.8284V40.8188ZM138.546 20.0193C138.334 20.0193 138.112 20.0386 137.88 20.0868C136.771 20.2992 135.99 21.0134 135.613 22.162C135.276 23.1947 135.507 24.1695 136.366 25.3374C143.003 34.4197 152.274 39.4386 163.186 39.8536C172.524 39.7378 179.741 37.2187 185.896 31.9295C187.854 30.2501 189.571 28.1846 191.231 26.1867C191.626 25.7138 192.022 25.2409 192.417 24.7679C193.218 23.8221 193.247 22.6542 192.514 21.4767C191.819 20.3667 190.816 19.8938 189.456 20.0482C188.23 20.1833 187.584 21.081 186.832 22.1137C182.21 28.5031 175.071 32.663 167.238 33.5317C159.481 34.3907 151.696 31.9392 145.878 26.7851C144.46 25.5304 143.244 24.0247 142.077 22.5577C141.768 22.1716 141.46 21.7952 141.151 21.4188C140.36 20.4729 139.521 20.0193 138.546 20.0193Z" fill="#EFEFEF"/>
<path d="M15.9665 193.999C15.2332 193.999 14.5386 193.739 13.9212 193.218C13.5064 192.861 13.0819 192.513 12.6574 192.156C10.8437 190.641 8.96243 189.077 7.39954 187.263C2.57583 181.645 0.18327 174.792 0.0771484 166.299V166.28C0.453398 156.194 5.08416 147.632 13.4581 141.504C14.2685 140.905 15.5323 140.181 17.1338 140.702C18.4748 141.137 19.3527 142.112 19.6035 143.434C19.8833 144.901 19.372 146.185 18.0889 147.237C17.7512 147.517 17.4039 147.797 17.0566 148.076C15.7832 149.1 14.4615 150.161 13.3906 151.377C8.95278 156.406 6.83034 163.124 7.5732 169.831C8.3257 176.597 11.9145 182.774 17.4329 186.761C18.3976 187.456 19.4974 188.247 19.6614 189.753C19.8351 191.316 19.2369 192.561 17.9538 193.372C17.2882 193.797 16.6128 193.999 15.9665 193.999ZM1.05154 166.309C1.15766 174.667 3.40551 181.134 8.13275 186.635C9.63774 188.392 11.4901 189.926 13.2748 191.413C13.6993 191.77 14.1238 192.117 14.5483 192.474C15.378 193.179 16.4006 193.198 17.4329 192.552C18.4073 191.934 18.8221 191.056 18.6967 189.849C18.5809 188.768 17.7898 188.199 16.8637 187.533C11.1331 183.382 7.3899 176.964 6.6181 169.928C5.84631 162.959 8.05557 155.962 12.667 150.731C13.7958 149.457 15.1464 148.366 16.4488 147.324C16.7961 147.044 17.1338 146.773 17.4715 146.494C18.4941 145.654 18.8703 144.737 18.6581 143.617C18.4651 142.623 17.8573 141.957 16.8347 141.619C15.9279 141.33 15.0596 141.533 14.0273 142.285C5.91384 148.231 1.41814 156.541 1.05154 166.309Z" fill="#EFEFEF"/>
<path d="M76.1954 193.999H76.1857C63.6055 193.526 52.9258 187.755 45.285 177.292C44.5615 176.298 43.6642 174.754 44.301 172.804C44.8316 171.173 46.0086 170.101 47.6197 169.793C49.4045 169.455 50.9673 170.073 52.2697 171.655C52.6171 172.08 52.9644 172.514 53.3213 172.949C54.6044 174.551 55.9358 176.211 57.4601 177.553C63.7695 183.131 72.2206 185.805 80.6428 184.869C89.1422 183.923 96.8987 179.415 101.906 172.476C102.803 171.231 103.739 169.937 105.572 169.744C107.472 169.532 108.997 170.256 109.99 171.829C111.061 173.538 110.994 175.323 109.797 176.723C109.354 177.244 108.919 177.775 108.476 178.305C106.585 180.574 104.626 182.929 102.359 184.878C95.3551 190.891 86.8075 193.883 76.2147 194.009H76.1954V193.999ZM48.5651 170.661C48.3143 170.661 48.0635 170.69 47.803 170.739C46.5295 170.98 45.642 171.8 45.2175 173.103C44.8316 174.281 45.1017 175.4 46.0665 176.723C53.5239 186.934 63.9431 192.571 76.205 193.034C86.6918 192.909 94.8052 190.081 101.722 184.135C103.922 182.243 105.852 179.927 107.723 177.678C108.167 177.147 108.611 176.616 109.054 176.095C109.971 175.014 110.01 173.682 109.161 172.331C108.37 171.067 107.221 170.526 105.668 170.7C104.269 170.854 103.536 171.868 102.687 173.045C97.5162 180.197 89.5184 184.859 80.7489 185.834C72.0663 186.789 63.345 184.048 56.8233 178.286C55.2315 176.887 53.8809 175.198 52.5688 173.557C52.2215 173.123 51.8742 172.698 51.5269 172.273C50.6393 171.182 49.6842 170.661 48.5651 170.661Z" fill="#EFEFEF"/>
<path d="M35.8494 134.005C35.5503 134.005 35.2416 133.957 34.9136 133.85C33.7656 133.474 33.0034 132.644 32.7912 131.505C32.55 130.241 32.9841 129.15 34.0936 128.243C34.383 128.011 34.6724 127.77 34.9618 127.538C36.0327 126.679 37.1325 125.791 38.0297 124.787C41.7343 120.589 43.5095 114.972 42.892 109.374C42.2649 103.718 39.2646 98.5636 34.6628 95.2338C33.8427 94.6354 32.9069 93.9694 32.7622 92.6664C32.6175 91.3248 33.1192 90.2535 34.2286 89.5586C35.4153 88.8154 36.708 88.8636 37.6921 89.7033C38.0394 90.0025 38.3963 90.2921 38.7436 90.5816C40.2679 91.8557 41.8501 93.1683 43.1621 94.7029C47.2141 99.4226 49.2304 105.185 49.3172 112.327V112.346C48.9988 120.821 45.1109 128.03 38.0683 133.175C37.528 133.551 36.7756 134.005 35.8494 134.005ZM35.9169 89.9929C35.4346 89.9929 35.0004 90.1956 34.7207 90.3693C33.9296 90.8712 33.5919 91.5854 33.698 92.5602C33.7945 93.4289 34.4409 93.9018 35.203 94.452C40.0267 97.9459 43.1718 103.341 43.8278 109.267C44.4742 115.136 42.6219 121.023 38.734 125.424C37.7885 126.496 36.6501 127.413 35.5503 128.291C35.2609 128.523 34.9715 128.754 34.6917 128.986C33.862 129.671 33.5533 130.414 33.727 131.322C33.8813 132.123 34.3733 132.663 35.203 132.933C35.9362 133.175 36.6405 133.001 37.4798 132.383C44.2716 127.422 48.0244 120.483 48.3332 112.308C48.2463 105.32 46.3651 99.9245 42.4096 95.3206C41.1458 93.8536 39.6022 92.5602 38.1069 91.3152C37.7499 91.016 37.393 90.7264 37.0457 90.4272C36.6791 90.1087 36.2835 89.9929 35.9169 89.9929Z" fill="#EFEFEF"/>
<path d="M140.467 115.147C139.83 115.147 139.222 114.925 138.701 114.481C138.354 114.182 137.997 113.892 137.64 113.593C136.116 112.319 134.534 111.006 133.221 109.481C129.17 104.762 127.153 98.9899 127.066 91.8573V91.838C127.385 83.3637 131.273 76.1539 138.315 71.0095C139.01 70.498 140.09 69.8802 141.46 70.3242C142.608 70.7006 143.371 71.5307 143.583 72.6696C143.824 73.934 143.39 75.0246 142.28 75.9319C141.991 76.1635 141.702 76.4048 141.412 76.6365C140.341 77.4955 139.241 78.3834 138.344 79.3969C134.64 83.5954 132.865 89.2127 133.482 94.8107C134.109 100.467 137.109 105.621 141.711 108.95C142.531 109.549 143.467 110.225 143.612 111.518C143.756 112.859 143.255 113.931 142.145 114.626C141.615 114.973 141.026 115.147 140.467 115.147ZM128.041 91.8573C128.128 98.8451 130.009 104.24 133.964 108.844C135.218 110.311 136.772 111.595 138.267 112.85C138.624 113.149 138.981 113.439 139.328 113.738C140.225 114.5 141.171 114.105 141.653 113.796C142.444 113.294 142.782 112.58 142.676 111.605C142.579 110.736 141.933 110.263 141.171 109.713C136.347 106.219 133.202 100.824 132.546 94.8976C131.9 89.0293 133.752 83.1417 137.64 78.7405C138.585 77.6692 139.724 76.7523 140.824 75.874C141.113 75.6423 141.402 75.4107 141.682 75.1791C142.512 74.4938 142.821 73.7506 142.647 72.8433C142.493 72.0422 142.001 71.5017 141.171 71.2315C140.438 70.9902 139.733 71.1639 138.894 71.7816C132.102 76.7523 128.35 83.6919 128.041 91.8573Z" fill="#EFEFEF"/>
<path d="M154.677 169.146H154.667C144.586 168.77 136.028 164.137 129.902 155.759C129.314 154.949 128.581 153.684 129.102 152.082C129.536 150.74 130.51 149.862 131.832 149.611C133.298 149.331 134.581 149.843 135.633 151.126C135.913 151.464 136.192 151.812 136.472 152.159C137.495 153.433 138.556 154.755 139.772 155.827C144.798 160.267 151.512 162.39 158.217 161.647C164.98 160.894 171.155 157.304 175.139 151.783C175.834 150.818 176.634 149.717 178.13 149.553C179.693 149.379 180.937 149.968 181.748 151.262C182.625 152.661 182.568 154.128 181.584 155.286C181.227 155.701 180.879 156.126 180.532 156.551C179.017 158.365 177.454 160.247 175.641 161.811C170.026 166.637 163.176 169.03 154.686 169.137H154.677V169.146ZM132.604 150.509C132.411 150.509 132.218 150.528 132.015 150.567C131.021 150.76 130.356 151.368 130.018 152.391C129.729 153.298 129.931 154.167 130.684 155.199C136.617 163.326 144.923 167.824 154.686 168.191C163.041 168.085 169.505 165.836 175.004 161.106C176.76 159.601 178.294 157.748 179.789 155.962C180.146 155.537 180.493 155.113 180.85 154.698C181.555 153.868 181.584 152.844 180.927 151.812C180.31 150.837 179.432 150.422 178.226 150.547C177.146 150.663 176.577 151.455 175.911 152.381C171.762 158.114 165.347 161.859 158.314 162.631C151.348 163.403 144.354 161.193 139.125 156.58C137.852 155.45 136.762 154.099 135.72 152.787C135.44 152.439 135.17 152.101 134.89 151.763C134.205 150.904 133.462 150.509 132.604 150.509Z" fill="#EFEFEF"/>
<path d="M182.017 67.9108C181.863 67.9108 181.699 67.9108 181.545 67.9108C179.818 67.9108 178.13 67.7853 176.393 67.515C175.071 67.3124 173.971 66.2796 173.73 65.0056C173.479 63.693 173.267 62.3417 173.074 60.8746C172.862 59.2145 172.795 57.4193 172.872 55.238C172.949 53.0085 173.229 50.75 173.692 48.5494C173.991 47.1306 175.1 46.1171 176.576 45.9144C178.882 45.5959 180.792 45.4801 182.577 45.567C183.937 45.6345 185.346 45.7504 186.88 45.9434C188.288 46.1171 189.378 47.1788 189.658 48.6459C189.774 49.2443 189.87 49.8427 189.967 50.4508C190.044 50.9044 190.112 51.358 190.198 51.8213C190.69 52.1302 191.192 52.4294 191.694 52.7286L192.504 53.2112C192.89 53.4428 193.102 53.7806 193.093 54.1474C193.083 54.5141 192.861 54.852 192.466 55.074L191.954 55.3635C191.472 55.6338 190.99 55.9137 190.507 56.1742C190.517 58.1239 190.401 60.0735 190.141 62.0039C190.006 62.9691 189.842 63.9535 189.639 64.9284C189.34 66.3665 188.221 67.3606 186.629 67.5633C184.912 67.7949 183.397 67.9108 182.017 67.9108ZM181.767 66.9456C183.165 66.9649 184.719 66.8491 186.504 66.6174C187.7 66.4533 188.481 65.7874 188.693 64.7353C188.886 63.7798 189.06 62.8146 189.185 61.8688C189.446 59.9867 189.552 58.0853 189.513 56.2322C189.504 55.8171 189.677 55.5179 190.054 55.3152C190.536 55.0546 191.009 54.7844 191.482 54.5141L191.993 54.2246C192.07 54.1763 192.109 54.1377 192.118 54.1184C192.109 54.1088 192.07 54.0798 192.003 54.0316L191.192 53.549C190.69 53.2498 190.189 52.9506 189.687 52.6417C189.465 52.5066 189.292 52.246 189.243 51.9854C189.166 51.5221 189.089 51.0685 189.012 50.6052C188.915 50.0068 188.819 49.418 188.703 48.8293C188.501 47.7676 187.758 47.034 186.754 46.9086C185.24 46.7252 183.86 46.5997 182.519 46.5418C180.792 46.4646 178.94 46.5708 176.692 46.8796C175.612 47.034 174.83 47.7386 174.618 48.7617C174.164 50.914 173.894 53.105 173.817 55.2863C173.74 57.4097 173.807 59.1566 174.01 60.7588C174.203 62.2066 174.415 63.5385 174.656 64.8319C174.82 65.7005 175.602 66.434 176.518 66.5692C178.303 66.8298 180.03 66.9552 181.767 66.9456Z" fill="#EFEFEF"/>
<path d="M181.227 64.6177C181.092 64.6177 180.947 64.5984 180.812 64.5502C180.311 64.3861 179.973 64.0097 179.877 63.5174C179.809 63.141 179.838 62.5909 180.426 62.1083L180.716 61.867C181.082 61.5774 181.43 61.2975 181.71 60.979C182.896 59.6374 183.465 57.8326 183.272 56.0374C183.07 54.2228 182.105 52.5627 180.629 51.501C180.33 51.2887 179.925 50.9895 179.857 50.4104C179.79 49.8409 180.021 49.3583 180.504 49.0591C181.025 48.731 181.603 48.7599 182.047 49.1364L182.394 49.4259C182.915 49.8602 183.465 50.3139 183.919 50.8544C185.337 52.5048 186.041 54.5124 186.07 56.9929V57.0122C185.964 59.9656 184.604 62.4847 182.153 64.2703C181.845 64.5019 181.536 64.6177 181.227 64.6177ZM181.246 49.7927C181.189 49.7927 181.111 49.812 181.015 49.8699C180.88 49.9567 180.793 50.0629 180.822 50.3042C180.841 50.4393 180.938 50.5359 181.198 50.7192C182.896 51.945 184.006 53.8464 184.237 55.9312C184.469 57.9967 183.813 60.0718 182.443 61.6161C182.105 62.0021 181.71 62.311 181.333 62.6198L181.044 62.8515C180.822 63.0349 180.803 63.17 180.832 63.3341C180.851 63.4402 180.899 63.5657 181.111 63.6333C181.208 63.6622 181.333 63.6815 181.594 63.4981C183.832 61.867 185.019 59.6761 185.115 56.9929C185.086 54.7247 184.478 52.9681 183.195 51.4817C182.79 51.0088 182.298 50.6034 181.777 50.1691L181.42 49.8699C181.401 49.8409 181.343 49.7927 181.246 49.7927Z" fill="#EFEFEF"/>
<path d="M177.619 11.3408C176.22 11.3408 174.811 10.7424 173.74 9.7C172.641 8.62866 172.004 7.17125 171.994 5.71383C171.985 4.25642 172.583 2.79901 173.644 1.71801C174.705 0.637015 176.143 0.00965174 177.59 0C177.599 0 177.619 0 177.628 0C180.619 0 183.262 2.61562 183.311 5.61731C183.349 8.61901 180.725 11.2925 177.696 11.3408C177.667 11.3408 177.638 11.3408 177.619 11.3408ZM172.959 5.70418C172.969 6.91065 173.499 8.10746 174.416 9.00508C175.313 9.88338 176.49 10.366 177.677 10.366C180.195 10.3274 182.375 8.11712 182.346 5.62697C182.307 3.13682 180.108 0.965174 177.628 0.965174C177.619 0.965174 177.609 0.965174 177.599 0.965174C176.403 0.974826 175.217 1.49602 174.339 2.39363C173.451 3.3009 172.949 4.50736 172.959 5.70418Z" fill="#EFEFEF"/>
<path d="M149.805 11.3429C149.795 11.3429 149.785 11.3429 149.776 11.3429C146.766 11.3236 144.122 8.66933 144.142 5.65799C144.151 2.64664 146.804 0.0117188 149.814 0.0117188C151.242 0.0117188 152.689 0.639082 153.779 1.73938C154.87 2.83003 155.487 4.27779 155.477 5.69659C155.468 7.1347 154.841 8.58247 153.741 9.66346C152.641 10.7252 151.213 11.3429 149.805 11.3429ZM149.805 0.967241C147.306 0.967241 145.106 3.15819 145.097 5.65799C145.087 8.15779 147.277 10.3584 149.776 10.3777C150.972 10.397 152.139 9.8758 153.056 8.96854C153.972 8.06127 154.503 6.86446 154.503 5.68694C154.513 4.51908 153.992 3.32227 153.085 2.415C152.178 1.49809 150.982 0.967241 149.805 0.967241Z" fill="#EFEFEF"/>
<path d="M11.3168 101.199C10.9405 101.199 10.5739 101.064 10.2652 100.804L9.72497 100.35C8.94353 99.6936 8.13315 99.018 7.44818 98.2265C5.34504 95.775 4.30312 92.7926 4.25488 89.096V89.0767C4.41889 84.6852 6.4352 80.9499 10.0819 78.286C10.6994 77.8324 11.2975 77.7069 11.8956 77.9C12.571 78.122 13.0147 78.6046 13.1402 79.2802C13.2849 80.0137 13.034 80.6507 12.3973 81.1719L11.9535 81.529C11.394 81.9827 10.8634 82.4073 10.4196 82.8996C8.57693 84.9844 7.69901 87.7834 7.99808 90.5631C8.3068 93.3814 9.80215 95.9391 12.0982 97.5992C12.5324 97.9177 13.0823 98.3038 13.1595 99.0759C13.2463 99.8384 12.9376 100.485 12.3008 100.89C11.9825 101.103 11.6448 101.199 11.3168 101.199ZM5.21962 89.1056C5.26786 92.5996 6.20366 95.3021 8.18138 97.6088C8.80847 98.3424 9.58991 98.989 10.3424 99.6164L10.8923 100.07C11.1528 100.292 11.4615 100.292 11.7992 100.08C12.1272 99.877 12.2526 99.5971 12.2044 99.1917C12.1658 98.8732 11.9439 98.6898 11.5387 98.4003C9.03036 96.5857 7.39029 93.7674 7.05264 90.6885C6.71498 87.6289 7.67972 84.5693 9.70568 82.2722C10.2073 81.7124 10.7862 81.2395 11.3554 80.7858L11.7895 80.4287C12.1465 80.1295 12.2719 79.84 12.1947 79.4636C12.1368 79.1451 11.9439 78.9327 11.6062 78.8265C11.3071 78.73 11.0274 78.8072 10.6608 79.0678C7.25523 81.5483 5.38363 85.023 5.21962 89.1056Z" fill="#EFEFEF"/>
<path d="M147.075 61.0207H147.065C141.537 60.818 136.849 58.2796 133.501 53.6853C132.951 52.9325 132.797 52.2183 133.038 51.4944C133.299 50.6836 133.887 50.1624 134.688 50.008C135.566 49.8343 136.328 50.1431 136.955 50.9056L137.408 51.4654C137.958 52.1507 138.518 52.8553 139.164 53.4247C141.836 55.7894 145.406 56.9187 148.976 56.5229C152.574 56.1272 155.854 54.2162 157.977 51.282C158.382 50.7222 158.845 50.0852 159.752 49.9887C160.688 49.8922 161.44 50.2397 161.922 51.0118C162.443 51.8418 162.405 52.7588 161.816 53.4537L161.247 54.1293C160.417 55.1234 159.568 56.1465 158.575 57.0055C155.497 59.6501 151.744 60.9627 147.094 61.0207H147.075ZM135.132 50.9346C135.045 50.9346 134.948 50.9442 134.852 50.9635C134.398 51.0504 134.09 51.3303 133.945 51.8032C133.81 52.2279 133.906 52.6236 134.273 53.1255C137.447 57.4688 141.875 59.8624 147.085 60.0651C151.551 60.0072 154.996 58.8104 157.938 56.2816C158.874 55.4806 159.704 54.4864 160.504 53.5212L161.083 52.836C161.479 52.363 161.315 51.8708 161.102 51.533C160.813 51.0794 160.417 50.896 159.858 50.9539C159.395 51.0021 159.144 51.3303 158.758 51.8515C156.481 55.0076 152.95 57.0634 149.082 57.4881C145.252 57.9128 141.402 56.6967 138.527 54.1583C137.823 53.5406 137.235 52.7974 136.656 52.0831L136.212 51.5233C135.874 51.1276 135.537 50.9346 135.132 50.9346Z" fill="#EFEFEF"/>
<path d="M18.0023 97.1078C16.7096 97.1078 15.5615 95.9689 15.5423 94.6659C15.5326 94.0386 15.7931 93.4112 16.2562 92.9383C16.7192 92.4653 17.356 92.1854 17.9927 92.1758C18.0023 92.1758 18.0023 92.1758 18.012 92.1758C19.3433 92.1758 20.4721 93.2857 20.4817 94.6177C20.4914 95.9496 19.3723 97.0885 18.0409 97.1078C18.0216 97.1078 18.012 97.1078 18.0023 97.1078ZM17.9927 93.141C17.6068 93.141 17.2305 93.3147 16.9411 93.6042C16.6614 93.8938 16.4973 94.2702 16.507 94.637C16.5166 95.4284 17.2498 96.1233 18.0216 96.133C18.8224 96.1233 19.517 95.4091 19.517 94.6177C19.5073 93.8359 18.8031 93.141 17.9927 93.141C17.9927 93.141 18.0023 93.141 17.9927 93.141Z" fill="#EFEFEF"/>
<path d="M18.0117 86.4438H18.0021C17.375 86.4438 16.7479 86.1639 16.2752 85.6909C15.8025 85.218 15.542 84.5906 15.542 83.9633C15.5516 82.6313 16.6804 81.531 18.0214 81.5117C19.3527 81.5117 20.4815 82.6506 20.4815 83.9826C20.4815 84.6099 20.2113 85.2373 19.7386 85.7102C19.2562 86.1735 18.6292 86.4438 18.0117 86.4438ZM18.0021 82.4672C17.211 82.4672 16.5067 83.1622 16.4971 83.9633C16.4971 84.33 16.6611 84.7161 16.9505 85.0057C17.2399 85.3049 17.6258 85.4689 17.9924 85.4689C17.9924 85.4689 17.9924 85.4689 18.0021 85.4689C18.3687 85.4689 18.7449 85.3049 19.0344 85.0153C19.3238 84.7258 19.4974 84.3397 19.4974 83.9729H19.9798H19.4974C19.5071 83.1815 18.8125 82.4769 18.0021 82.4672C18.0117 82.4672 18.0117 82.4672 18.0021 82.4672Z" fill="#EFEFEF"/>
<path d="M190.681 82.6292C190.063 82.6292 189.456 82.3686 188.993 81.915C188.52 81.4517 188.24 80.8147 188.23 80.1777C188.23 79.5406 188.491 78.9133 188.944 78.4403C189.407 77.9674 190.035 77.6972 190.662 77.6875C190.671 77.6875 190.671 77.6875 190.681 77.6875C192.003 77.6875 193.131 78.8071 193.151 80.1294C193.17 81.4324 192.022 82.6002 190.71 82.6195C190.7 82.6292 190.691 82.6292 190.681 82.6292ZM189.195 80.1777C189.195 80.5637 189.369 80.9401 189.658 81.2297C189.948 81.5096 190.334 81.6737 190.691 81.664C191.482 81.6544 192.196 80.9305 192.186 80.1487C192.176 79.3476 191.472 78.6527 190.681 78.6527H190.671C190.295 78.6527 189.919 78.8264 189.629 79.116C189.35 79.4152 189.195 79.7916 189.195 80.1777Z" fill="#EFEFEF"/>
<path d="M180.03 82.6313C180.03 82.6313 180.021 82.6313 180.011 82.6313C178.68 82.6216 177.551 81.4924 177.561 80.1604C177.561 78.8285 178.699 77.6992 180.03 77.6992C180.657 77.6992 181.285 77.9695 181.757 78.4521C182.23 78.925 182.5 79.5524 182.49 80.1797C182.49 80.8071 182.211 81.4344 181.738 81.9074C181.275 82.3707 180.648 82.6313 180.03 82.6313ZM180.03 78.6644C179.23 78.6644 178.525 79.369 178.525 80.1604C178.525 80.9615 179.22 81.6661 180.021 81.6661C180.436 81.6468 180.773 81.502 181.063 81.2125C181.362 80.9229 181.526 80.5368 181.526 80.1604C181.526 79.7936 181.362 79.4076 181.072 79.118C180.783 78.8381 180.407 78.6644 180.03 78.6644Z" fill="#EFEFEF"/>
<path d="M147.808 100.464C146.515 100.464 145.367 99.3253 145.348 98.0223C145.338 97.395 145.599 96.7676 146.062 96.2947C146.525 95.8217 147.162 95.5418 147.798 95.5322C148.435 95.5129 149.062 95.7928 149.535 96.2464C150.008 96.7097 150.278 97.3371 150.287 97.9644C150.297 99.2964 149.178 100.435 147.847 100.455C147.827 100.464 147.818 100.464 147.808 100.464ZM147.798 96.4974C147.412 96.4974 147.036 96.6711 146.747 96.9606C146.467 97.2502 146.303 97.6266 146.313 97.9934C146.322 98.7848 147.007 99.4797 147.827 99.4894C148.628 99.4797 149.323 98.7655 149.323 97.9741C149.323 97.5977 149.149 97.2212 148.86 96.9317C148.57 96.6518 148.184 96.4491 147.798 96.4974Z" fill="#EFEFEF"/>
<path d="M147.817 89.7992H147.808C147.181 89.7992 146.554 89.5193 146.081 89.0464C145.608 88.5735 145.348 87.9461 145.348 87.3187C145.357 85.9868 146.486 84.8672 147.817 84.8672H147.827C149.158 84.8672 150.287 86.0061 150.287 87.338C150.287 87.9654 150.017 88.5928 149.544 89.0657C149.062 89.529 148.435 89.7992 147.817 89.7992ZM147.808 85.8227C147.017 85.8227 146.312 86.5176 146.303 87.3187C146.303 87.6855 146.467 88.0716 146.756 88.3611C147.046 88.6603 147.432 88.8244 147.808 88.8244C148.194 88.8051 148.56 88.6603 148.85 88.3708C149.139 88.0812 149.313 87.6951 149.313 87.3284C149.313 86.5273 148.618 85.8227 147.808 85.8227C147.817 85.8227 147.817 85.8227 147.808 85.8227Z" fill="#EFEFEF"/>
<path d="M185.346 107.879C184.632 107.879 183.909 107.58 183.368 107.049C182.809 106.509 182.49 105.766 182.481 105.022C182.471 104.279 182.78 103.546 183.32 102.995C183.86 102.445 184.593 102.127 185.327 102.117C185.336 102.117 185.336 102.117 185.346 102.117C186.89 102.117 188.211 103.42 188.231 104.974C188.25 106.499 186.919 107.86 185.375 107.879C185.365 107.879 185.356 107.879 185.346 107.879ZM185.346 103.082H185.336C184.854 103.082 184.372 103.295 184.005 103.671C183.648 104.038 183.436 104.53 183.445 105.022C183.445 105.515 183.667 105.997 184.044 106.364C184.41 106.721 184.893 106.914 185.365 106.924C186.378 106.904 187.285 105.988 187.266 104.993C187.256 103.961 186.359 103.082 185.346 103.082Z" fill="#EFEFEF"/>
<path d="M175.727 107.879C175.718 107.879 175.718 107.879 175.708 107.879C174.145 107.87 172.833 106.547 172.843 104.993C172.852 103.439 174.165 102.117 175.727 102.117C176.461 102.117 177.194 102.436 177.744 102.995C178.294 103.546 178.612 104.289 178.602 105.013C178.602 105.746 178.274 106.48 177.724 107.03C177.175 107.57 176.441 107.879 175.727 107.879ZM175.727 103.082C174.705 103.082 173.817 103.97 173.808 104.993C173.808 106.007 174.695 106.904 175.718 106.914H175.727C176.2 106.914 176.682 106.702 177.049 106.335C177.425 105.968 177.638 105.476 177.647 105.003C177.647 104.53 177.435 104.048 177.068 103.671C176.682 103.295 176.2 103.082 175.727 103.082Z" fill="#EFEFEF"/>
<path d="M112.393 52.708C111.727 52.708 111.042 52.6984 110.309 52.6694C107.569 52.5729 104.8 52.2351 102.089 51.6656C100.391 51.3085 99.1856 49.9766 98.9347 48.2006C98.5392 45.363 98.4041 43.0177 98.5006 40.8171C98.5778 39.1473 98.7321 37.4196 98.9637 35.5183C99.1759 33.8292 100.44 32.5262 102.196 32.1884C102.929 32.0533 103.672 31.9278 104.414 31.812C104.974 31.7251 105.534 31.6286 106.103 31.5321C106.122 31.5224 106.17 31.4935 106.18 31.4742C106.556 30.8758 106.923 30.2581 107.289 29.6403L107.897 28.6366C108.254 28.0382 108.727 27.9706 108.949 27.9609C109.364 27.9706 109.73 28.2215 109.991 28.6752L110.338 29.2929C110.676 29.8913 111.023 30.4897 111.351 31.0881C111.39 31.1653 111.418 31.1846 111.418 31.1846C113.85 31.1364 116.242 31.2715 118.625 31.5996C119.821 31.7637 121.027 31.9761 122.224 32.2174C123.95 32.5745 125.127 33.9257 125.388 35.8368C125.687 38.0856 125.822 40.0449 125.803 41.8208C125.812 44.0311 125.658 46.1931 125.32 48.4323C125.079 50.0152 123.844 51.3278 122.32 51.6174C120.719 51.9262 119.059 52.1868 117.246 52.4281C115.741 52.6115 114.168 52.708 112.393 52.708ZM108.929 28.9261C108.901 28.9261 108.814 28.9744 108.717 29.1385L108.119 30.1422C107.752 30.7599 107.376 31.3777 107 31.9954C106.846 32.2367 106.556 32.4393 106.276 32.4876C105.707 32.5841 105.148 32.6806 104.578 32.7675C103.845 32.8833 103.112 33.0088 102.389 33.1439C101.028 33.3949 100.092 34.36 99.9381 35.6341C99.7065 37.5065 99.5618 39.2149 99.4846 40.8557C99.3882 42.9887 99.5136 45.2762 99.9091 48.0559C100.102 49.4457 100.999 50.4398 102.311 50.7101C104.964 51.2699 107.675 51.5981 110.367 51.6946C112.991 51.7911 115.142 51.7139 117.13 51.4533C118.924 51.2216 120.564 50.961 122.156 50.6522C123.266 50.4398 124.211 49.4361 124.385 48.2682C124.713 46.0869 124.867 43.9732 124.857 41.8112V41.8015C124.877 40.0739 124.742 38.1628 124.443 35.9526C124.24 34.4469 123.362 33.4238 122.04 33.1536C120.863 32.9123 119.677 32.7096 118.5 32.5455C116.165 32.227 113.83 32.0919 111.544 32.1401C111.071 32.1401 110.743 31.9568 110.512 31.5321C110.184 30.9337 109.846 30.3449 109.508 29.7562L109.161 29.1385C109.045 28.984 108.958 28.9261 108.929 28.9261Z" fill="#EFEFEF"/>
<path d="M107.125 45.1608C105.581 45.1608 104.26 43.8578 104.24 42.3038C104.221 40.7789 105.552 39.418 107.096 39.3987C107.829 39.389 108.562 39.6882 109.112 40.2287C109.672 40.7692 109.99 41.5124 110 42.2556C110.01 42.9988 109.701 43.7323 109.161 44.2824C108.62 44.8326 107.887 45.1511 107.154 45.1608C107.135 45.1608 107.125 45.1608 107.125 45.1608ZM107.125 40.3638C107.115 40.3638 107.106 40.3638 107.106 40.3638C106.093 40.3831 105.186 41.3001 105.205 42.2942C105.215 43.3076 106.112 44.1956 107.125 44.1956H107.135C107.617 44.1956 108.099 43.9832 108.466 43.6068C108.823 43.2401 109.035 42.7478 109.026 42.2556C109.026 41.7633 108.804 41.2808 108.427 40.914C108.061 40.5665 107.588 40.3638 107.125 40.3638Z" fill="#EFEFEF"/>
<path d="M116.743 45.1607C116.01 45.1607 115.277 44.8422 114.727 44.2824C114.177 43.7323 113.859 42.9891 113.868 42.2652C113.868 41.5317 114.196 40.7982 114.746 40.248C115.296 39.6979 116.068 39.389 116.763 39.3987C118.325 39.4083 119.638 40.7306 119.628 42.2845C119.628 43.8481 118.306 45.1607 116.743 45.1607ZM116.743 40.3638C116.271 40.3638 115.788 40.5762 115.422 40.9429C115.045 41.3097 114.833 41.8019 114.823 42.2749C114.823 42.7478 115.036 43.2304 115.402 43.6068C115.779 43.9832 116.261 44.1956 116.734 44.1956C117.756 44.1956 118.644 43.3076 118.653 42.2845C118.653 41.2711 117.766 40.3735 116.743 40.3638C116.753 40.3638 116.753 40.3638 116.743 40.3638Z" fill="#EFEFEF"/>
<path d="M58.3962 160.363C57.9139 160.363 57.4315 160.353 56.9588 160.334C55.2801 160.257 53.5532 160.102 51.6623 159.871C49.974 159.658 48.6716 158.394 48.334 156.637C48.1989 155.904 48.0735 155.17 47.9577 154.427C47.8612 153.858 47.7744 153.298 47.6779 152.728C47.6683 152.709 47.6394 152.661 47.6201 152.651C47.0123 152.275 46.4045 151.908 45.787 151.541L44.7837 150.943C44.1856 150.586 44.1084 150.132 44.1084 149.891C44.118 149.476 44.3689 149.109 44.8223 148.848L45.4397 148.501C46.0379 148.163 46.6264 147.825 47.2342 147.497C47.3113 147.458 47.3306 147.439 47.3306 147.43C47.3306 147.43 47.3403 147.41 47.3403 147.333C47.2824 144.997 47.4271 142.604 47.7551 140.22C47.9191 139.033 48.1314 137.816 48.3726 136.62C48.7295 134.892 50.0801 133.714 51.9903 133.454C54.2382 133.155 56.187 133.01 57.9717 133.039C60.181 133.019 62.342 133.184 64.5802 133.521C66.1624 133.763 67.4744 134.998 67.7639 136.523C68.0726 138.135 68.3331 139.795 68.5646 141.6C68.8347 143.646 68.9119 145.837 68.8154 148.52C68.719 151.261 68.3813 154.031 67.8121 156.743C67.4552 158.442 66.1238 159.649 64.3487 159.9C62.1105 160.218 60.181 160.363 58.3962 160.363ZM57.6437 134.004C55.994 134.004 54.1803 134.139 52.1061 134.419C50.6011 134.622 49.5785 135.5 49.3084 136.822C49.0672 138 48.8646 139.187 48.7006 140.355C48.3822 142.681 48.2471 145.026 48.2954 147.314C48.305 147.787 48.1121 148.115 47.6876 148.346C47.0895 148.675 46.501 149.012 45.9125 149.341L45.295 149.698C45.131 149.794 45.0731 149.881 45.0731 149.91C45.0731 149.939 45.1214 150.026 45.2854 150.122L46.2791 150.721C46.8965 151.088 47.5139 151.464 48.1314 151.84C48.3726 151.995 48.5752 152.284 48.6234 152.564C48.7199 153.134 48.8163 153.703 48.9128 154.273C49.0286 155.006 49.154 155.73 49.2891 156.454C49.5399 157.815 50.495 158.751 51.7781 158.905C53.64 159.137 55.3476 159.282 56.9974 159.359C59.1294 159.465 61.4159 159.33 64.1943 158.934C65.5836 158.741 66.5772 157.844 66.8474 156.531C67.4069 153.877 67.7349 151.165 67.8314 148.472C67.9279 145.847 67.8507 143.694 67.5902 141.706C67.3587 139.92 67.0982 138.28 66.7895 136.687C66.5772 135.577 65.5739 134.641 64.4066 134.458C62.2263 134.129 60.1135 133.985 57.9524 133.985H57.9428C57.856 134.004 57.7498 134.004 57.6437 134.004Z" fill="#EFEFEF"/>
<path d="M58.4152 154.602C56.9006 154.602 55.5692 153.28 55.5403 151.745C55.5306 151.021 55.8297 150.278 56.3699 149.728C56.9102 149.168 57.653 148.849 58.3959 148.84C58.4055 148.84 58.4055 148.84 58.4152 148.84C59.1484 148.84 59.8816 149.149 60.4219 149.68C60.9718 150.22 61.2901 150.954 61.2998 151.687C61.3094 153.241 60.007 154.573 58.4441 154.592C58.4345 154.602 58.4248 154.602 58.4152 154.602ZM58.4056 149.815C57.9135 149.815 57.4312 150.037 57.0646 150.413C56.7076 150.78 56.505 151.262 56.505 151.735C56.5243 152.749 57.4312 153.627 58.4345 153.637C59.4571 153.627 60.3447 152.72 60.335 151.706C60.335 151.224 60.1228 150.741 59.7465 150.374C59.3896 150.017 58.9169 149.786 58.4056 149.815Z" fill="#EFEFEF"/>
<path d="M58.425 144.961H58.4153C57.6821 144.961 56.9489 144.633 56.399 144.083C55.8491 143.533 55.5404 142.79 55.55 142.066C55.5597 140.512 56.8814 139.199 58.4346 139.199H58.4443C59.9975 139.209 61.3192 140.531 61.3192 142.085C61.3192 142.819 61.0008 143.552 60.4413 144.102C59.8817 144.652 59.1485 144.961 58.425 144.961ZM58.425 140.164C57.412 140.164 56.5148 141.052 56.5051 142.075C56.5051 142.548 56.7077 143.031 57.084 143.407C57.4506 143.784 57.9426 143.996 58.4153 144.006C58.917 143.996 59.3704 143.793 59.7467 143.427C60.1229 143.05 60.3351 142.568 60.3351 142.095C60.3351 141.062 59.4476 140.174 58.425 140.164Z" fill="#EFEFEF"/>
<path d="M28.5375 184.891C25.8458 184.891 23.4629 182.526 23.4243 179.804C23.405 178.511 23.9453 177.208 24.9004 176.224C25.8748 175.229 27.1868 174.65 28.5085 174.641C29.8495 174.65 31.1423 175.171 32.1263 176.137C33.1103 177.102 33.6699 178.405 33.6795 179.708C33.6988 182.43 31.3256 184.843 28.5953 184.881C28.576 184.891 28.5568 184.891 28.5375 184.891ZM28.5182 175.606C27.4569 175.615 26.3861 176.088 25.595 176.899C24.8136 177.7 24.3794 178.752 24.3891 179.785C24.418 182.005 26.3571 183.916 28.5375 183.926C28.5568 183.926 28.576 183.926 28.5857 183.926C30.8046 183.897 32.7341 181.928 32.7148 179.717C32.7051 178.665 32.2421 177.604 31.451 176.822C30.6502 176.04 29.5697 175.606 28.5182 175.606Z" fill="#EFEFEF"/>
<path d="M28.5564 159.922C28.5467 159.922 28.5467 159.922 28.5371 159.922C27.2347 159.912 25.9323 159.343 24.9482 158.349C23.9739 157.364 23.4143 156.051 23.424 154.758C23.4432 152.036 25.8358 149.652 28.5564 149.652C28.566 149.652 28.566 149.652 28.5757 149.652C31.2962 149.662 33.6888 152.065 33.6888 154.787C33.6888 156.08 33.1196 157.393 32.1259 158.378C31.1419 159.362 29.8395 159.922 28.5564 159.922ZM28.5564 150.618C26.3471 150.618 24.408 152.548 24.3887 154.768C24.379 155.801 24.8325 156.862 25.6332 157.673C26.4339 158.484 27.4952 158.957 28.5371 158.957C29.579 158.957 30.6306 158.503 31.441 157.702C32.2513 156.891 32.7144 155.839 32.7144 154.797H33.1968H32.7144C32.7144 152.586 30.7753 150.627 28.566 150.627C28.566 150.618 28.5564 150.618 28.5564 150.618Z" fill="#EFEFEF"/>
<path d="M105.273 119.392C104.925 119.392 104.568 119.344 104.182 119.218C102.841 118.784 101.963 117.809 101.713 116.487C101.433 115.02 101.944 113.736 103.227 112.684C103.565 112.404 103.912 112.124 104.26 111.844C105.533 110.821 106.855 109.76 107.926 108.543C112.363 103.515 114.486 96.7972 113.743 90.0893C112.99 83.3234 109.402 77.1463 103.883 73.1601C102.919 72.4652 101.819 71.6641 101.655 70.1681C101.481 68.6045 102.07 67.3594 103.362 66.5487C104.761 65.6704 106.228 65.7283 107.385 66.7128C107.8 67.0699 108.225 67.4173 108.649 67.7648C110.463 69.2801 112.344 70.8437 113.907 72.6582C118.731 78.2755 121.123 85.1283 121.229 93.6218V93.6411C120.853 103.727 116.222 112.288 107.848 118.417C107.231 118.861 106.353 119.392 105.273 119.392ZM105.35 66.8961C104.877 66.8961 104.385 67.0506 103.883 67.3594C102.909 67.9771 102.494 68.8554 102.62 70.0619C102.735 71.1429 103.526 71.7124 104.453 72.3783C110.183 76.5286 113.926 82.947 114.698 89.9831C115.47 96.9517 113.261 103.949 108.649 109.18C107.52 110.454 106.17 111.545 104.858 112.587C104.51 112.867 104.173 113.138 103.835 113.418C102.812 114.257 102.436 115.174 102.648 116.294C102.841 117.288 103.449 117.954 104.472 118.292C105.379 118.581 106.247 118.379 107.279 117.626C115.402 111.69 119.898 103.38 120.265 93.6122C120.159 85.2537 117.911 78.7967 113.183 73.2856C111.678 71.529 109.826 69.9943 108.041 68.4983C107.617 68.1412 107.192 67.7938 106.778 67.4366C106.343 67.0699 105.861 66.8961 105.35 66.8961Z" fill="#EFEFEF"/>
<path d="M92.7693 85.2952C91.4669 85.2952 90.1645 84.7547 89.1901 83.7992C88.206 82.834 87.6465 81.531 87.6368 80.228C87.6175 77.5062 89.9908 75.0933 92.721 75.0547C92.7403 75.0547 92.7596 75.0547 92.7886 75.0547C95.4802 75.0547 97.8631 77.4194 97.9017 80.1412C97.921 81.4345 97.3807 82.7375 96.4256 83.7219C95.4512 84.7161 94.1392 85.2952 92.8175 85.3048C92.7982 85.2952 92.7886 85.2952 92.7693 85.2952ZM92.7886 76.0102C92.7693 76.0102 92.75 76.0102 92.7403 76.0102C90.5214 76.0392 88.5919 78.0081 88.6112 80.2184C88.6209 81.2704 89.084 82.3321 89.875 83.1139C90.6758 83.8957 91.737 84.3493 92.8079 84.33C93.8691 84.3204 94.9399 83.8474 95.731 83.0367C96.5125 82.2356 96.9466 81.1835 96.937 80.1508C96.8984 77.9309 94.9689 76.0102 92.7886 76.0102Z" fill="#EFEFEF"/>
<path d="M92.7692 110.283C92.7595 110.283 92.7595 110.283 92.7499 110.283C90.0293 110.274 87.6367 107.87 87.6367 105.149C87.6367 103.855 88.2059 102.543 89.1996 101.558C90.1836 100.574 91.5246 100.043 92.7884 100.023C94.0908 100.033 95.3932 100.603 96.3773 101.597C97.3517 102.581 97.9112 103.894 97.9016 105.187C97.8823 107.899 95.4801 110.283 92.7692 110.283ZM88.1191 105.139H88.6015C88.6015 107.359 90.5406 109.308 92.7499 109.308H92.7595C94.9688 109.308 96.9079 107.378 96.9272 105.158C96.9368 104.125 96.4834 103.064 95.6827 102.253C94.8819 101.442 93.8207 100.969 92.7788 100.969C92.7691 100.969 92.7692 100.969 92.7595 100.969C91.7272 100.969 90.6757 101.423 89.8749 102.224C89.0645 103.035 88.6015 104.087 88.6015 105.129L88.1191 105.139Z" fill="#EFEFEF"/>
</g>
<defs>
<clipPath id="clip0_198_13533">
<rect width="194" height="194" fill="white"/>
</clipPath>
</defs>
</svg>
