<svg width="120" height="120" viewBox="0 0 120 120" fill="none" xmlns="http://www.w3.org/2000/svg">
<mask id="mask0_139_9403" style="mask-type:alpha" maskUnits="userSpaceOnUse" x="0" y="0" width="120" height="120">
<rect width="120" height="120" fill="#C4C4C4"/>
</mask>
<g mask="url(#mask0_139_9403)">
<path d="M4.7998 72.8412C4.85579 64.511 5.48555 56.2234 6.73116 47.9924C7.50092 42.8781 11.5177 38.2597 16.626 37.268C23.064 36.0213 29.558 35.0012 36.0519 34.1512C44.7292 33.0037 53.4624 32.8904 62.1956 33.202C72.6643 33.5846 83.0351 34.8737 93.2939 37.0696C99.144 38.3305 103.049 42.8922 103.888 48.9274C105.19 58.2917 105.96 67.6844 105.512 77.1196C105.19 83.9198 104.518 90.7058 103.749 97.4634C103.203 102.252 99.6758 107.678 91.8523 108.939C87.4577 109.647 83.077 110.398 78.6824 111.05C77.4508 111.234 76.6811 111.701 76.0373 112.835C74.0779 116.334 71.9786 119.762 69.9212 123.219C68.4937 125.613 66.3943 125.599 65.0367 123.176C63.2453 119.975 61.4259 116.773 59.6624 113.557C59.2566 112.82 58.7947 112.537 57.955 112.565C50.2714 112.735 42.6018 112.466 34.9882 111.489C28.9421 110.71 22.9241 109.746 16.948 108.542C11.0418 107.338 7.34699 102.833 6.49326 96.3017C5.98942 92.3916 5.54155 88.4815 5.26164 84.5431C5.00972 80.6472 4.95376 76.7371 4.7998 72.8412ZM53.5744 91.8108C61.6078 91.7683 67.8219 89.9407 73.4901 86.2432C77.3529 83.7214 80.5579 80.5197 83.1331 76.6663C84.0008 75.3629 84.0847 74.0171 83.231 72.6854C82.4052 71.4104 81.1877 70.9145 79.7181 71.1128C78.3186 71.297 77.5908 72.3737 76.835 73.4221C67.528 86.4132 49.1378 88.5524 37.2555 77.9697C35.5201 76.4255 34.1205 74.4987 32.651 72.6854C31.6713 71.467 30.5096 70.8578 28.9981 71.1412C27.6825 71.382 26.8008 72.2179 26.381 73.4929C25.9331 74.8388 26.353 76.0004 27.1507 77.1055C33.9666 86.6398 43.2736 91.4141 53.5744 91.8108ZM63.1194 57.2859C63.1333 60.0484 65.5126 62.4568 68.2277 62.4427C70.9569 62.4143 73.3361 59.9918 73.3221 57.2576C73.3081 54.495 70.9149 52.1008 68.1998 52.1008C65.4706 52.1008 63.1194 54.5092 63.1194 57.2859ZM40.7544 62.4427C43.4416 62.4568 45.8768 60.0059 45.8768 57.2717C45.8768 54.5517 43.4556 52.0866 40.7684 52.1008C38.0393 52.1008 35.66 54.5092 35.66 57.2717C35.66 60.0201 38.0253 62.4285 40.7544 62.4427Z" fill="#0A68EB"/>
<path fill-rule="evenodd" clip-rule="evenodd" d="M93.5398 42.3529C105.235 42.3529 114.716 32.8719 114.716 21.1765C114.716 9.48103 105.235 0 93.5398 0C81.8443 0 72.3633 9.48103 72.3633 21.1765C72.3633 32.8719 81.8443 42.3529 93.5398 42.3529ZM105.208 13.7627C105.899 12.9001 105.759 11.6416 104.896 10.9515C104.034 10.2615 102.775 10.4014 102.085 11.2639L89.8585 26.5471L84.201 22.0211C83.3384 21.331 82.0798 21.4709 81.3898 22.3334C80.6998 23.1959 80.8396 24.4545 81.7022 25.1445L88.9214 30.9199C89.7839 31.61 91.0425 31.4701 91.7326 30.6076L105.208 13.7627Z" fill="#0CCE6B"/>
</g>
</svg>
