<svg width="339" height="200" viewBox="0 0 339 200" fill="none" xmlns="http://www.w3.org/2000/svg">
<mask id="mask0_131_10743" style="mask-type:alpha" maskUnits="userSpaceOnUse" x="0" y="0" width="339" height="200">
<rect width="338.298" height="200" fill="#C4C4C4"/>
</mask>
<g mask="url(#mask0_131_10743)">
<g clip-path="url(#clip0_131_10743)">
<path d="M217.198 53.4252L207.174 43.4014L211.174 39.4013L221.198 49.4252L217.198 53.4252Z" fill="#FFD1C6" stroke="#FF886D"/>
<path d="M193.087 49.3047C206.505 49.3047 217.382 38.4277 217.382 25.0103C217.382 11.5928 206.505 0.71582 193.087 0.71582C179.67 0.71582 168.793 11.5928 168.793 25.0103C168.793 38.4277 179.67 49.3047 193.087 49.3047Z" fill="#FF5A34"/>
<path d="M193.087 45.0801C204.172 45.0801 213.157 36.0945 213.157 25.0103C213.157 13.926 204.172 4.94043 193.087 4.94043C182.003 4.94043 173.018 13.926 173.018 25.0103C173.018 36.0945 182.003 45.0801 193.087 45.0801Z" fill="#FFD1C6"/>
<path d="M227.775 60.0006C225.488 62.2874 221.781 62.2874 219.494 60.0006L215.346 55.8516C213.809 54.3154 213.809 51.8306 215.346 50.3002L218.075 47.5711C219.611 46.0349 222.096 46.0349 223.626 47.5711L227.775 51.7201C230.062 54.007 230.062 57.7137 227.775 60.0006Z" fill="#FF5A34"/>
<path d="M272.575 74.9196L143.154 60.2731C142.624 60.215 142.083 60.2615 141.571 60.4186L64.248 83.6307C62.5721 84.137 61.4199 85.679 61.4199 87.4305V97.2414C61.4199 99.2024 62.8514 100.867 64.7833 101.163L66.8782 101.483L77.0847 103.055L100.879 92.9121C100.879 92.9121 110.457 88.9144 113.075 96.7643C115.694 104.614 111.202 106.82 108.63 107.896L108.624 107.902L146.18 113.674L142.491 111.213C142.491 111.213 138.912 106.587 143.206 101.862C143.532 101.501 143.87 101.193 144.219 100.937C144.219 100.937 144.242 100.919 144.289 100.878C144.341 100.838 144.399 100.797 144.457 100.756C145.639 99.8774 151.155 96.3686 158.179 100.937C161.845 103.316 173.919 111.929 188.03 120.104L206.931 123.008C207.716 123.13 208.525 123.008 209.241 122.671L270.143 93.6045H270.148L273.838 91.8414C275.217 91.1838 276.096 89.7872 276.096 88.2627V78.8591C276.096 76.8399 274.577 75.1466 272.575 74.9196ZM233.198 87.5062L203.201 100.337L115.502 88.3965L86.7502 84.4803L144.818 66.0514L254.472 78.4052L233.198 87.5062Z" fill="#0A68EB"/>
<path d="M254.473 78.4056L233.198 87.5065L145.744 77.1719L115.503 88.3968L86.751 84.4806L144.819 66.0518L254.473 78.4056Z" fill="#0763D3"/>
<path d="M145.804 77.6826L231.279 87.7832L203.131 99.8233L117.548 88.1707L145.804 77.6826Z" fill="#A4CDF7" stroke="#7FB4FF"/>
<path d="M287.449 115.339L264.9 127.541L240.879 140.535C240.879 140.535 223.707 145.708 198.342 129.159L182.677 119.278L153.85 101.105C153.85 101.105 148.636 97.8349 144.458 100.756C145.639 99.8774 151.156 96.3685 158.179 100.936C161.845 103.316 173.92 111.929 188.031 120.104C204.563 129.682 223.894 138.667 235.805 136.363L265.919 120.936L273.611 116.997L273.739 116.933L279.599 113.93C279.599 113.93 283.87 110.846 280.786 105.859C277.702 100.878 270.102 96.0136 270.102 96.0136L270.143 93.6045H270.149C270.463 93.7441 293.361 104.236 287.449 115.339Z" fill="#0A68EB"/>
<path d="M270.143 93.6032V93.5986" stroke="#0A68EB" stroke-miterlimit="10"/>
<path d="M273.74 117.452C273.716 117.306 273.676 117.155 273.611 116.997" stroke="#0A68EB" stroke-miterlimit="10"/>
<path d="M267.49 110.772C267.315 110.643 267.222 110.573 267.222 110.573" stroke="#0A68EB" stroke-miterlimit="10"/>
<path d="M287.449 115.339L281.158 129.025C281.158 129.025 272.854 133.75 263.084 139.29C253.791 144.568 243.166 150.591 237.131 153.972C224.76 160.919 199.145 148.979 199.145 148.979L146.18 113.675L142.491 111.213C142.491 111.213 138.912 106.587 143.206 101.862C143.532 101.501 143.87 101.193 144.219 100.937C144.219 100.937 144.242 100.919 144.289 100.879C144.341 100.838 144.399 100.797 144.458 100.757C148.636 97.8354 153.849 101.106 153.849 101.106L182.677 119.278L198.342 129.159C223.707 145.709 240.879 140.535 240.879 140.535L264.9 127.542L287.449 115.339Z" fill="#0763D3"/>
<path d="M67.4878 102.083L75.2767 103.282L68.2027 106.297L67.4878 102.083Z" fill="#C0DAF9" stroke="#7FB4FF"/>
<path d="M199.145 148.979L198.935 149.432L198.935 149.432L198.935 149.433L198.937 149.433L198.942 149.436L198.963 149.445L199.045 149.483C199.116 149.515 199.222 149.563 199.36 149.624C199.635 149.747 200.039 149.924 200.555 150.143C201.519 150.551 202.873 151.103 204.51 151.715L201.32 199.402L79.9761 175.909L71.2086 124.091L108.688 108.418L145.995 114.152L198.868 149.395L198.9 149.416L198.934 149.432L199.145 148.979Z" fill="#C0DAF9" stroke="#7FB4FF"/>
<path d="M237.376 154.408C243.218 151.135 253.361 145.387 262.433 140.235L258.779 163.869L202.345 199.059L205.488 152.075C209.614 153.569 215.224 155.307 220.883 156.143C226.815 157.019 232.9 156.921 237.376 154.408Z" fill="#A8CBEF" stroke="#7FB4FF"/>
<path d="M279.599 113.93L273.739 116.933L273.611 116.997C272.773 114.885 268.589 111.609 267.489 110.771L270.143 93.6045L270.102 96.0136C270.102 96.0136 277.702 100.878 280.786 105.859C283.87 110.846 279.599 113.93 279.599 113.93Z" fill="#045EB7"/>
<path d="M190.612 121.007L206.402 123.433L206.033 128.963C200.87 126.601 195.639 123.854 190.612 121.007Z" fill="#C0DAF9" stroke="#7FB4FF"/>
<path d="M207.004 129.404L207.395 123.552C208.105 123.574 208.813 123.425 209.454 123.123L209.456 123.122L269.504 94.4633L266.995 110.694L265.463 120.608L235.64 135.885C231.939 136.586 227.471 136.181 222.537 134.972C217.673 133.78 212.392 131.816 207.004 129.404Z" fill="#A8CBEF" stroke="#7FB4FF"/>
<path d="M270.143 93.6032V93.5986" stroke="#0A68EB" stroke-miterlimit="10"/>
<path d="M108.63 107.896L108.624 107.902L70.6493 123.782L57.0211 129.479L50.7715 114.268L67.8154 107.006L77.0851 103.055L100.879 92.9125C100.879 92.9125 106.82 91.3472 109.631 97.4979C112.383 103.503 108.793 107.704 108.63 107.896Z" fill="#0763D3"/>
<path d="M108.63 107.896C108.793 107.704 112.383 103.503 109.631 97.4978C106.82 91.3471 100.879 92.9124 100.879 92.9124C100.879 92.9124 110.457 88.9147 113.076 96.7646C115.694 104.614 111.202 106.82 108.63 107.896Z" fill="#0A68EB"/>
<path d="M180.454 23.6777H188.775" stroke="#FF5A34" stroke-width="2" stroke-miterlimit="10" stroke-linecap="round"/>
<path d="M197.76 23.6777H206.081" stroke="#FF5A34" stroke-width="2" stroke-miterlimit="10" stroke-linecap="round"/>
<path d="M190.457 33.6221H196.078" stroke="#FF5A34" stroke-width="2" stroke-miterlimit="10" stroke-linecap="round"/>
<path d="M226.55 4.20134C227.71 4.20134 228.651 3.26084 228.651 2.10067C228.651 0.940501 227.71 0 226.55 0C225.39 0 224.449 0.940501 224.449 2.10067C224.449 3.26084 225.39 4.20134 226.55 4.20134Z" fill="#FF5A34"/>
<path d="M236.574 4.20134C237.734 4.20134 238.675 3.26084 238.675 2.10067C238.675 0.940501 237.734 0 236.574 0C235.414 0 234.474 0.940501 234.474 2.10067C234.474 3.26084 235.414 4.20134 236.574 4.20134Z" fill="#FF5A34"/>
<path d="M246.607 4.20134C247.768 4.20134 248.708 3.26084 248.708 2.10067C248.708 0.940501 247.768 0 246.607 0C245.447 0 244.507 0.940501 244.507 2.10067C244.507 3.26084 245.447 4.20134 246.607 4.20134Z" fill="#FF5A34"/>
</g>
</g>
<defs>
<clipPath id="clip0_131_10743">
<rect width="237.655" height="200" fill="white" transform="translate(50.7715)"/>
</clipPath>
</defs>
</svg>
