<svg width="120" height="120" viewBox="0 0 120 120" fill="none" xmlns="http://www.w3.org/2000/svg">
<path d="M60 120C71.8669 120 83.4672 116.481 93.3342 109.888C103.201 103.295 110.891 93.9246 115.433 82.961C119.974 71.9974 121.162 59.9334 118.847 48.2946C116.532 36.6557 110.818 25.9648 102.426 17.5736C94.0352 9.18247 83.3443 3.46802 71.7054 1.15291C60.0665 -1.1622 48.0025 0.0259968 37.039 4.56725C26.0754 9.10851 16.7047 16.7989 10.1118 26.6658C3.51894 36.5328 0 48.1331 0 60C0 75.913 6.32141 91.1742 17.5736 102.426C28.8258 113.679 44.087 120 60 120Z" fill="#E0EBFA"/>
<path d="M14.8039 73.9915L21.7528 61.4848C21.8877 61.242 22.085 61.0396 22.3244 60.8988C22.5637 60.7579 22.8364 60.6836 23.1142 60.6836H96.0204C96.2981 60.6836 96.5708 60.7579 96.8102 60.8988C97.0496 61.0396 97.2469 61.242 97.3817 61.4848L104.327 73.9915C104.584 74.4541 104.719 74.9745 104.719 75.5036V82.4823H14.4121V75.5036C14.4121 74.9745 14.547 74.4541 14.8039 73.9915Z" fill="#999999"/>
<path d="M96.0791 67.846V60.6836C96.3569 60.6836 96.6295 60.7579 96.8689 60.8988C97.1083 61.0396 97.3056 61.242 97.4405 61.4848L104.388 73.9915C104.645 74.4541 104.78 74.9745 104.78 75.5036V82.4823L96.0791 86.3078V67.846Z" fill="#C9C9C9"/>
<path d="M23.1131 67.846V60.6836C22.8353 60.6836 22.5626 60.7579 22.3233 60.8988C22.0839 61.0396 21.8866 61.242 21.7517 61.4848L14.8039 73.9915C14.5468 74.4544 14.4119 74.9752 14.4121 75.5048V82.4834L23.1131 86.3078V67.846Z" fill="#C9C9C9"/>
<path d="M103.165 74.6953H77.6565C77.3675 74.6954 77.0841 74.776 76.8382 74.928C76.5924 75.08 76.3936 75.2974 76.2643 75.5559L74.4418 79.2021C74.1831 79.7193 73.7855 80.1543 73.2935 80.4583C72.8015 80.7623 72.2346 80.9233 71.6563 80.9233H47.4782C46.8999 80.9235 46.3329 80.7625 45.8409 80.4585C45.3489 80.1544 44.9514 79.7194 44.6927 79.2021L42.8702 75.5603C42.7409 75.3018 42.5422 75.0844 42.2963 74.9324C42.0504 74.7804 41.7671 74.6998 41.478 74.6997H15.9694C15.5571 74.6997 15.1617 74.8632 14.8698 75.1543C14.5779 75.4454 14.4133 75.8403 14.4121 76.2526V118.184C14.4121 118.597 14.5762 118.993 14.8682 119.285C15.1603 119.577 15.5564 119.741 15.9694 119.741H103.165C103.578 119.741 103.974 119.577 104.266 119.285C104.558 118.993 104.722 118.597 104.722 118.184V76.2526C104.722 75.8396 104.558 75.4435 104.266 75.1514C103.974 74.8594 103.578 74.6953 103.165 74.6953Z" fill="#B3B3B3"/>
<g clip-path="url(#clip0_198_10135)">
<path d="M50.758 47.6667L43.333 53.5V22.6667C43.333 22.2246 43.5086 21.8007 43.8212 21.4882C44.1337 21.1756 44.5576 21 44.9997 21H74.9997C75.4417 21 75.8656 21.1756 76.1782 21.4882C76.4907 21.8007 76.6663 22.2246 76.6663 22.6667V46C76.6663 46.442 76.4907 46.866 76.1782 47.1785C75.8656 47.4911 75.4417 47.6667 74.9997 47.6667H50.758ZM51.6663 32.6667V36H54.9997V32.6667H51.6663ZM58.333 32.6667V36H61.6663V32.6667H58.333ZM64.9997 32.6667V36H68.333V32.6667H64.9997Z" fill="#0A68EB"/>
</g>
<defs>
<clipPath id="clip0_198_10135">
<rect width="40" height="40" fill="white" transform="translate(40 16)"/>
</clipPath>
</defs>
</svg>
