<svg width="82" height="24" viewBox="0 0 82 24" fill="none" xmlns="http://www.w3.org/2000/svg">
<g clip-path="url(#clip0_306_36168)">
<path d="M39.4947 6.75891C39.1831 6.30785 38.7365 5.95567 38.1565 5.69891C37.5765 5.44215 36.9429 5.30857 36.2556 5.29469C35.3571 5.29469 34.6265 5.47338 34.0639 5.82903C33.5012 6.18467 33.2207 6.67043 33.2207 7.28284C33.2207 7.85881 33.4926 8.27691 34.0362 8.54061C34.5798 8.80257 35.3692 9.01075 36.4045 9.15995C37.1783 9.27272 37.8397 9.40457 38.3902 9.55376C38.9407 9.70296 39.4826 9.92676 40.0193 10.2199C40.556 10.5131 40.9646 10.9139 41.245 11.4205C41.5255 11.927 41.6657 12.5308 41.6657 13.2317C41.6657 14.1702 41.3939 14.9526 40.8503 15.5772C40.3067 16.2035 39.6454 16.6441 38.8646 16.9009C38.0838 17.1576 37.2078 17.286 36.2331 17.286C33.5497 17.286 31.6696 16.2919 30.5962 14.3021L32.1699 13.2507C33.0182 14.6889 34.3789 15.4089 36.2521 15.4089C36.8269 15.4089 37.3515 15.3465 37.8258 15.2215C38.3002 15.0966 38.7088 14.8624 39.0515 14.5172C39.3943 14.1737 39.5657 13.7452 39.5657 13.2317C39.5657 12.5689 39.2697 12.078 38.6759 11.7588C38.0838 11.4396 37.2614 11.2106 36.2141 11.0735C35.615 10.9989 35.0991 10.9104 34.6698 10.8115C34.2387 10.7109 33.7869 10.5669 33.3125 10.3796C32.8381 10.1922 32.4538 9.96666 32.1612 9.7047C31.8669 9.44273 31.6245 9.10097 31.4306 8.68113C31.2367 8.2613 31.1398 7.78421 31.1398 7.2464C31.1398 6.59583 31.2904 6.01986 31.5899 5.52022C31.8894 5.02058 32.2893 4.62504 32.7879 4.33879C33.2865 4.0508 33.8249 3.83568 34.398 3.69168C34.9728 3.54769 35.5718 3.47656 36.195 3.47656C38.5287 3.47656 40.1595 4.21388 41.0823 5.69024L39.4947 6.75891Z" fill="#01269B"/>
<path d="M45.1315 13.0836C45.218 13.7845 45.5348 14.3466 46.0767 14.7734C46.6203 15.1984 47.3094 15.4118 48.1455 15.4118C48.6441 15.4118 49.1479 15.3216 49.6534 15.1394C50.159 14.9573 50.5485 14.7179 50.8238 14.416L52.0789 15.6356C51.6167 16.1352 51.0263 16.5238 50.3096 16.7997C49.5911 17.0755 48.8588 17.2126 48.1092 17.2126C46.5978 17.2126 45.3911 16.7685 44.4857 15.8802C43.5803 14.992 43.1284 13.8036 43.1284 12.3151C43.1284 10.9012 43.5785 9.74403 44.4771 8.84364C45.3756 7.94325 46.5424 7.49219 47.9793 7.49219C49.5271 7.49219 50.732 7.96754 51.5942 8.91824C52.4563 9.86894 52.7991 11.2586 52.6242 13.0836H45.1315ZM50.7684 11.4511C50.7182 10.7381 50.4464 10.1882 49.9529 9.79955C49.4595 9.41094 48.8207 9.21837 48.033 9.21837C47.3094 9.21837 46.6878 9.41267 46.1702 9.79955C45.6526 10.1882 45.3184 10.7381 45.1678 11.4511H50.7684Z" fill="#01269B"/>
<path d="M56.5927 3.86719V16.9844H54.6641V3.86719H56.5927Z" fill="#01269B"/>
<path d="M61.2946 3.86719V16.9844H59.3643V3.86719H61.2946Z" fill="#01269B"/>
<path d="M65.4322 13.0836C65.5188 13.7845 65.8356 14.3466 66.3775 14.7734C66.9211 15.1984 67.6101 15.4118 68.4463 15.4118C68.9449 15.4118 69.4487 15.3216 69.9542 15.1394C70.4597 14.9573 70.8493 14.7179 71.1245 14.416L72.3797 15.6356C71.9174 16.1352 71.3271 16.5238 70.6104 16.7997C69.8919 17.0755 69.1596 17.2126 68.41 17.2126C66.8986 17.2126 65.6919 16.7685 64.7865 15.8802C63.8811 14.992 63.4292 13.8036 63.4292 12.3151C63.4292 10.9012 63.8793 9.74403 64.7778 8.84364C65.6763 7.94325 66.8432 7.49219 68.2801 7.49219C69.8278 7.49219 71.0328 7.96754 71.8949 8.91824C72.7571 9.86894 73.0999 11.2586 72.925 13.0836H65.4322ZM71.0691 11.4511C71.0189 10.7381 70.7471 10.1882 70.2537 9.79955C69.7603 9.41094 69.1215 9.21837 68.3338 9.21837C67.6101 9.21837 66.9886 9.41267 66.471 9.79955C65.9533 10.1882 65.6192 10.7381 65.4686 11.4511H71.0691Z" fill="#01269B"/>
<path d="M76.6867 7.73379L76.8182 8.9534C77.3549 8.00269 78.2604 7.52734 79.5328 7.52734C80.4694 7.52734 81.2312 7.78931 81.8181 8.31497L80.9386 10.0047C80.4763 9.62999 79.9327 9.44089 79.3095 9.44089C78.598 9.44089 78.0041 9.65948 77.5298 10.0984C77.0554 10.5356 76.8182 11.1619 76.8182 11.9755V16.984H74.8896V7.73379H76.6867Z" fill="#01269B"/>
<path d="M26.0829 4.03354L26.0777 3.99537C25.8595 2.52942 24.755 1.35319 23.3077 1.04612H23.306C16.6926 -0.348706 9.86119 -0.348706 3.24787 1.04612H3.24441C1.79709 1.35145 0.692564 2.52595 0.474428 3.9919C-0.15401 8.20761 -0.157473 12.4927 0.464041 16.7067L0.47616 16.783C0.692564 18.2507 1.79882 19.4287 3.24787 19.734C6.88692 20.5025 10.5935 20.8443 14.2914 20.768C14.7692 21.5695 15.4548 22.7977 15.9344 23.6617C16.1802 24.1058 16.8156 24.1162 17.0752 23.6791L19.0108 20.4366C20.4494 20.2649 21.8829 20.0341 23.306 19.734H23.3077C24.755 19.4287 25.8613 18.2524 26.0777 16.7847L26.0829 16.7466C26.7078 12.5326 26.7078 8.24751 26.0829 4.03354Z" fill="#01269B"/>
<path d="M6.9667 13.7908C7.1606 13.6849 7.25755 13.4473 7.25755 13.076V6.91033H9.48219V13.0777C9.48219 13.6433 9.37658 14.1256 9.1671 14.5263C8.95762 14.9271 8.68063 15.2134 8.33957 15.3868C7.99679 15.5603 7.60034 15.6367 7.14848 15.6176C6.69663 15.5968 6.23439 15.4701 5.7583 15.2359L6.18072 13.6728C6.51139 13.8567 6.77454 13.8966 6.9667 13.7908ZM7.49992 6.09148C7.74922 6.28925 8.04353 6.38814 8.38285 6.38814C8.71352 6.38814 9.00264 6.28925 9.25367 6.09148C9.50296 5.8937 9.62934 5.62133 9.62934 5.27436C9.62934 4.91871 9.50643 4.64287 9.26059 4.4451C9.01476 4.24732 8.72218 4.14844 8.38459 4.14844C8.04699 4.14844 7.75095 4.24732 7.50166 4.4451C7.25236 4.64287 7.12771 4.92045 7.12771 5.27436C7.12425 5.62133 7.24889 5.8937 7.49992 6.09148Z" fill="white"/>
<path d="M10.5467 13.2235H12.6381C12.6225 13.9834 12.9964 14.3633 13.7634 14.3633C14.0785 14.3633 14.3399 14.2887 14.5494 14.1395C14.7588 13.9903 14.8644 13.7787 14.8644 13.5028C14.8644 12.9702 14.5061 12.7031 13.7876 12.7031C12.78 12.7031 11.9733 12.4307 11.3691 11.886C10.7649 11.3412 10.4619 10.6074 10.4619 9.68616C10.4619 8.76495 10.7787 8.02416 11.4106 7.46207C12.0425 6.89998 12.8354 6.62066 13.7859 6.62066C14.1893 6.62066 14.5996 6.697 15.0185 6.8514C15.0757 6.77854 15.1778 6.64669 15.3267 6.45759C15.4756 6.26849 15.5864 6.1245 15.6591 6.02734L17.2674 7.17755L16.4935 8.09876C16.8969 8.55156 17.0856 9.08763 17.0614 9.71044C17.0458 10.5189 16.6822 11.1799 15.9724 11.6969C16.755 12.141 17.1445 12.743 17.1445 13.5028C17.1445 13.9712 17.0493 14.3807 16.8606 14.7329C16.6719 15.085 16.4139 15.3609 16.0867 15.5621C15.7595 15.7634 15.4011 15.916 15.0099 16.0166C14.6186 16.1173 14.2014 16.1676 13.7582 16.1676C12.6935 16.1676 11.8763 15.9073 11.3033 15.3869C10.7354 14.8664 10.481 14.1447 10.5467 13.2235ZM13.7859 8.45094C13.4466 8.45094 13.1696 8.56023 12.9514 8.77882C12.7333 8.99742 12.6242 9.29928 12.6242 9.68789C12.6242 10.0349 12.735 10.3176 12.9566 10.5362C13.1782 10.7548 13.4535 10.8641 13.7842 10.8641C14.0992 10.8641 14.3641 10.7635 14.5823 10.5605C14.8004 10.3593 14.9095 10.0678 14.9095 9.68789C14.9095 9.34092 14.8021 9.04773 14.5892 8.81005C14.3762 8.56891 14.1079 8.45094 13.7859 8.45094Z" fill="white"/>
<path d="M19.494 15.6177C19.0906 15.6177 18.7773 15.4945 18.5505 15.2482C18.3254 15.0018 18.2129 14.7295 18.2129 14.4311C18.2129 14.1327 18.3254 13.8603 18.5505 13.6139C18.7755 13.3676 19.0906 13.2444 19.494 13.2444C19.8974 13.2444 20.2159 13.3676 20.4496 13.6139C20.6834 13.8603 20.8011 14.1327 20.8011 14.4311C20.8011 14.7295 20.6868 15.0018 20.4566 15.2482C20.2246 15.4945 19.9043 15.6177 19.494 15.6177ZM20.6418 12.4186H18.3808L18.3445 4.33594H20.6903L20.6418 12.4186Z" fill="white"/>
</g>
<defs>
<clipPath id="clip0_306_36168">
<rect width="81.8182" height="24" fill="white"/>
</clipPath>
</defs>
</svg>
