<svg width="161" height="44" viewBox="0 0 161 44" fill="none" xmlns="http://www.w3.org/2000/svg">
<g clip-path="url(#clip0_421_39127)">
<path d="M133.843 8.38484C133.855 6.62937 133.989 4.88287 134.254 3.14831C134.418 2.07055 135.273 1.09728 136.361 0.888297C137.731 0.625575 139.114 0.410621 140.497 0.231492C142.344 -0.0103319 144.203 -0.0342157 146.063 0.0314649C148.292 0.112073 150.5 0.383751 152.684 0.846501C153.929 1.11221 154.761 2.07353 154.94 3.34535C155.217 5.31875 155.381 7.29812 155.285 9.28645C155.217 10.7195 155.074 12.1495 154.91 13.5736C154.794 14.5827 154.043 15.7261 152.377 15.9918C151.441 16.1411 150.509 16.2993 149.573 16.4367C149.311 16.4755 149.147 16.574 149.01 16.8128C148.593 17.5503 148.146 18.2727 147.708 19.0012C147.404 19.5057 146.957 19.5028 146.668 18.9922C146.286 18.3175 145.899 17.6428 145.523 16.9651C145.437 16.8099 145.339 16.7502 145.16 16.7561C143.524 16.7919 141.891 16.7352 140.27 16.5292C138.983 16.365 137.702 16.162 136.429 15.9082C135.172 15.6545 134.385 14.7051 134.203 13.3288C134.096 12.5048 134.001 11.6808 133.941 10.8508C133.887 10.0298 133.876 9.20584 133.843 8.38484ZM144.227 12.3824C145.938 12.3734 147.261 11.9883 148.467 11.2091C149.29 10.6777 149.972 10.003 150.521 9.19092C150.705 8.91625 150.723 8.63263 150.541 8.352C150.366 8.0833 150.106 7.97881 149.793 8.02061C149.496 8.05942 149.341 8.28632 149.18 8.50724C147.198 11.2449 143.283 11.6957 140.753 9.46558C140.383 9.14016 140.085 8.73414 139.773 8.352C139.564 8.09525 139.317 7.96687 138.995 8.02658C138.715 8.07733 138.527 8.25348 138.438 8.52217C138.342 8.80579 138.432 9.0506 138.601 9.28347C140.053 11.2927 142.034 12.2988 144.227 12.3824ZM146.259 5.10678C146.262 5.68895 146.769 6.19648 147.347 6.19349C147.928 6.18752 148.435 5.67701 148.432 5.10081C148.429 4.51864 147.919 4.01409 147.341 4.01409C146.76 4.01409 146.259 4.52163 146.259 5.10678ZM141.498 6.19349C142.07 6.19648 142.588 5.67999 142.588 5.1038C142.588 4.53058 142.073 4.01111 141.501 4.01409C140.92 4.01409 140.413 4.52163 140.413 5.1038C140.413 5.68298 140.917 6.19051 141.498 6.19349Z" fill="#0A68EB"/>
<path d="M58.684 23.5508C59.7597 24.321 60.8234 25.0793 61.9111 25.8586C61.5892 26.2407 61.2793 26.6139 60.9695 26.9841C60.7787 27.214 60.4659 27.4259 60.4361 27.6767C60.4093 27.8947 60.7013 28.1484 60.8532 28.3873C61.8813 29.9994 61.8038 32.8505 59.8759 34.5135C59.7001 34.6657 59.5243 34.815 59.3216 34.9882C59.4557 35.0747 59.569 35.1434 59.6792 35.215C60.7013 35.8898 61.4671 36.7615 61.622 38.0154C61.8723 40.0247 61.1214 42.0816 58.9283 43.1236C57.501 43.8013 55.9962 44.0371 54.4318 43.9924C53.2012 43.9565 52.0063 43.7535 50.9127 43.1564C49.2172 42.2279 48.3918 40.7651 48.3293 38.8514C48.3203 38.6095 48.3293 38.3677 48.3293 38.105C49.7387 38.105 51.1243 38.105 52.5278 38.105C52.5486 38.2752 52.5695 38.4424 52.5874 38.6125C52.6797 39.5022 53.1714 40.0933 54.0355 40.2844C54.8222 40.4576 55.5969 40.4277 56.3121 39.9948C56.9497 39.6097 57.1434 39.0215 57.0451 38.3199C56.9557 37.684 56.5594 37.278 55.9545 37.1556C55.4032 37.0451 54.8311 37.0272 54.265 36.9884C52.5337 36.878 50.9693 36.3674 49.7327 35.0926C48.4604 33.785 48.0879 32.1669 48.1952 30.4025C48.2875 28.9187 48.8299 27.6319 49.9145 26.599C51.0498 25.5182 52.4115 24.954 53.961 24.7898C55.0665 24.6733 56.1392 24.7778 57.1851 25.142C57.349 25.1988 57.4295 25.148 57.5219 25.0256C57.8437 24.6017 58.1744 24.1837 58.5052 23.7657C58.5588 23.6971 58.6184 23.6314 58.684 23.5508ZM57.1553 30.9428C57.1553 30.8533 57.1583 30.7607 57.1553 30.6711C57.1047 29.7307 56.47 28.844 55.6357 28.5455C54.7745 28.235 53.7226 28.4679 53.1327 29.1635C52.4294 29.9905 52.3549 30.9548 52.7334 31.937C53.1327 32.97 54.2769 33.4984 55.442 33.2536C56.5177 33.0237 57.1613 32.1609 57.1553 30.9428Z" fill="#0A68EB"/>
<path d="M147.418 38.102C148.839 38.102 150.219 38.102 151.613 38.102C151.634 38.2871 151.655 38.4633 151.676 38.6424C151.765 39.4873 152.245 40.0724 153.068 40.2725C153.881 40.4725 154.683 40.4396 155.419 39.9858C156.041 39.6037 156.226 39.0156 156.131 38.3259C156.041 37.69 155.648 37.284 155.04 37.1616C154.489 37.0511 153.917 37.0302 153.351 36.9944C151.619 36.8839 150.055 36.3734 148.818 35.0986C147.546 33.791 147.171 32.1758 147.281 30.4084C147.373 28.9246 147.916 27.6379 149 26.6049C150.136 25.5242 151.497 24.9569 153.047 24.7927C154.152 24.6763 155.225 24.7808 156.271 25.145C156.435 25.2018 156.515 25.154 156.608 25.0316C156.986 24.539 157.373 24.0494 157.764 23.5508C158.842 24.321 159.906 25.0823 160.997 25.8615C160.66 26.2646 160.332 26.6557 160.005 27.0498C159.832 27.2587 159.54 27.4558 159.519 27.6767C159.498 27.8857 159.763 28.1216 159.906 28.3425C160.973 29.9696 160.893 32.8476 158.959 34.5135C158.783 34.6657 158.607 34.815 158.401 34.9911C158.533 35.0747 158.646 35.1434 158.756 35.218C159.787 35.8957 160.556 36.7765 160.705 38.0423C160.952 40.1292 160.136 42.1354 157.963 43.1475C156.548 43.8073 155.061 44.0371 153.518 43.9924C152.287 43.9565 151.092 43.7565 149.998 43.1564C148.303 42.2279 147.475 40.768 147.412 38.8514C147.412 38.6155 147.418 38.3737 147.418 38.102ZM156.244 30.9488C156.244 30.8592 156.247 30.7667 156.244 30.6771C156.193 29.7367 155.559 28.85 154.724 28.5515C153.863 28.241 152.811 28.4738 152.221 29.1665C151.518 29.9934 151.441 30.9578 151.822 31.94C152.221 32.973 153.366 33.5014 154.528 33.2566C155.603 33.0297 156.247 32.1639 156.244 30.9488Z" fill="#0A68EB"/>
<path d="M84.1186 37.15C82.6138 37.15 81.1537 37.15 79.6758 37.15C79.6758 33.1435 79.6758 29.1549 79.6758 25.1364C79.7652 25.1305 79.8516 25.1156 79.938 25.1156C81.0137 25.1156 82.0864 25.1215 83.1621 25.1096C83.3707 25.1066 83.469 25.1633 83.5078 25.3783C83.5674 25.7037 83.6627 26.0231 83.7521 26.3903C84.6043 25.3215 85.7128 24.8707 87.0001 24.8648C88.3112 24.8588 89.3928 25.3395 90.0722 26.5426C90.2301 26.3874 90.3672 26.25 90.5102 26.1187C91.3684 25.3036 92.4173 24.9364 93.5734 24.8618C94.5299 24.7991 95.4656 24.8857 96.3327 25.3484C97.611 26.0321 98.2695 27.1516 98.5258 28.5309C98.6331 29.1131 98.6897 29.7132 98.6957 30.3073C98.7165 32.4748 98.7046 34.6452 98.7046 36.8156C98.7046 36.9231 98.7046 37.0276 98.7046 37.15C97.2058 37.15 95.7367 37.15 94.226 37.15C94.226 37.0455 94.226 36.941 94.226 36.8365C94.226 34.7139 94.226 32.5882 94.223 30.4655C94.223 30.2595 94.2051 30.0505 94.1694 29.8475C94.0532 29.2086 93.6539 28.7728 93.1384 28.7011C92.5514 28.6205 91.872 28.9429 91.6336 29.4952C91.4935 29.8177 91.4161 30.1879 91.4101 30.5402C91.3893 32.6181 91.4012 34.6989 91.4012 36.7768C91.4012 36.8933 91.4012 37.0097 91.4012 37.147C89.9351 37.147 88.4959 37.147 87.0209 37.147C87.015 37.0396 87.006 36.9261 87.006 36.8127C87.006 34.7169 87.009 32.6181 87.0001 30.5223C87.0001 30.2177 86.9703 29.9072 86.8987 29.6117C86.6693 28.6563 85.683 28.31 84.8844 28.8922C84.3153 29.3072 84.1276 29.9043 84.1276 30.576C84.1246 32.6539 84.1276 34.7348 84.1276 36.8127C84.1186 36.9142 84.1186 37.0216 84.1186 37.15Z" fill="#0A68EB"/>
<path d="M34.5501 26.0618C34.5501 24.0884 34.5501 22.112 34.5501 20.1177C34.6663 20.1118 34.7557 20.0998 34.8421 20.0998C36.1413 20.0998 37.4434 20.1028 38.7426 20.0939C38.9661 20.0909 39.0346 20.1536 39.0346 20.3834C39.0287 25.8976 39.0317 31.4088 39.0287 36.923C39.0287 37.0096 39.0197 37.0991 39.0138 37.2036C38.3344 37.2036 37.6759 37.2036 37.0173 37.2036C36.4482 37.2036 35.8791 37.1947 35.3099 37.2066C35.1013 37.2126 35.003 37.1708 34.9881 36.9349C34.9672 36.6125 34.8928 36.296 34.8421 35.9766C34.8004 35.9856 34.7765 35.9826 34.7676 35.9945C33.2718 37.4574 31.469 37.6753 29.5381 37.2305C27.2526 36.7051 25.8015 35.081 25.4618 32.7523C25.2443 31.2655 25.2443 29.7877 25.8462 28.3845C26.7341 26.3096 28.2926 25.0915 30.5691 24.9094C31.1919 24.8587 31.8325 24.9064 32.4523 24.993C33.2479 25.1035 33.9362 25.4767 34.4845 26.0887C34.5054 26.0827 34.5292 26.0708 34.5501 26.0618ZM34.6693 31.2297C34.6156 30.9102 34.5888 30.5848 34.4994 30.2743C34.1806 29.1458 33.3105 28.4771 32.211 28.486C31.1055 28.498 30.2145 29.1697 29.9106 30.2385C29.7735 30.7222 29.7586 31.2118 29.8271 31.7133C30.0208 33.1613 31.317 34.0838 32.7414 33.7673C33.8886 33.5166 34.6395 32.5134 34.6693 31.2297Z" fill="#0A68EB"/>
<path d="M105.695 36.2515C105.695 38.2249 105.695 40.1983 105.695 42.1926C104.196 42.1926 102.73 42.1926 101.24 42.1926C101.24 36.5083 101.24 30.8299 101.24 25.1187C101.353 25.1187 101.449 25.1187 101.547 25.1187C102.668 25.1187 103.785 25.1246 104.905 25.1157C105.129 25.1127 105.251 25.1515 105.263 25.4142C105.278 25.7247 105.355 26.0352 105.406 26.3457C105.451 26.3367 105.472 26.3397 105.483 26.3278C106.538 25.2441 107.858 24.8559 109.321 24.9067C111.073 24.9664 112.611 25.5247 113.722 26.9667C114.363 27.7966 114.688 28.761 114.819 29.785C114.986 31.0956 114.95 32.3973 114.512 33.6631C113.72 35.9589 111.666 37.4278 109.241 37.4427C108.383 37.4487 107.539 37.395 106.768 36.9859C106.401 36.7889 106.076 36.5142 105.695 36.2515ZM105.579 31.0837C105.632 31.4031 105.659 31.7285 105.746 32.039C106.067 33.1824 106.896 33.8184 108.031 33.8213C109.131 33.8243 110.016 33.1705 110.326 32.1107C110.469 31.621 110.486 31.1225 110.421 30.6119C110.23 29.1461 108.901 28.2176 107.459 28.5609C106.348 28.8236 105.612 29.8298 105.579 31.0837Z" fill="#0A68EB"/>
<path d="M18.8947 26.4072C18.9633 26.0041 19.0229 25.6757 19.0735 25.3473C19.0944 25.213 19.1182 25.1115 19.297 25.1115C20.5962 25.1174 21.8983 25.1144 23.1975 25.1174C23.2333 25.1174 23.2661 25.1294 23.3137 25.1383C23.3137 29.1359 23.3137 33.1245 23.3137 37.14C21.946 37.14 20.5783 37.14 19.1897 37.14C19.1272 36.7459 19.0616 36.3518 18.9931 35.9249C18.9305 35.9667 18.8918 35.9846 18.862 36.0144C18.0932 36.8295 17.1099 37.2146 16.0312 37.3489C14.6188 37.5251 13.2749 37.2713 12.0651 36.5041C10.7719 35.683 10.018 34.465 9.69023 32.9842C9.32669 31.3392 9.37139 29.7031 10.1044 28.1626C11.1235 26.025 12.8279 24.8846 15.2266 24.8487C16.0193 24.8368 16.794 24.9204 17.527 25.2488C18.0693 25.4906 18.5074 25.8578 18.8947 26.4072ZM18.8858 31.1063C18.856 30.8645 18.8411 30.6227 18.7964 30.3838C18.6027 29.3419 17.828 28.6284 16.7463 28.4851C15.6766 28.3418 14.6992 28.8403 14.2403 29.7599C13.9722 30.2943 13.9304 30.8645 13.9573 31.4467C14.0258 33.0618 15.474 34.1336 17.0354 33.7126C18.1528 33.4141 18.8769 32.3871 18.8858 31.1063Z" fill="#0A68EB"/>
<path d="M77.0096 25.1358C77.0096 29.1423 77.0096 33.1339 77.0096 37.1434C75.63 37.1434 74.2653 37.1434 72.8827 37.1434C72.8201 36.7434 72.7575 36.3553 72.692 35.9433C72.6413 35.9672 72.5966 35.9791 72.5698 36.006C71.801 36.821 70.8236 37.2121 69.742 37.3494C68.3117 37.5286 66.9499 37.2748 65.7282 36.4866C64.441 35.6567 63.6931 34.4326 63.3772 32.9518C63.0107 31.2382 63.0792 29.5424 63.8987 27.9631C64.9505 25.9389 66.6281 24.8761 68.9345 24.8522C69.7181 24.8433 70.4839 24.9239 71.208 25.2433C71.7563 25.4851 72.2003 25.8553 72.5877 26.4077C72.6562 26.0046 72.7158 25.6732 72.7694 25.3388C72.7903 25.1985 72.832 25.112 73.0019 25.112C74.301 25.1179 75.6032 25.1179 76.9024 25.1179C76.9232 25.1149 76.9501 25.1239 77.0096 25.1358ZM72.5757 31.1098C72.5459 30.868 72.531 30.6261 72.4864 30.3873C72.2956 29.3454 71.5239 28.6318 70.4393 28.4855C69.3725 28.3422 68.3921 28.8378 67.9303 29.7574C67.6621 30.2918 67.6204 30.859 67.6442 31.4442C67.7128 33.0742 69.1729 34.143 70.7432 33.7071C71.8487 33.3996 72.5638 32.3756 72.5757 31.1098Z" fill="#0A68EB"/>
<path d="M130.049 25.1362C130.049 29.1457 130.049 33.1314 130.049 37.1409C128.678 37.1409 127.314 37.1409 125.919 37.1409C125.857 36.7527 125.791 36.3557 125.726 35.9407C125.678 35.9646 125.639 35.9735 125.618 35.9974C124.852 36.8124 123.878 37.2185 122.796 37.3468C121.137 37.5469 119.593 37.2095 118.279 36.1288C117.194 35.2361 116.595 34.0479 116.357 32.6776C116.092 31.1609 116.146 29.6622 116.804 28.2471C117.823 26.0558 119.537 24.8855 121.983 24.8526C122.776 24.8407 123.55 24.9273 124.28 25.2616C124.808 25.5005 125.243 25.8617 125.621 26.4081C125.69 26.011 125.752 25.6856 125.803 25.3542C125.827 25.2049 125.86 25.1094 126.05 25.1124C127.332 25.1213 128.616 25.1153 129.897 25.1183C129.936 25.1183 129.981 25.1273 130.049 25.1362ZM125.615 31.1042C125.585 30.8624 125.571 30.6176 125.526 30.3817C125.332 29.3398 124.554 28.6263 123.473 28.4859C122.4 28.3456 121.426 28.8442 120.97 29.7637C120.705 30.2981 120.663 30.8684 120.687 31.4535C120.755 33.0687 122.209 34.1345 123.768 33.7135C124.882 33.412 125.606 32.385 125.615 31.1042Z" fill="#0A68EB"/>
<path d="M137.117 37.1907C135.627 37.1907 134.179 37.1907 132.713 37.1907C132.713 33.1692 132.713 29.1597 132.713 25.1413C134.03 25.1413 135.326 25.1413 136.658 25.1413C136.724 25.5503 136.789 25.9623 136.861 26.4161C136.935 26.3534 136.992 26.3146 137.037 26.2668C137.957 25.3084 139.09 24.8696 140.407 24.8487C141.22 24.8367 142.01 24.9263 142.758 25.2577C144.221 25.9026 144.978 27.0818 145.222 28.6164C145.326 29.2821 145.377 29.9628 145.383 30.6375C145.404 32.7065 145.389 34.7784 145.389 36.8473C145.389 36.9548 145.389 37.0623 145.389 37.1847C143.893 37.1847 142.418 37.1847 140.91 37.1847C140.91 37.0712 140.91 36.9667 140.91 36.8593C140.91 34.7426 140.913 32.6288 140.907 30.5121C140.907 29.9807 140.827 29.4612 140.442 29.0522C139.543 28.0909 137.811 28.4731 137.329 29.7598C137.186 30.139 137.129 30.5689 137.126 30.9779C137.105 32.9214 137.117 34.865 137.117 36.8085C137.117 36.9279 137.117 37.0444 137.117 37.1907Z" fill="#0A68EB"/>
<path d="M0.843308 39.015C1.01911 39.0896 1.18896 39.1702 1.36477 39.2329C2.27062 39.5494 2.90233 39.1314 2.9798 38.1671C2.99172 37.9969 2.99768 37.8238 2.99768 37.6536C2.99768 33.6769 2.99768 29.7003 2.99768 25.7236C2.99768 25.6072 2.99768 25.4937 2.99768 25.3594C4.49651 25.3594 5.96256 25.3594 7.4584 25.3594C7.46436 25.4579 7.4733 25.5534 7.4733 25.649C7.4733 29.7241 7.47628 33.8023 7.4733 37.8775C7.4733 39.1135 7.21108 40.2778 6.47508 41.3018C5.70331 42.3766 4.60974 42.8274 3.3344 42.8961C2.22294 42.9558 1.17108 42.6901 0.16392 42.2243C0.0417492 42.1676 -0.0297653 42.1109 0.0119515 41.9616C0.277151 41.0063 0.536391 40.0479 0.801591 39.0926C0.80755 39.0687 0.825429 39.0448 0.843308 39.015Z" fill="#0A68EB"/>
<path d="M41.6963 25.3555C43.1981 25.3555 44.682 25.3555 46.1808 25.3555C46.1808 29.3053 46.1808 33.2401 46.1808 37.1869C44.682 37.1869 43.1981 37.1869 41.6963 37.1869C41.6963 33.2401 41.6963 29.3053 41.6963 25.3555Z" fill="#0A68EB"/>
<path d="M5.27152 24.255C4.76496 24.2729 4.28819 24.1595 3.84421 23.9117C3.08437 23.4907 2.71785 22.8399 2.72977 21.9801C2.74169 21.1083 3.13204 20.4515 3.92466 20.0753C4.98844 19.5708 6.02838 19.6156 6.98787 20.3261C8.06058 21.1202 8.04866 22.8906 6.98489 23.6967C6.48131 24.0818 5.90919 24.2759 5.27152 24.255Z" fill="#0A68EB"/>
<path d="M43.9454 24.2524C43.4269 24.2703 42.9442 24.1479 42.4943 23.8941C41.7493 23.4702 41.3947 22.8194 41.4096 21.9745C41.4245 21.1146 41.8089 20.4608 42.5866 20.0847C43.6564 19.5682 44.7053 19.6129 45.6737 20.3295C46.7345 21.1176 46.7285 22.8761 45.6826 23.6851C45.1731 24.0762 44.595 24.2733 43.9454 24.2524Z" fill="#0A68EB"/>
</g>
<defs>
<clipPath id="clip0_421_39127">
<rect width="161" height="44" fill="white"/>
</clipPath>
</defs>
</svg>
