<svg width="150" height="150" viewBox="0 0 150 150" fill="none" xmlns="http://www.w3.org/2000/svg">
<circle cx="75" cy="75" r="75" fill="#D9D9D9"/>
<g clip-path="url(#clip0_152_48962)">
<path d="M74.9994 65.9145L65.0251 88.5458L18.9019 79.1422L9.17871 77.1589L19.4004 54.25L74.9994 65.9145Z" fill="#2583F4"/>
<path d="M65.0255 88.7234C65.0147 88.7234 65.0004 88.7234 64.9896 88.7198L9.1432 77.333C9.0894 77.3223 9.04636 77.2867 9.02126 77.2404C8.99615 77.1942 8.99615 77.1372 9.01767 77.0873L19.2394 54.1784C19.2753 54.1001 19.3577 54.0609 19.4402 54.0751L75.0392 65.7397C75.093 65.7504 75.136 65.786 75.1611 65.8323C75.1862 65.8786 75.1862 65.9355 75.1647 65.9854L65.1905 88.6166C65.1618 88.6807 65.0972 88.7234 65.0255 88.7234ZM9.43371 77.0268L64.9215 88.3389L74.7487 66.0388L19.5048 54.4526L9.43371 77.0268Z" fill="#7FB4FF"/>
<path d="M130.599 54.248L75 65.9126V42.498L130.599 54.248Z" fill="#8AB5DD"/>
<path d="M74.9996 66.0913C74.9602 66.0913 74.9207 66.0771 74.8885 66.0521C74.8454 66.0201 74.8203 65.9667 74.8203 65.9133V42.4987C74.8203 42.4453 74.8454 42.3955 74.8885 42.3599C74.9315 42.3243 74.9853 42.3136 75.0391 42.3243L130.638 54.0743C130.721 54.0921 130.782 54.1633 130.782 54.2487C130.782 54.3342 130.721 54.4054 130.638 54.4232L75.0391 66.0877C75.0247 66.0877 75.0104 66.0913 74.9996 66.0913ZM75.179 42.7195V65.6961L129.734 54.2523L75.179 42.7195Z" fill="#7FB4FF"/>
<path d="M140.821 77.157L131.793 78.9978L84.9742 88.5438L75 65.9126L130.599 54.248L140.821 77.157Z" fill="#0A68EB"/>
<path d="M84.9743 88.7226C84.9025 88.7226 84.838 88.6799 84.8093 88.6158L74.8351 65.9845C74.8135 65.9347 74.8135 65.8813 74.8386 65.8314C74.8637 65.7852 74.9068 65.7495 74.9606 65.7389L130.56 54.0743C130.642 54.0565 130.725 54.0992 130.76 54.1776L140.982 77.0865C141.004 77.1364 141.004 77.1933 140.979 77.2396C140.953 77.2859 140.907 77.3215 140.857 77.3322L85.0101 88.719C84.9994 88.7226 84.985 88.7226 84.9743 88.7226ZM75.2511 66.0415L85.0783 88.3416L140.566 77.0295L130.495 54.4553L75.2511 66.0415Z" fill="#7FB4FF"/>
<path d="M131.793 78.9973V110.046L75 121.821V65.9121L84.9742 88.5433L131.793 78.9973Z" fill="#A8CBEF"/>
<path d="M74.9996 122C74.9602 122 74.9171 121.985 74.8849 121.96C74.8418 121.928 74.8203 121.875 74.8203 121.821V65.9129C74.8203 65.8274 74.8813 65.7562 74.9638 65.7384C75.0463 65.7206 75.1288 65.7633 75.1646 65.8416L85.0815 88.3411L131.757 78.8236C131.811 78.8129 131.865 78.8272 131.908 78.8592C131.951 78.8913 131.972 78.9447 131.972 78.9981V110.047C131.972 110.132 131.911 110.203 131.829 110.221L75.0355 121.996C75.0247 121.996 75.0104 122 74.9996 122ZM75.179 66.7638V121.601L131.614 109.901V79.2153L85.0097 88.7185C84.9273 88.7328 84.8448 88.6936 84.8089 88.6153L75.179 66.7638Z" fill="#7FB4FF"/>
<path d="M75.0008 65.9121V121.821L18.9033 110.046V79.1398L65.0266 88.5433L75.0008 65.9121Z" fill="#C0DAF9"/>
<path d="M75.0005 122C74.9897 122 74.9753 122 74.9646 121.996L18.8671 110.221C18.7846 110.203 18.7236 110.132 18.7236 110.047V79.1405C18.7236 79.0871 18.7487 79.0373 18.7882 79.0016C18.8312 78.9696 18.885 78.9554 18.9388 78.966L64.9186 88.3411L74.8355 65.8416C74.8677 65.7633 74.9538 65.7206 75.0363 65.7384C75.1188 65.7562 75.1798 65.8274 75.1798 65.9129V121.821C75.1798 121.875 75.1547 121.925 75.1116 121.96C75.0829 121.985 75.0399 122 75.0005 122ZM19.0823 109.901L74.8211 121.601V66.7638L65.1912 88.6153C65.1589 88.6936 65.0764 88.7363 64.9903 88.7185L19.0823 79.3577V109.901Z" fill="#7FB4FF"/>
<path d="M18.903 79.3147C18.8025 79.3147 18.7236 79.2364 18.7236 79.1367V79.1331C18.7236 79.0334 18.8025 78.9551 18.903 78.9551C19.0034 78.9551 19.0823 79.0334 19.0823 79.1331C19.0823 79.2328 19.0034 79.3147 18.903 79.3147Z" fill="white"/>
<path d="M75.0003 42.498V65.9126L19.4014 54.248L75.0003 42.498Z" fill="#95C3E5"/>
<path d="M75 66.0909C74.9892 66.0909 74.9749 66.0909 74.9641 66.0873L19.3651 54.4228C19.2827 54.405 19.2217 54.3337 19.2217 54.2483C19.2217 54.1628 19.2827 54.0916 19.3651 54.0738L74.9641 42.3238C75.0179 42.3131 75.0717 42.3274 75.1147 42.3594C75.1578 42.3915 75.1829 42.4449 75.1829 42.4983V65.9128C75.1829 65.9662 75.1578 66.0161 75.1147 66.0517C75.0825 66.0766 75.0394 66.0909 75 66.0909ZM20.2654 54.2483L74.8206 65.6921V42.719L20.2654 54.2483Z" fill="#7FB4FF"/>
<path d="M50.1411 66.7109C60.9088 66.7109 69.6377 58.0452 69.6377 47.3555C69.6377 36.6657 60.9088 28 50.1411 28C39.3734 28 30.6445 36.6657 30.6445 47.3555C30.6445 58.0452 39.3734 66.7109 50.1411 66.7109Z" fill="white"/>
<path d="M60.506 41.6806C60.2872 41.289 59.7923 41.1501 59.3978 41.3637C59.0032 41.5809 58.8634 42.0723 59.0786 42.464C59.9107 43.9559 60.3518 45.6543 60.3518 47.3741C60.3518 52.9642 55.7682 57.5147 50.1373 57.5147C48.3691 57.5147 46.626 57.0589 45.0945 56.1972C44.7036 55.9765 44.2051 56.1118 43.9827 56.4999C43.7603 56.888 43.8966 57.3829 44.2876 57.6037C46.0629 58.6042 48.0822 59.1347 50.1337 59.1347C56.6648 59.1347 61.9765 53.8615 61.9765 47.3776C61.9837 45.3801 61.4708 43.4111 60.506 41.6806Z" fill="#0A68EB"/>
<path d="M61.6141 35.8197C61.2949 35.5028 60.782 35.5028 60.4628 35.8197L57.8231 38.4403C55.6819 36.6208 52.9848 35.6167 50.1407 35.6167C43.6096 35.6167 38.2979 40.89 38.2979 47.3739C38.2979 50.201 39.3093 52.875 41.142 55.0007L38.6637 57.4611C38.3445 57.778 38.3445 58.2871 38.6637 58.604C38.8215 58.7607 39.0295 58.8426 39.2411 58.8426C39.4491 58.8426 39.6572 58.7642 39.8186 58.604L61.6141 36.9627C61.9333 36.6458 61.9333 36.133 61.6141 35.8197ZM39.9262 47.3703C39.9262 41.7802 44.5062 37.2297 50.1407 37.2297C52.5509 37.2297 54.8391 38.0629 56.6718 39.5797L42.2969 53.8542C40.7654 52.0383 39.9262 49.7666 39.9262 47.3703Z" fill="#0A68EB"/>
</g>
<defs>
<clipPath id="clip0_152_48962">
<rect width="132" height="94" fill="white" transform="translate(9 28)"/>
</clipPath>
</defs>
</svg>
