<svg width="20" height="20" viewBox="0 0 20 20" fill="none" xmlns="http://www.w3.org/2000/svg">
<path d="M16.4468 13.1641L14.8452 11.5625L16.4468 9.96087C16.8675 9.54013 17.2013 9.04065 17.429 8.49094C17.6567 7.94122 17.7739 7.35204 17.7739 6.75704C17.7739 6.16203 17.6567 5.57285 17.429 5.02314C17.2013 4.47342 16.8675 3.97394 16.4468 3.55321C16.0261 3.13247 15.5266 2.79873 14.9769 2.57103C14.4272 2.34333 13.838 2.22614 13.243 2.22614C12.648 2.22614 12.0588 2.34333 11.5091 2.57103C10.9594 2.79873 10.4599 3.13247 10.0391 3.55321L8.4375 5.15484L6.83587 3.55321L8.4375 1.95158C9.71554 0.694193 11.4386 -0.00724391 13.2315 5.64186e-05C15.0244 0.00735675 16.7417 0.722802 18.0094 1.99055C19.2772 3.2583 19.9926 4.97564 19.9999 6.7685C20.0072 8.56135 19.3058 10.2845 18.0484 11.5625L16.4468 13.1641ZM13.2424 16.3685L11.6408 17.9702C11.0116 18.6097 10.262 19.1183 9.43526 19.4667C8.60852 19.815 7.72098 19.9963 6.82384 19.9999C5.92671 20.0036 5.03773 19.8296 4.20818 19.488C3.37863 19.1463 2.62493 18.6438 1.99055 18.0094C1.35618 17.3751 0.853679 16.6214 0.512046 15.7918C0.170412 14.9623 -0.00359671 14.0733 5.6346e-05 13.1762C0.0037094 12.279 0.184952 11.3915 0.53333 10.5647C0.881708 9.73801 1.39033 8.98842 2.02985 8.35923L3.63148 6.7576L5.23311 8.35923L3.63148 9.96087C3.21075 10.3816 2.877 10.8811 2.6493 11.4308C2.4216 11.9805 2.30441 12.5697 2.30441 13.1647C2.30441 13.7597 2.4216 14.3489 2.6493 14.8986C2.877 15.4483 3.21075 15.9478 3.63148 16.3685C4.05221 16.7893 4.55169 17.123 5.10141 17.3507C5.65112 17.5784 6.2403 17.6956 6.83531 17.6956C7.43031 17.6956 8.01949 17.5784 8.56921 17.3507C9.11892 17.123 9.6184 16.7893 10.0391 16.3685L11.6408 14.7669L13.2424 16.3685ZM13.2424 5.15484L14.8452 6.7576L6.83587 14.7658L5.23311 13.1641L13.2424 5.15597V5.15484Z" />
</svg>
