<svg width="16" height="16" viewBox="0 0 16 16" fill="none" xmlns="http://www.w3.org/2000/svg">
<g clip-path="url(#clip0_157_54449)">
<path d="M13.3335 11.334H14.6668V12.6673H1.3335V11.334H2.66683V6.66732C2.66683 5.25283 3.22873 3.89628 4.22893 2.89608C5.22912 1.89589 6.58567 1.33398 8.00016 1.33398C9.41465 1.33398 10.7712 1.89589 11.7714 2.89608C12.7716 3.89628 13.3335 5.25283 13.3335 6.66732V11.334ZM12.0002 11.334V6.66732C12.0002 5.60645 11.5787 4.58904 10.8286 3.83889C10.0784 3.08875 9.06103 2.66732 8.00016 2.66732C6.9393 2.66732 5.92188 3.08875 5.17174 3.83889C4.42159 4.58904 4.00016 5.60645 4.00016 6.66732V11.334H12.0002ZM6.00016 14.0007H10.0002V15.334H6.00016V14.0007Z"/>
</g>
<defs>
<clipPath id="clip0_157_54449">
<rect width="16" height="16"/>
</clipPath>
</defs>
</svg>
