<svg width="18" height="16" viewBox="0 0 18 16" fill="none" xmlns="http://www.w3.org/2000/svg">
<path d="M6.33257 0H11.6659L13.4437 1.77778H16.9992C17.235 1.77778 17.4611 1.87143 17.6278 2.03813C17.7945 2.20483 17.8881 2.43092 17.8881 2.66667V15.1111C17.8881 15.3469 17.7945 15.573 17.6278 15.7397C17.4611 15.9064 17.235 16 16.9992 16H0.999241C0.763493 16 0.5374 15.9064 0.370701 15.7397C0.204002 15.573 0.110352 15.3469 0.110352 15.1111V2.66667C0.110352 2.43092 0.204002 2.20483 0.370701 2.03813C0.5374 1.87143 0.763493 1.77778 0.999241 1.77778H4.5548L6.33257 0ZM8.99924 14.2222C10.4137 14.2222 11.7703 13.6603 12.7705 12.6601C13.7707 11.6599 14.3326 10.3034 14.3326 8.88889C14.3326 7.4744 13.7707 6.11785 12.7705 5.11765C11.7703 4.11746 10.4137 3.55556 8.99924 3.55556C7.58475 3.55556 6.2282 4.11746 5.228 5.11765C4.22781 6.11785 3.66591 7.4744 3.66591 8.88889C3.66591 10.3034 4.22781 11.6599 5.228 12.6601C6.2282 13.6603 7.58475 14.2222 8.99924 14.2222ZM8.99924 12.4444C8.05625 12.4444 7.15188 12.0698 6.48508 11.403C5.81829 10.7363 5.44369 9.83188 5.44369 8.88889C5.44369 7.9459 5.81829 7.04153 6.48508 6.37473C7.15188 5.70794 8.05625 5.33333 8.99924 5.33333C9.94223 5.33333 10.8466 5.70794 11.5134 6.37473C12.1802 7.04153 12.5548 7.9459 12.5548 8.88889C12.5548 9.83188 12.1802 10.7363 11.5134 11.403C10.8466 12.0698 9.94223 12.4444 8.99924 12.4444Z" fill="#787878"/>
</svg>
