<svg width="20" height="20" viewBox="0 0 20 20" fill="none" xmlns="http://www.w3.org/2000/svg">
<g clip-path="url(#clip0_656_5702)">
<path d="M5.00033 7.49984H16.6153L17.032 5.83317H6.66699V4.1665H18.1003C18.227 4.16651 18.352 4.19539 18.4658 4.25095C18.5797 4.30651 18.6793 4.3873 18.7573 4.48716C18.8352 4.58702 18.8893 4.70334 18.9156 4.82726C18.9418 4.95119 18.9394 5.07946 18.9087 5.20234L16.8253 13.5357C16.7802 13.7159 16.6761 13.8758 16.5297 13.9901C16.3832 14.1044 16.2028 14.1665 16.017 14.1665H4.16699C3.94598 14.1665 3.73402 14.0787 3.57774 13.9224C3.42146 13.7661 3.33366 13.5542 3.33366 13.3332V3.33317H1.66699V1.6665H4.16699C4.38801 1.6665 4.59997 1.7543 4.75625 1.91058C4.91253 2.06686 5.00033 2.27882 5.00033 2.49984V7.49984ZM5.00033 19.1665C4.5583 19.1665 4.13437 18.9909 3.82181 18.6783C3.50925 18.3658 3.33366 17.9419 3.33366 17.4998C3.33366 17.0578 3.50925 16.6339 3.82181 16.3213C4.13437 16.0088 4.5583 15.8332 5.00033 15.8332C5.44235 15.8332 5.86628 16.0088 6.17884 16.3213C6.4914 16.6339 6.66699 17.0578 6.66699 17.4998C6.66699 17.9419 6.4914 18.3658 6.17884 18.6783C5.86628 18.9909 5.44235 19.1665 5.00033 19.1665ZM15.0003 19.1665C14.5583 19.1665 14.1344 18.9909 13.8218 18.6783C13.5093 18.3658 13.3337 17.9419 13.3337 17.4998C13.3337 17.0578 13.5093 16.6339 13.8218 16.3213C14.1344 16.0088 14.5583 15.8332 15.0003 15.8332C15.4424 15.8332 15.8663 16.0088 16.1788 16.3213C16.4914 16.6339 16.667 17.0578 16.667 17.4998C16.667 17.9419 16.4914 18.3658 16.1788 18.6783C15.8663 18.9909 15.4424 19.1665 15.0003 19.1665Z" fill="white"/>
</g>
<defs>
<clipPath id="clip0_656_5702">
<rect width="20" height="20" fill="white"/>
</clipPath>
</defs>
</svg>
