<svg width="24" height="24" viewBox="0 0 24 24" fill="none" xmlns="http://www.w3.org/2000/svg">
<g clip-path="url(#clip0_182_9836)">
<path fill-rule="evenodd" clip-rule="evenodd" d="M0.756836 3.17281L3.99984 6.41481V18.0008C3.99984 18.266 4.10519 18.5204 4.29273 18.7079C4.48027 18.8955 4.73462 19.0008 4.99984 19.0008H16.9998V17.0008H5.99984V15.0008H18.2558C18.471 15.0008 18.6804 14.9315 18.853 14.803C19.0255 14.6746 19.1521 14.4939 19.2138 14.2878L21.6138 6.28781C21.6586 6.1385 21.6678 5.9808 21.6407 5.8273C21.6137 5.6738 21.5511 5.52874 21.4581 5.40371C21.365 5.27868 21.244 5.17713 21.1047 5.10718C20.9654 5.03723 20.8117 5.0008 20.6558 5.00081H5.41384L2.17184 1.75781L0.756836 3.17281ZM4.43918 22.5615C4.72048 22.8428 5.10201 23.0008 5.49984 23.0008C5.89766 23.0008 6.27919 22.8428 6.5605 22.5615C6.8418 22.2802 6.99984 21.8986 6.99984 21.5008C6.99984 21.103 6.8418 20.7215 6.5605 20.4402C6.27919 20.1588 5.89766 20.0008 5.49984 20.0008C5.10201 20.0008 4.72048 20.1588 4.43918 20.4402C4.15787 20.7215 3.99984 21.103 3.99984 21.5008C3.99984 21.8986 4.15787 22.2802 4.43918 22.5615ZM16.4392 22.5615C16.7205 22.8428 17.102 23.0008 17.4998 23.0008C17.8977 23.0008 18.2792 22.8428 18.5605 22.5615C18.8418 22.2802 18.9998 21.8986 18.9998 21.5008C18.9998 21.103 18.8418 20.7215 18.5605 20.4402C18.2792 20.1588 17.8977 20.0008 17.4998 20.0008C17.102 20.0008 16.7205 20.1588 16.4392 20.4402C16.1579 20.7215 15.9998 21.103 15.9998 21.5008C15.9998 21.8986 16.1579 22.2802 16.4392 22.5615ZM14.994 9.35412H12.6579V7H11.336V9.35412H9V10.6761H11.336V13H12.6579V10.6761H14.994V9.35412Z" />
</g>
<defs>
<clipPath id="clip0_182_9836">
<rect width="24" height="24" />
</clipPath>
</defs>
</svg>
