<svg width="16" height="16" viewBox="0 0 16 16" fill="none" xmlns="http://www.w3.org/2000/svg">
<g clip-path="url(#clip0_238_30120)">
<path d="M2.66688 4.27654L0.504883 2.11521L1.44822 1.17188L3.60955 3.33387H13.7709C13.8748 3.33387 13.9773 3.35815 14.0701 3.40479C14.163 3.45142 14.2437 3.51912 14.3057 3.60247C14.3678 3.68583 14.4095 3.78253 14.4275 3.88487C14.4455 3.9872 14.4394 4.09233 14.4095 4.19187L12.8095 9.52521C12.7684 9.6626 12.684 9.78305 12.569 9.86868C12.4539 9.95431 12.3143 10.0006 12.1709 10.0005H4.00022V11.3339H11.3335V12.6672H3.33355C3.15674 12.6672 2.98717 12.597 2.86214 12.4719C2.73712 12.3469 2.66688 12.1774 2.66688 12.0005V4.27654ZM4.00022 4.66721V8.66721H11.6749L12.8749 4.66721H4.00022ZM3.66688 15.3339C3.40167 15.3339 3.14731 15.2285 2.95978 15.041C2.77224 14.8534 2.66688 14.5991 2.66688 14.3339C2.66688 14.0687 2.77224 13.8143 2.95978 13.6268C3.14731 13.4392 3.40167 13.3339 3.66688 13.3339C3.9321 13.3339 4.18645 13.4392 4.37399 13.6268C4.56153 13.8143 4.66688 14.0687 4.66688 14.3339C4.66688 14.5991 4.56153 14.8534 4.37399 15.041C4.18645 15.2285 3.9321 15.3339 3.66688 15.3339ZM11.6669 15.3339C11.4017 15.3339 11.1473 15.2285 10.9598 15.041C10.7722 14.8534 10.6669 14.5991 10.6669 14.3339C10.6669 14.0687 10.7722 13.8143 10.9598 13.6268C11.1473 13.4392 11.4017 13.3339 11.6669 13.3339C11.9321 13.3339 12.1865 13.4392 12.374 13.6268C12.5615 13.8143 12.6669 14.0687 12.6669 14.3339C12.6669 14.5991 12.5615 14.8534 12.374 15.041C12.1865 15.2285 11.9321 15.3339 11.6669 15.3339Z"/>
</g>
<defs>
<clipPath id="clip0_238_30120">
<rect width="16" height="16"/>
</clipPath>
</defs>
</svg>
