<svg width="20" height="20" viewBox="0 0 20 20" fill="none" xmlns="http://www.w3.org/2000/svg">
<g clip-path="url(#clip0_182_9818)">
<path d="M5.37949 15.8333L1.66699 18.75V3.33333C1.66699 3.11232 1.75479 2.90036 1.91107 2.74408C2.06735 2.5878 2.27931 2.5 2.50033 2.5H17.5003C17.7213 2.5 17.9333 2.5878 18.0896 2.74408C18.2459 2.90036 18.3337 3.11232 18.3337 3.33333V15C18.3337 15.221 18.2459 15.433 18.0896 15.5893C17.9333 15.7455 17.7213 15.8333 17.5003 15.8333H5.37949ZM5.83366 8.33333V10H7.50033V8.33333H5.83366ZM9.16699 8.33333V10H10.8337V8.33333H9.16699ZM12.5003 8.33333V10H14.167V8.33333H12.5003Z"/>
</g>
<defs>
<clipPath id="clip0_182_9818">
<rect width="20" height="20"/>
</clipPath>
</defs>
</svg>
