<svg width="16" height="16" viewBox="0 0 16 16" fill="none" xmlns="http://www.w3.org/2000/svg">
<g clip-path="url(#clip0_238_30084)">
<path d="M8.00016 14.6654C4.31816 14.6654 1.3335 11.6807 1.3335 7.9987C1.3335 4.3167 4.31816 1.33203 8.00016 1.33203C11.6822 1.33203 14.6668 4.3167 14.6668 7.9987C14.6668 11.6807 11.6822 14.6654 8.00016 14.6654ZM8.00016 13.332C9.41465 13.332 10.7712 12.7701 11.7714 11.7699C12.7716 10.7697 13.3335 9.41319 13.3335 7.9987C13.3335 6.58421 12.7716 5.22766 11.7714 4.22746C10.7712 3.22727 9.41465 2.66536 8.00016 2.66536C6.58567 2.66536 5.22912 3.22727 4.22893 4.22746C3.22873 5.22766 2.66683 6.58421 2.66683 7.9987C2.66683 9.41319 3.22873 10.7697 4.22893 11.7699C5.22912 12.7701 6.58567 13.332 8.00016 13.332ZM8.66683 7.9987H11.3335V9.33203H7.3335V4.66536H8.66683V7.9987Z"/>
</g>
<defs>
<clipPath id="clip0_238_30084">
<rect width="16" height="16"/>
</clipPath>
</defs>
</svg>
