<svg width="18" height="17" viewBox="0 0 18 17" fill="none" xmlns="http://www.w3.org/2000/svg">
<path d="M4.37949 13.8333L0.666992 16.75V1.33333C0.666992 1.11232 0.75479 0.900358 0.91107 0.744078C1.06735 0.587797 1.27931 0.5 1.50033 0.5H16.5003C16.7213 0.5 16.9333 0.587797 17.0896 0.744078C17.2459 0.900358 17.3337 1.11232 17.3337 1.33333V13C17.3337 13.221 17.2459 13.433 17.0896 13.5893C16.9333 13.7455 16.7213 13.8333 16.5003 13.8333H4.37949ZM4.83366 6.33333C4.83366 7.4384 5.27265 8.49821 6.05405 9.27961C6.83545 10.061 7.89526 10.5 9.00033 10.5C10.1054 10.5 11.1652 10.061 11.9466 9.27961C12.728 8.49821 13.167 7.4384 13.167 6.33333H11.5003C11.5003 6.99637 11.2369 7.63226 10.7681 8.1011C10.2993 8.56994 9.66337 8.83333 9.00033 8.83333C8.33728 8.83333 7.7014 8.56994 7.23256 8.1011C6.76372 7.63226 6.50033 6.99637 6.50033 6.33333H4.83366Z" />
</svg>
