<svg width="20" height="20" viewBox="0 0 20 20" fill="none" xmlns="http://www.w3.org/2000/svg">
<path fill-rule="evenodd" clip-rule="evenodd" d="M12.5037 0.801293C12.3796 0.607211 12.1806 0.473185 11.9541 0.431051C11.7276 0.388917 11.4938 0.442434 11.3081 0.578892L4.72656 5.41699H3.33334C3.0974 5.41699 2.87252 5.517 2.71451 5.69221C2.55649 5.86741 2.48015 6.10139 2.50443 6.33607L3.75443 18.4194C3.79837 18.8442 4.1563 19.167 4.58334 19.167H15.4167C15.8437 19.167 16.2016 18.8442 16.2456 18.4194L17.4956 6.33607C17.5199 6.10139 17.4435 5.86741 17.2855 5.69221C17.1275 5.517 16.9026 5.41699 16.6667 5.41699H15.4561L12.5037 0.801293ZM13.4777 5.41699L11.5788 2.44842L7.54051 5.41699H13.4777ZM8.33415 9.58447C8.79438 9.58447 9.16748 9.95757 9.16748 10.4178V14.5846C9.16748 15.0448 8.79438 15.4179 8.33415 15.4179C7.87391 15.4179 7.50081 15.0448 7.50081 14.5846V10.4178C7.50081 9.95757 7.87391 9.58447 8.33415 9.58447ZM12.501 10.4166C12.501 9.95635 12.1279 9.58325 11.6677 9.58325C11.2074 9.58325 10.8344 9.95635 10.8344 10.4166V14.5823C10.8344 15.0425 11.2074 15.4156 11.6677 15.4156C12.1279 15.4156 12.501 15.0425 12.501 14.5823V10.4166Z"/>
</svg>
