<svg width="16" height="16" viewBox="0 0 16 16" fill="none" xmlns="http://www.w3.org/2000/svg">
<path fill-rule="evenodd" clip-rule="evenodd" d="M0.666992 7.99984C0.666992 3.94975 3.95024 0.666504 8.00033 0.666504C12.0504 0.666504 15.3337 3.94975 15.3337 7.99984C15.3337 12.0499 12.0504 15.3332 8.00033 15.3332C3.95024 15.3332 0.666992 12.0499 0.666992 7.99984ZM5.77305 13.5728C5.21141 13.3482 4.69166 13.0411 4.22875 12.6665C4.52478 12.4269 4.84396 12.215 5.18244 12.0345C5.27575 12.3634 5.38051 12.6735 5.49572 12.9615C5.58099 13.1746 5.67338 13.3793 5.77305 13.5728ZM6.42929 11.5408C6.51947 11.8763 6.62166 12.1862 6.73369 12.4663C6.95638 13.023 7.20488 13.4288 7.4467 13.6845C7.6872 13.9388 7.87451 13.9998 8.00033 13.9998C8.12614 13.9998 8.31345 13.9388 8.55395 13.6845C8.79577 13.4288 9.04427 13.023 9.26696 12.4663C9.37899 12.1862 9.48118 11.8763 9.57136 11.5408C9.07068 11.4054 8.54401 11.3332 8.00033 11.3332C7.45665 11.3332 6.92997 11.4054 6.42929 11.5408ZM9.84005 10.2326C9.2521 10.0807 8.6356 9.99984 8.00033 9.99984C7.36506 9.99984 6.74855 10.0807 6.1606 10.2327C6.08704 9.74007 6.03673 9.21511 6.01403 8.6665H9.98662C9.96392 9.21511 9.91361 9.74006 9.84005 10.2326ZM10.8182 12.0345C10.7249 12.3634 10.6201 12.6735 10.5049 12.9615C10.4197 13.1746 10.3273 13.3793 10.2276 13.5728C10.7892 13.3482 11.309 13.0411 11.7719 12.6665C11.4759 12.4269 11.1567 12.2149 10.8182 12.0345ZM12.7127 11.7142C12.2299 11.3089 11.694 10.9646 11.1169 10.6933C11.2242 10.0554 11.294 9.37429 11.321 8.6665H13.9637C13.8373 9.81001 13.3895 10.8567 12.7127 11.7142ZM13.9637 7.33317C13.8373 6.18966 13.3895 5.143 12.7127 4.28551C12.2299 4.69075 11.694 5.03503 11.1169 5.30636C11.2242 5.94428 11.294 6.62539 11.321 7.33317H13.9637ZM9.98662 7.33317C9.96392 6.78457 9.91361 6.25961 9.84005 5.76702C9.2521 5.91897 8.6356 5.99984 8.00033 5.99984C7.36506 5.99984 6.74855 5.91897 6.1606 5.76702C6.08704 6.25961 6.03673 6.78456 6.01403 7.33317H9.98662ZM4.67966 7.33317C4.70668 6.62538 4.77642 5.94427 4.88375 5.30635C4.30665 5.03502 3.77071 4.69074 3.28794 4.28549C2.61112 5.14299 2.16335 6.18965 2.03694 7.33317H4.67966ZM2.03694 8.6665C2.16335 9.81002 2.61112 10.8567 3.28794 11.7142C3.77071 11.3089 4.30665 10.9647 4.88375 10.6933C4.77642 10.0554 4.70668 9.37429 4.67966 8.6665H2.03694ZM4.22875 3.33318C4.52478 3.57278 4.84396 3.78472 5.18244 3.96513C5.27575 3.63628 5.38051 3.32621 5.49572 3.0382C5.58099 2.82503 5.67338 2.62039 5.77305 2.42683C5.21141 2.65149 4.69166 2.9586 4.22875 3.33318ZM8.00033 1.99984C7.87451 1.99984 7.6872 2.06084 7.4467 2.31514C7.20488 2.57085 6.95638 2.97665 6.73369 3.53338C6.62166 3.81345 6.51947 4.12339 6.42929 4.45886C6.92997 4.59428 7.45665 4.6665 8.00033 4.6665C8.54401 4.6665 9.07068 4.59429 9.57136 4.45886C9.48118 4.12339 9.37899 3.81345 9.26696 3.53338C9.04427 2.97665 8.79577 2.57085 8.55395 2.31514C8.31345 2.06084 8.12614 1.99984 8.00033 1.99984ZM10.8182 3.96515C11.1567 3.78474 11.4759 3.57279 11.7719 3.3332C11.309 2.95861 10.7892 2.6515 10.2276 2.42683C10.3273 2.62039 10.4197 2.82503 10.5049 3.0382C10.6201 3.32622 10.7249 3.63629 10.8182 3.96515Z" fill="#F9F9F9"/>
</svg>
