<svg width="16" height="16" viewBox="0 0 16 16" fill="none" xmlns="http://www.w3.org/2000/svg">
<g clip-path="url(#clip0_441_16635)">
<path d="M11.9211 12.8657C10.7486 13.6094 9.38827 14.0032 7.99978 14.001C4.40511 14.001 1.41444 11.4144 0.787109 8.00102C1.0738 6.44817 1.85486 5.02962 3.01378 3.95702L0.927776 1.87302L1.87111 0.929688L15.0704 14.1297L14.1271 15.0724L11.9204 12.8657H11.9211ZM3.95644 4.90102C3.05045 5.72475 2.41932 6.80688 2.14844 8.00102C2.35664 8.91199 2.77462 9.76178 3.36911 10.4827C3.9636 11.2037 4.71819 11.7759 5.57281 12.1539C6.42743 12.5318 7.35847 12.7051 8.29184 12.6598C9.2252 12.6145 10.1351 12.3519 10.9491 11.893L9.59711 10.541C9.02157 10.9036 8.33991 11.0598 7.66393 10.984C6.98796 10.9082 6.3578 10.605 5.87682 10.124C5.39584 9.64299 5.09259 9.01284 5.01682 8.33686C4.94104 7.66089 5.09723 6.97923 5.45978 6.40369L3.95644 4.90102ZM8.60911 9.55302L6.44778 7.39169C6.32915 7.69364 6.30123 8.02366 6.36745 8.34125C6.43366 8.65884 6.59112 8.95021 6.82052 9.17961C7.04992 9.40901 7.34129 9.56647 7.65888 9.63268C7.97647 9.6989 8.30649 9.67098 8.60844 9.55235L8.60911 9.55302ZM13.8711 11.0624L12.9171 10.109C13.3628 9.47389 13.68 8.75781 13.8511 8.00102C13.6699 7.2075 13.3293 6.45912 12.8499 5.80135C12.3705 5.14358 11.7623 4.59017 11.0624 4.17476C10.3624 3.75934 9.58531 3.4906 8.77826 3.38486C7.97123 3.27913 7.15111 3.33861 6.36778 3.55969L5.31578 2.50769C6.14711 2.18102 7.05311 2.00102 7.99978 2.00102C11.5944 2.00102 14.5851 4.58769 15.2124 8.00102C15.0082 9.11149 14.549 10.1594 13.8711 11.0624ZM7.81511 5.00635C8.23945 4.98013 8.66452 5.0444 9.06214 5.1949C9.45976 5.3454 9.82085 5.57869 10.1215 5.87932C10.4221 6.17995 10.6554 6.54104 10.8059 6.93866C10.9564 7.33628 11.0207 7.76135 10.9944 8.18569L7.81444 5.00635H7.81511Z" />
</g>
<defs>
<clipPath id="clip0_441_16635">
<rect width="16" height="16" />
</clipPath>
</defs>
</svg>
