<svg width="16" height="16" viewBox="0 0 16 16" fill="none" xmlns="http://www.w3.org/2000/svg">
<g clip-path="url(#clip0_157_54446)">
<path d="M12.6668 14.6673H3.3335C2.80306 14.6673 2.29436 14.4566 1.91928 14.0815C1.54421 13.7065 1.3335 13.1977 1.3335 12.6673V2.00065C1.3335 1.82384 1.40373 1.65427 1.52876 1.52925C1.65378 1.40422 1.82335 1.33398 2.00016 1.33398H11.3335C11.5103 1.33398 11.6799 1.40422 11.8049 1.52925C11.9299 1.65427 12.0002 1.82384 12.0002 2.00065V10.0007H14.6668V12.6673C14.6668 13.1977 14.4561 13.7065 14.081 14.0815C13.706 14.4566 13.1973 14.6673 12.6668 14.6673ZM12.0002 11.334V12.6673C12.0002 12.8441 12.0704 13.0137 12.1954 13.1387C12.3204 13.2637 12.49 13.334 12.6668 13.334C12.8436 13.334 13.0132 13.2637 13.1382 13.1387C13.2633 13.0137 13.3335 12.8441 13.3335 12.6673V11.334H12.0002ZM10.6668 13.334V2.66732H2.66683V12.6673C2.66683 12.8441 2.73707 13.0137 2.86209 13.1387C2.98712 13.2637 3.15668 13.334 3.3335 13.334H10.6668ZM4.00016 4.66732H9.3335V6.00065H4.00016V4.66732ZM4.00016 7.33398H9.3335V8.66732H4.00016V7.33398ZM4.00016 10.0007H7.3335V11.334H4.00016V10.0007Z"/>
</g>
<defs>
<clipPath id="clip0_157_54446">
<rect width="16" height="16"/>
</clipPath>
</defs>
</svg>
