<svg width="16" height="16" viewBox="0 0 16 16" fill="none" xmlns="http://www.w3.org/2000/svg">
<g clip-path="url(#clip0_240_16277)">
<path d="M13.3333 14.6654H2.66667C2.48986 14.6654 2.32029 14.5951 2.19526 14.4701C2.07024 14.3451 2 14.1755 2 13.9987V1.9987C2 1.82189 2.07024 1.65232 2.19526 1.52729C2.32029 1.40227 2.48986 1.33203 2.66667 1.33203H13.3333C13.5101 1.33203 13.6797 1.40227 13.8047 1.52729C13.9298 1.65232 14 1.82189 14 1.9987V13.9987C14 14.1755 13.9298 14.3451 13.8047 14.4701C13.6797 14.5951 13.5101 14.6654 13.3333 14.6654ZM5.33333 5.9987V7.33203H10.6667V5.9987H5.33333ZM5.33333 8.66536V9.9987H10.6667V8.66536H5.33333Z" />
</g>
<defs>
<clipPath id="clip0_240_16277">
<rect width="16" height="16" />
</clipPath>
</defs>
</svg>
