<svg width="12" height="13" viewBox="0 0 12 13" fill="none" xmlns="http://www.w3.org/2000/svg">
<path d="M0 0H6.25467C6.37844 6.60991e-05 6.49975 0.0345888 6.60502 0.0997016C6.71028 0.164814 6.79534 0.257946 6.85067 0.368667L7.33333 1.33333H11.3333C11.5101 1.33333 11.6797 1.40357 11.8047 1.5286C11.9298 1.65362 12 1.82319 12 2V9.33333C12 9.51014 11.9298 9.67971 11.8047 9.80474C11.6797 9.92976 11.5101 10 11.3333 10H7.07867C6.95489 9.99993 6.83358 9.96541 6.72832 9.9003C6.62305 9.83519 6.53799 9.74205 6.48267 9.63133L6 8.66667H1.33333V12.6667H0V0Z"/>
</svg>
