<svg width="12" height="12" viewBox="0 0 12 12" fill="none" xmlns="http://www.w3.org/2000/svg">
<g clip-path="url(#clip0_238_30088)">
<path d="M1.67015 8.50089C1.45879 8.13538 1.29448 7.74461 1.18115 7.33789C1.42781 7.21244 1.63495 7.0212 1.77967 6.78534C1.92438 6.54947 2.00103 6.27817 2.00114 6.00144C2.00124 5.72472 1.92479 5.45336 1.78025 5.21739C1.63571 4.98141 1.42871 4.79002 1.18215 4.66439C1.40817 3.84713 1.83852 3.10086 2.43265 2.49589C2.6647 2.64675 2.93396 2.73047 3.21064 2.73778C3.48732 2.74509 3.76063 2.6757 4.00032 2.5373C4.24001 2.3989 4.43673 2.19689 4.56872 1.95361C4.7007 1.71033 4.76281 1.43528 4.74815 1.15889C5.56921 0.946699 6.43077 0.947043 7.25165 1.15989C7.23713 1.43627 7.29935 1.71128 7.43144 1.95449C7.56353 2.1977 7.76033 2.39963 8.00007 2.53792C8.2398 2.67621 8.51312 2.74548 8.78979 2.73806C9.06645 2.73065 9.33567 2.64683 9.56765 2.49589C9.85715 2.79089 10.1142 3.12639 10.3302 3.50089C10.5467 3.87539 10.7087 4.26589 10.8192 4.66389C10.5725 4.78934 10.3654 4.98057 10.2206 5.21644C10.0759 5.45231 9.99927 5.72361 9.99917 6.00033C9.99906 6.27705 10.0755 6.54841 10.2201 6.78439C10.3646 7.02036 10.5716 7.21175 10.8182 7.33739C10.5921 8.15464 10.1618 8.90091 9.56765 9.50589C9.33561 9.35503 9.06634 9.27131 8.78966 9.264C8.51298 9.25669 8.23968 9.32607 7.99999 9.46447C7.7603 9.60287 7.56358 9.80489 7.43159 10.0482C7.2996 10.2914 7.2375 10.5665 7.25215 10.8429C6.4311 11.0551 5.56954 11.0547 4.74865 10.8419C4.76318 10.5655 4.70095 10.2905 4.56886 10.0473C4.43677 9.80407 4.23997 9.60215 4.00024 9.46386C3.7605 9.32556 3.48718 9.25629 3.21052 9.26371C2.93385 9.27113 2.66463 9.35495 2.43265 9.50589C2.13715 9.20436 1.88095 8.86668 1.67015 8.50089ZM4.50015 8.59889C5.03297 8.9062 5.43358 9.3994 5.62515 9.98389C5.87465 10.0074 6.12515 10.0079 6.37465 9.98439C6.56635 9.39981 6.96715 8.90661 7.50015 8.59939C8.03276 8.29123 8.66041 8.19063 9.26265 8.31689C9.40765 8.11289 9.53265 7.89539 9.63665 7.66789C9.22637 7.20961 8.99971 6.61599 9.00015 6.00089C9.00015 5.37089 9.23515 4.78239 9.63665 4.33389C9.53192 4.10646 9.40638 3.8892 9.26165 3.68489C8.65979 3.81104 8.03255 3.71063 7.50015 3.40289C6.96734 3.09557 6.56673 2.60238 6.37515 2.01789C6.12565 1.99439 5.87515 1.99389 5.62565 2.01739C5.43395 2.60196 5.03315 3.09517 4.50015 3.40239C3.96754 3.71055 3.33989 3.81115 2.73765 3.68489C2.59294 3.88903 2.46772 4.10632 2.36365 4.33389C2.77394 4.79217 3.00059 5.38578 3.00015 6.00089C3.00015 6.63089 2.76515 7.21939 2.36365 7.66789C2.46839 7.89531 2.59392 8.11257 2.73865 8.31689C3.34051 8.19073 3.96776 8.29115 4.50015 8.59889ZM6.00015 7.50089C5.60233 7.50089 5.2208 7.34285 4.93949 7.06155C4.65819 6.78024 4.50015 6.39871 4.50015 6.00089C4.50015 5.60306 4.65819 5.22153 4.93949 4.94023C5.2208 4.65892 5.60233 4.50089 6.00015 4.50089C6.39798 4.50089 6.77951 4.65892 7.06081 4.94023C7.34212 5.22153 7.50015 5.60306 7.50015 6.00089C7.50015 6.39871 7.34212 6.78024 7.06081 7.06155C6.77951 7.34285 6.39798 7.50089 6.00015 7.50089ZM6.00015 6.50089C6.13276 6.50089 6.25994 6.44821 6.35371 6.35444C6.44747 6.26067 6.50015 6.1335 6.50015 6.00089C6.50015 5.86828 6.44747 5.7411 6.35371 5.64733C6.25994 5.55357 6.13276 5.50089 6.00015 5.50089C5.86754 5.50089 5.74037 5.55357 5.6466 5.64733C5.55283 5.7411 5.50015 5.86828 5.50015 6.00089C5.50015 6.1335 5.55283 6.26067 5.6466 6.35444C5.74037 6.44821 5.86754 6.50089 6.00015 6.50089Z"/>
</g>
<defs>
<clipPath id="clip0_238_30088">
<rect width="12" height="12" />
</clipPath>
</defs>
</svg>
