<svg width="16" height="16" viewBox="0 0 16 16" fill="none" xmlns="http://www.w3.org/2000/svg">
<g clip-path="url(#clip0_238_30174)">
<path d="M8.00016 2.66536C6.58567 2.66536 5.22912 3.22727 4.22893 4.22746C3.22873 5.22766 2.66683 6.58421 2.66683 7.9987H4.66683C5.02045 7.9987 5.35959 8.13917 5.60964 8.38922C5.85969 8.63927 6.00016 8.97841 6.00016 9.33203V12.6654C6.00016 13.019 5.85969 13.3581 5.60964 13.6082C5.35959 13.8582 5.02045 13.9987 4.66683 13.9987H2.66683C2.31321 13.9987 1.97407 13.8582 1.72402 13.6082C1.47397 13.3581 1.3335 13.019 1.3335 12.6654V7.9987C1.3335 4.3167 4.31816 1.33203 8.00016 1.33203C11.6822 1.33203 14.6668 4.3167 14.6668 7.9987V12.6654C14.6668 13.019 14.5264 13.3581 14.2763 13.6082C14.0263 13.8582 13.6871 13.9987 13.3335 13.9987H11.3335C10.9799 13.9987 10.6407 13.8582 10.3907 13.6082C10.1406 13.3581 10.0002 13.019 10.0002 12.6654V9.33203C10.0002 8.97841 10.1406 8.63927 10.3907 8.38922C10.6407 8.13917 10.9799 7.9987 11.3335 7.9987H13.3335C13.3335 6.58421 12.7716 5.22766 11.7714 4.22746C10.7712 3.22727 9.41465 2.66536 8.00016 2.66536ZM2.66683 9.33203V12.6654H4.66683V9.33203H2.66683ZM11.3335 9.33203V12.6654H13.3335V9.33203H11.3335Z"/>
</g>
<defs>
<clipPath id="clip0_238_30174">
<rect width="16" height="16"/>
</clipPath>
</defs>
</svg>
