<svg width="16" height="16" viewBox="0 0 16 16" fill="none" xmlns="http://www.w3.org/2000/svg">
<g clip-path="url(#clip0_157_54402)">
<path d="M12.6665 13.9993H3.33317C3.15636 13.9993 2.98679 13.9291 2.86177 13.804C2.73674 13.679 2.6665 13.5094 2.6665 13.3326V7.33263H0.666504L7.55117 1.07396C7.67391 0.962281 7.83389 0.900391 7.99984 0.900391C8.16578 0.900391 8.32576 0.962281 8.4485 1.07396L15.3332 7.33263H13.3332V13.3326C13.3332 13.5094 13.2629 13.679 13.1379 13.804C13.0129 13.9291 12.8433 13.9993 12.6665 13.9993ZM3.99984 12.666H11.9998V6.10396L7.99984 2.46796L3.99984 6.10396V12.666Z"/>
</g>
<defs>
<clipPath id="clip0_157_54402">
<rect width="16" height="16"/>
</clipPath>
</defs>
</svg>
