<svg width="20" height="20" viewBox="0 0 20 20" fill="none" xmlns="http://www.w3.org/2000/svg">
<path d="M0.833008 2.50016C0.833008 1.57969 1.5792 0.833496 2.49967 0.833496H7.49967C8.42015 0.833496 9.16634 1.57969 9.16634 2.50016V7.50016C9.16634 8.42064 8.42015 9.16683 7.49967 9.16683H2.49967C1.5792 9.16683 0.833008 8.42064 0.833008 7.50016V2.50016Z" fill="white"/>
<path d="M0.833008 12.5002C0.833008 11.5797 1.5792 10.8335 2.49967 10.8335H7.49967C8.42015 10.8335 9.16634 11.5797 9.16634 12.5002V17.5002C9.16634 18.4206 8.42015 19.1668 7.49967 19.1668H2.49967C1.5792 19.1668 0.833008 18.4206 0.833008 17.5002V12.5002Z" fill="white"/>
<path d="M10.833 2.50016C10.833 1.57969 11.5792 0.833496 12.4997 0.833496H17.4997C18.4201 0.833496 19.1663 1.57969 19.1663 2.50016V7.50016C19.1663 8.42064 18.4201 9.16683 17.4997 9.16683H12.4997C11.5792 9.16683 10.833 8.42064 10.833 7.50016V2.50016Z" fill="white"/>
<path d="M11.6663 10.8335C11.2061 10.8335 10.833 11.2066 10.833 11.6668C10.833 12.1271 11.2061 12.5002 11.6663 12.5002H18.333C18.7932 12.5002 19.1663 12.1271 19.1663 11.6668C19.1663 11.2066 18.7932 10.8335 18.333 10.8335H11.6663Z" fill="white"/>
<path d="M14.9997 14.1668C14.5394 14.1668 14.1663 14.5399 14.1663 15.0002C14.1663 15.4604 14.5394 15.8335 14.9997 15.8335H18.333C18.7932 15.8335 19.1663 15.4604 19.1663 15.0002C19.1663 14.5399 18.7932 14.1668 18.333 14.1668H14.9997Z" fill="white"/>
<path d="M10.833 18.3335C10.833 17.8733 11.2061 17.5002 11.6663 17.5002H18.333C18.7932 17.5002 19.1663 17.8733 19.1663 18.3335C19.1663 18.7937 18.7932 19.1668 18.333 19.1668H11.6663C11.2061 19.1668 10.833 18.7937 10.833 18.3335Z" fill="white"/>
</svg>
