<svg width="14" height="14" viewBox="0 0 14 14" fill="none" xmlns="http://www.w3.org/2000/svg">
<path d="M6.99967 13.6693C3.31767 13.6693 0.333008 10.6846 0.333008 7.0026C0.333008 3.3206 3.31767 0.335938 6.99967 0.335938C10.6817 0.335938 13.6663 3.3206 13.6663 7.0026C13.6663 10.6846 10.6817 13.6693 6.99967 13.6693ZM6.33301 9.0026V10.3359H7.66634V9.0026H6.33301ZM7.66634 7.90594C8.20212 7.74445 8.66208 7.39591 8.96245 6.92377C9.26281 6.45163 9.38361 5.88731 9.30283 5.33358C9.22205 4.77986 8.94508 4.27356 8.52235 3.90691C8.09962 3.54025 7.55926 3.33763 6.99967 3.33594C6.46024 3.3359 5.93745 3.52271 5.5202 3.8646C5.10295 4.20649 4.81701 4.68236 4.71101 5.21127L6.01901 5.47327C6.05613 5.28756 6.14522 5.1162 6.27592 4.97915C6.40662 4.84209 6.57355 4.74497 6.75729 4.69907C6.94103 4.65318 7.13403 4.66041 7.31382 4.71992C7.49362 4.77942 7.65281 4.88876 7.7729 5.03521C7.89298 5.18166 7.969 5.3592 7.99213 5.54717C8.01525 5.73513 7.98453 5.92581 7.90352 6.09699C7.82252 6.26818 7.69457 6.41285 7.53456 6.51416C7.37455 6.61547 7.18906 6.66926 6.99967 6.66927C6.82286 6.66927 6.65329 6.73951 6.52827 6.86453C6.40325 6.98956 6.33301 7.15913 6.33301 7.33594V8.33594H7.66634V7.90594Z" />
</svg>
