<svg width="50" height="50" viewBox="0 0 50 50" fill="none" xmlns="http://www.w3.org/2000/svg">
<g clip-path="url(#clip0_175_8206)">
<path d="M8.33374 33.3333H41.6671V10.4167H8.33374V33.3333ZM27.0837 37.5V41.6667H35.4171V45.8333H14.5837V41.6667H22.9171V37.5H6.23374C5.96017 37.4984 5.68961 37.4428 5.43757 37.3364C5.18553 37.23 4.95697 37.0749 4.76498 36.88C4.57299 36.6851 4.42134 36.4542 4.31875 36.2006C4.21615 35.947 4.16461 35.6756 4.16708 35.4021V8.34792C4.16708 7.18958 5.11499 6.25 6.23374 6.25H43.7671C44.9087 6.25 45.8337 7.18542 45.8337 8.34792V35.4021C45.8337 36.5604 44.8858 37.5 43.7671 37.5H27.0837Z" fill="#262626"/>
</g>
<defs>
<clipPath id="clip0_175_8206">
<rect width="50" height="50" fill="white"/>
</clipPath>
</defs>
</svg>
