<svg width="50" height="50" viewBox="0 0 50 50" fill="none" xmlns="http://www.w3.org/2000/svg">
<g clip-path="url(#clip0_175_8248)">
<path d="M22.4127 24.6411L38.7648 8.28906L41.7106 11.2349L38.7648 14.1828L43.9189 19.337L40.9731 22.2849L35.8168 17.1286L32.871 20.0745L37.2898 24.4932L34.3439 27.4411L29.9252 23.0203L25.3585 27.587C26.7761 29.7411 27.3447 32.3444 26.9542 34.8935C26.5637 37.4425 25.2419 39.7562 23.2445 41.3873C21.247 43.0183 18.7158 43.8508 16.1401 43.7237C13.5645 43.5967 11.1274 42.5191 9.30018 40.6995C7.46899 38.8752 6.38149 36.4351 6.24904 33.8537C6.1166 31.2722 6.94867 28.7338 8.58354 26.7316C10.2184 24.7294 12.5393 23.4066 15.0951 23.0203C17.6509 22.634 20.2591 23.2117 22.4127 24.6411ZM21.0856 37.7516C21.6925 37.1775 22.1782 36.4876 22.5139 35.7226C22.8496 34.9577 23.0286 34.1332 23.0402 33.2979C23.0518 32.4626 22.8958 31.6334 22.5815 30.8594C22.2672 30.0854 21.8009 29.3823 21.2102 28.7915C20.6195 28.2008 19.9164 27.7345 19.1424 27.4202C18.3683 27.1059 17.5392 26.9499 16.7039 26.9616C15.8686 26.9732 15.0441 27.1521 14.2791 27.4879C13.5141 27.8236 12.8242 28.3092 12.2502 28.9161C11.1117 30.0949 10.4817 31.6737 10.496 33.3124C10.5102 34.9511 11.1675 36.5187 12.3263 37.6775C13.4851 38.8363 15.0527 39.4936 16.6914 39.5079C18.3302 39.5221 19.9089 38.8921 21.0877 37.7536L21.0856 37.7516Z" fill="black"/>
</g>
<defs>
<clipPath id="clip0_175_8248">
<rect width="50" height="50" fill="white"/>
</clipPath>
</defs>
</svg>
