<svg width="50" height="50" viewBox="0 0 50 50" fill="none" xmlns="http://www.w3.org/2000/svg">
<g clip-path="url(#clip0_175_8218)">
<path d="M14.5837 8.33268V41.666H35.417V8.33268H14.5837ZM12.5003 4.16602H37.5003C38.0529 4.16602 38.5828 4.38551 38.9735 4.77621C39.3642 5.16691 39.5837 5.69681 39.5837 6.24935V43.7494C39.5837 44.3019 39.3642 44.8318 38.9735 45.2225C38.5828 45.6132 38.0529 45.8327 37.5003 45.8327H12.5003C11.9478 45.8327 11.4179 45.6132 11.0272 45.2225C10.6365 44.8318 10.417 44.3019 10.417 43.7494V6.24935C10.417 5.69681 10.6365 5.16691 11.0272 4.77621C11.4179 4.38551 11.9478 4.16602 12.5003 4.16602ZM25.0003 35.416C25.5529 35.416 26.0828 35.6355 26.4735 36.0262C26.8642 36.4169 27.0837 36.9468 27.0837 37.4994C27.0837 38.0519 26.8642 38.5818 26.4735 38.9725C26.0828 39.3632 25.5529 39.5827 25.0003 39.5827C24.4478 39.5827 23.9179 39.3632 23.5272 38.9725C23.1365 38.5818 22.917 38.0519 22.917 37.4994C22.917 36.9468 23.1365 36.4169 23.5272 36.0262C23.9179 35.6355 24.4478 35.416 25.0003 35.416Z" fill="#262626"/>
</g>
<defs>
<clipPath id="clip0_175_8218">
<rect width="50" height="50" fill="white"/>
</clipPath>
</defs>
</svg>
