<svg width="16" height="16" viewBox="0 0 16 16" xmlns="http://www.w3.org/2000/svg">
<path fill-rule="evenodd" clip-rule="evenodd" d="M0.333008 1.99967C0.333008 1.63148 0.631485 1.33301 0.999674 1.33301H2.16634C2.47225 1.33301 2.73891 1.54121 2.8131 1.83798L3.18686 3.33301H14.6663C14.8716 3.33301 15.0655 3.42759 15.1918 3.5894C15.3181 3.75121 15.3629 3.9622 15.3131 4.16137L13.6464 10.828C13.5722 11.1248 13.3056 11.333 12.9997 11.333H4.33301C4.0271 11.333 3.76044 11.1248 3.68625 10.828L1.64582 2.66634H0.999674C0.631485 2.66634 0.333008 2.36786 0.333008 1.99967ZM4.33301 11.333C3.41253 11.333 2.66634 12.0792 2.66634 12.9997C2.66634 13.9201 3.41253 14.6663 4.33301 14.6663C5.25348 14.6663 5.99967 13.9201 5.99967 12.9997C5.99967 12.0792 5.25348 11.333 4.33301 11.333ZM12.9997 11.333C12.0792 11.333 11.333 12.0792 11.333 12.9997C11.333 13.9201 12.0792 14.6663 12.9997 14.6663C13.9201 14.6663 14.6663 13.9201 14.6663 12.9997C14.6663 12.0792 13.9201 11.333 12.9997 11.333ZM3.52019 4.66634L4.85353 9.99967H12.4792L13.8125 4.66634H3.52019ZM8.66634 5.33301C9.03453 5.33301 9.33301 5.63148 9.33301 5.99967V6.66634H9.99967C10.3679 6.66634 10.6663 6.96482 10.6663 7.33301C10.6663 7.7012 10.3679 7.99967 9.99967 7.99967H9.33301V8.66634C9.33301 9.03453 9.03453 9.33301 8.66634 9.33301C8.29815 9.33301 7.99967 9.03453 7.99967 8.66634V7.99967H7.33301C6.96482 7.99967 6.66634 7.7012 6.66634 7.33301C6.66634 6.96482 6.96482 6.66634 7.33301 6.66634H7.99967V5.99967C7.99967 5.63148 8.29815 5.33301 8.66634 5.33301ZM4.33301 12.6663C4.14891 12.6663 3.99967 12.8156 3.99967 12.9997C3.99967 13.1838 4.14891 13.333 4.33301 13.333C4.5171 13.333 4.66634 13.1838 4.66634 12.9997C4.66634 12.8156 4.5171 12.6663 4.33301 12.6663ZM12.9997 12.6663C12.8156 12.6663 12.6663 12.8156 12.6663 12.9997C12.6663 13.1838 12.8156 13.333 12.9997 13.333C13.1838 13.333 13.333 13.1838 13.333 12.9997C13.333 12.8156 13.1838 12.6663 12.9997 12.6663Z"/>
</svg>
