<svg width="16" height="16" viewBox="0 0 16 16" fill="none" xmlns="http://www.w3.org/2000/svg">
<path d="M8.5478 1.62313C8.42328 1.44327 8.21844 1.33594 7.99968 1.33594C7.78091 1.33594 7.57607 1.44327 7.45155 1.62313L4.45155 5.95646C4.31041 6.16034 4.29408 6.4257 4.40916 6.64534C4.52424 6.86498 4.75171 7.0026 4.99968 7.0026H10.9997C11.2476 7.0026 11.4751 6.86498 11.5902 6.64534C11.7053 6.4257 11.6889 6.16034 11.5478 5.95646L8.5478 1.62313Z"/>
<path d="M4.99968 9.0026C4.75171 9.0026 4.52424 9.14023 4.40916 9.35987C4.29408 9.57951 4.31041 9.84487 4.45155 10.0487L7.45155 14.3821C7.57607 14.5619 7.78091 14.6693 7.99968 14.6693C8.21844 14.6693 8.42328 14.5619 8.5478 14.3821L11.5478 10.0487C11.6889 9.84487 11.7053 9.57951 11.5902 9.35987C11.4751 9.14023 11.2476 9.0026 10.9997 9.0026H4.99968Z"/>
</svg>
