<svg width="14" height="14" viewBox="0 0 14 14" fill="none" xmlns="http://www.w3.org/2000/svg">
<path d="M6.46196 1.09019C6.68205 0.644243 7.31795 0.644244 7.53804 1.09019L9.21154 4.48107C9.29894 4.65815 9.46788 4.78089 9.6633 4.80929L13.4054 5.35304C13.8975 5.42455 14.094 6.02934 13.7379 6.37646L11.0301 9.01589C10.8887 9.15373 10.8242 9.35233 10.8575 9.54697L11.4968 13.2739C11.5808 13.764 11.0664 14.1378 10.6262 13.9064L7.2792 12.1468C7.10441 12.0549 6.89559 12.0549 6.7208 12.1468L3.3738 13.9064C2.93362 14.1378 2.41917 13.764 2.50323 13.2739L3.14245 9.54697C3.17583 9.35233 3.1113 9.15373 2.96989 9.01589L0.262117 6.37646C-0.0939937 6.02934 0.102513 5.42455 0.594646 5.35304L4.3367 4.80929C4.53212 4.78089 4.70106 4.65815 4.78846 4.48107L6.46196 1.09019Z" />
</svg>
