<svg width="16" height="16" viewBox="0 0 16 16" fill="none" xmlns="http://www.w3.org/2000/svg">
<g clip-path="url(#clip0_238_30110)">
<path d="M13.9998 8.8267V13.332H14.6665V14.6654H1.33317V13.332H1.99984V8.8267C1.58942 8.55276 1.25298 8.18173 1.02038 7.74654C0.787788 7.31135 0.666232 6.82548 0.666504 6.33203C0.666504 5.7807 0.815838 5.24936 1.0885 4.7967L2.8965 1.66536C2.95501 1.56402 3.03917 1.47986 3.14051 1.42135C3.24186 1.36284 3.35682 1.33203 3.47384 1.33203H12.5265C12.6435 1.33203 12.7585 1.36284 12.8598 1.42135C12.9612 1.47986 13.0453 1.56402 13.1038 1.66536L14.9052 4.7867C15.3029 5.44728 15.4307 6.23572 15.2621 6.98812C15.0935 7.74053 14.6414 8.39901 13.9998 8.8267ZM12.6665 9.31336C12.2081 9.36479 11.7441 9.30972 11.3104 9.15247C10.8768 8.99521 10.4854 8.74 10.1665 8.4067C9.88664 8.69941 9.55037 8.93238 9.17798 9.09153C8.80559 9.25068 8.40481 9.33272 7.99984 9.3327C7.59496 9.3329 7.19424 9.25107 6.82186 9.09214C6.44947 8.93322 6.11314 8.7005 5.83317 8.40803C5.51425 8.74121 5.12275 8.9963 4.68914 9.15344C4.25552 9.31058 3.7915 9.36554 3.33317 9.31403V13.332H12.6665V9.31403V9.31336ZM3.85917 2.66536L2.23717 5.47403C2.07956 5.86346 2.07482 6.29805 2.22392 6.69082C2.37303 7.08359 2.66496 7.40556 3.04129 7.59229C3.41763 7.77903 3.8506 7.81675 4.25356 7.69791C4.65652 7.57907 4.99973 7.31243 5.2145 6.95136C5.43784 6.39336 6.22784 6.39336 6.45184 6.95136C6.57537 7.26098 6.7889 7.52643 7.06485 7.71343C7.34081 7.90044 7.66649 8.00039 7.99984 8.00039C8.33318 8.00039 8.65887 7.90044 8.93482 7.71343C9.21077 7.52643 9.42431 7.26098 9.54784 6.95136C9.77117 6.39336 10.5612 6.39336 10.7852 6.95136C10.8717 7.16433 11.0013 7.3571 11.1659 7.51755C11.3305 7.678 11.5266 7.80267 11.7417 7.88371C11.9568 7.96476 12.1863 8.00043 12.4159 7.98849C12.6454 7.97654 12.87 7.91724 13.0756 7.81431C13.2811 7.71139 13.4631 7.56705 13.6102 7.39039C13.7573 7.21372 13.8662 7.00854 13.9302 6.78775C13.9941 6.56695 14.0117 6.33532 13.9818 6.1074C13.9519 5.87948 13.8752 5.66021 13.7565 5.46336L12.1398 2.66536H3.85984H3.85917Z"/>
</g>
<defs>
<clipPath id="clip0_238_30110">
<rect width="16" height="16"/>
</clipPath>
</defs>
</svg>
