<svg width="16" height="16" viewBox="0 0 16 16" fill="none" xmlns="http://www.w3.org/2000/svg">
<g clip-path="url(#clip0_238_30129)">
<path d="M14.0002 2C14.177 2 14.3465 2.07024 14.4716 2.19526C14.5966 2.32029 14.6668 2.48986 14.6668 2.66667V6.33333C14.2248 6.33333 13.8009 6.50893 13.4883 6.82149C13.1758 7.13405 13.0002 7.55797 13.0002 8C13.0002 8.44203 13.1758 8.86595 13.4883 9.17851C13.8009 9.49107 14.2248 9.66667 14.6668 9.66667V13.3333C14.6668 13.5101 14.5966 13.6797 14.4716 13.8047C14.3465 13.9298 14.177 14 14.0002 14H2.00016C1.82335 14 1.65378 13.9298 1.52876 13.8047C1.40373 13.6797 1.3335 13.5101 1.3335 13.3333V9.66667C1.77552 9.66667 2.19945 9.49107 2.51201 9.17851C2.82457 8.86595 3.00016 8.44203 3.00016 8C3.00016 7.55797 2.82457 7.13405 2.51201 6.82149C2.19945 6.50893 1.77552 6.33333 1.3335 6.33333V2.66667C1.3335 2.48986 1.40373 2.32029 1.52876 2.19526C1.65378 2.07024 1.82335 2 2.00016 2H14.0002ZM13.3335 3.33333H2.66683V5.312L2.77083 5.366C3.22304 5.6127 3.60411 5.97168 3.87734 6.40838C4.15057 6.84508 4.30674 7.34477 4.33083 7.85933L4.3335 8C4.33358 8.53883 4.18851 9.06773 3.91353 9.53111C3.63855 9.99449 3.24382 10.3752 2.77083 10.6333L2.66683 10.688V12.6667H13.3335V10.6873L13.2295 10.634C12.7773 10.3873 12.3962 10.0283 12.123 9.59162C11.8498 9.15493 11.6936 8.65523 11.6695 8.14067L11.6668 8C11.6668 6.864 12.2982 5.87533 13.2295 5.36667L13.3335 5.31133V3.33333Z"/>
</g>
<defs>
<clipPath id="clip0_238_30129">
<rect width="16" height="16"/>
</clipPath>
</defs>
</svg>
