<svg width="16" height="16" viewBox="0 0 16 16" fill="none" xmlns="http://www.w3.org/2000/svg">
<path d="M7.71287 14.6693C4.16285 14.6693 1.28516 11.6846 1.28516 8.0026C1.28516 4.3206 4.16285 1.33594 7.71287 1.33594C11.2629 1.33594 14.1406 4.3206 14.1406 8.0026C14.1406 11.6846 11.2629 14.6693 7.71287 14.6693ZM7.71287 13.3359C9.07666 13.3359 10.3846 12.774 11.3489 11.7738C12.3133 10.7736 12.855 9.41709 12.855 8.0026C12.855 6.58812 12.3133 5.23156 11.3489 4.23137C10.3846 3.23117 9.07666 2.66927 7.71287 2.66927C6.34908 2.66927 5.04115 3.23117 4.07681 4.23137C3.11246 5.23156 2.5707 6.58812 2.5707 8.0026C2.5707 9.41709 3.11246 10.7736 4.07681 11.7738C5.04115 12.774 6.34908 13.3359 7.71287 13.3359ZM7.0701 4.66927H8.35565V6.0026H7.0701V4.66927ZM7.0701 7.33594H8.35565V11.3359H7.0701V7.33594Z" />
</svg>
