<svg width="20" height="20" viewBox="0 0 20 20" fill="none" xmlns="http://www.w3.org/2000/svg">
<g clip-path="url(#clip0_718_6297)">
<path fill-rule="evenodd" clip-rule="evenodd" d="M0.630859 2.64401L3.33336 5.34568V15.0007C3.33336 15.2217 3.42116 15.4337 3.57744 15.5899C3.73372 15.7462 3.94568 15.834 4.16669 15.834H14.1667V14.1673H5.00003V12.5007H15.2134C15.3926 12.5007 15.5671 12.4429 15.711 12.3358C15.8548 12.2288 15.9602 12.0782 16.0117 11.9065L18.0117 5.23984C18.049 5.11542 18.0566 4.984 18.0341 4.85608C18.0116 4.72816 17.9594 4.60728 17.8819 4.50309C17.8043 4.3989 17.7035 4.31428 17.5874 4.25598C17.4713 4.19769 17.3432 4.16733 17.2134 4.16734H4.51169L1.81003 1.46484L0.630859 2.64401ZM7.50016 8.67639C7.50016 9.36701 7.69218 9.79306 8.04982 10.1729C8.27516 10.4122 8.63141 10.5823 9.00398 10.5823C9.32629 10.5823 9.6354 10.4543 9.86331 10.2263C10.0912 9.99844 10.2193 9.68933 10.2193 9.36701C10.2193 8.72778 9.72551 8.21354 9.09912 8.15556C8.85989 8.13333 8.61579 8.16701 8.42933 8.26354C8.51961 7.75104 8.746 6.93819 9.90398 6.31181L9.59391 5.83333C8.35329 6.37188 7.50016 7.46111 7.50016 8.67639ZM10.9724 8.67639C10.9724 9.36701 11.1644 9.79306 11.522 10.1729C11.7474 10.4122 12.1036 10.5823 12.4762 10.5823C12.7985 10.5823 13.1076 10.4543 13.3355 10.2263C13.5634 9.99844 13.6915 9.68933 13.6915 9.36701C13.6915 8.72778 13.1977 8.21354 12.5713 8.15556C12.3321 8.13333 12.088 8.16701 11.9016 8.26354C11.9918 7.75104 12.2182 6.93819 13.3762 6.31181L13.0661 5.83333C11.8255 6.37188 10.9724 7.46111 10.9724 8.67639Z" fill="#0A68EB"/>
<path d="M4.58398 19.1665C4.25246 19.1665 3.93452 19.0348 3.7001 18.8004C3.46568 18.566 3.33398 18.248 3.33398 17.9165C3.33398 17.585 3.46568 17.267 3.7001 17.0326C3.93452 16.7982 4.25246 16.6665 4.58398 16.6665C4.9155 16.6665 5.23345 16.7982 5.46787 17.0326C5.70229 17.267 5.83398 17.585 5.83398 17.9165C5.83398 18.248 5.70229 18.566 5.46787 18.8004C5.23345 19.0348 4.9155 19.1665 4.58398 19.1665ZM14.584 19.1665C14.2525 19.1665 13.9345 19.0348 13.7001 18.8004C13.4657 18.566 13.334 18.248 13.334 17.9165C13.334 17.585 13.4657 17.267 13.7001 17.0326C13.9345 16.7982 14.2525 16.6665 14.584 16.6665C14.9155 16.6665 15.2334 16.7982 15.4679 17.0326C15.7023 17.267 15.834 17.585 15.834 17.9165C15.834 18.248 15.7023 18.566 15.4679 18.8004C15.2334 19.0348 14.9155 19.1665 14.584 19.1665Z" fill="#FF5A34"/>
</g>
<defs>
<clipPath id="clip0_718_6297">
<rect width="20" height="20" fill="white"/>
</clipPath>
</defs>
</svg>
