<svg width="20" height="20" viewBox="0 0 20 20" fill="none" xmlns="http://www.w3.org/2000/svg">
<path d="M0.833984 12.5008C0.833984 12.0406 1.20708 11.6675 1.66732 11.6675H10.834C11.2942 11.6675 11.6673 12.0406 11.6673 12.5008V15.8341C11.6673 16.2944 11.2942 16.6675 10.834 16.6675H1.66732C1.20708 16.6675 0.833984 16.2944 0.833984 15.8341V12.5008Z" fill="#0A68EB"/>
<path d="M18.8827 11.8737C19.2291 12.1767 19.2642 12.7032 18.9611 13.0496L16.0445 16.3829C15.8926 16.5565 15.6756 16.6594 15.445 16.667C15.2145 16.6747 14.9912 16.5865 14.8281 16.4234L13.1614 14.7567C12.836 14.4313 12.836 13.9037 13.1614 13.5782C13.4868 13.2528 14.0145 13.2528 14.3399 13.5782L15.3767 14.6151L17.7068 11.9521C18.0099 11.6057 18.5364 11.5706 18.8827 11.8737Z" fill="#0A68EB"/>
<path d="M1 4.16732C1 3.70708 1.3731 3.33398 1.83333 3.33398H11C11.4602 3.33398 11.8333 3.70708 11.8333 4.16732V7.50065C11.8333 7.96089 11.4602 8.33398 11 8.33398H1.83333C1.3731 8.33398 1 7.96089 1 7.50065V4.16732Z" fill="#FF5A34"/>
<path d="M14.9226 3.57806C14.5972 3.25263 14.0695 3.25263 13.7441 3.57806C13.4186 3.9035 13.4186 4.43114 13.7441 4.75657L14.8215 5.83398L13.7441 6.9114C13.4186 7.23683 13.4186 7.76447 13.7441 8.08991C14.0695 8.41534 14.5972 8.41534 14.9226 8.08991L16 7.0125L17.0774 8.08991C17.4028 8.41534 17.9305 8.41534 18.2559 8.08991C18.5814 7.76447 18.5814 7.23683 18.2559 6.9114L17.1785 5.83398L18.2559 4.75657C18.5814 4.43114 18.5814 3.9035 18.2559 3.57806C17.9305 3.25263 17.4028 3.25263 17.0774 3.57806L16 4.65547L14.9226 3.57806Z" fill="#FF5A34"/>
</svg>
