<svg width="20" height="20" viewBox="0 0 20 20" fill="none" xmlns="http://www.w3.org/2000/svg">
<mask id="mask0_718_6305" style="mask-type:alpha" maskUnits="userSpaceOnUse" x="0" y="0" width="20" height="20">
<rect width="20" height="20" fill="#D9D9D9"/>
</mask>
<g mask="url(#mask0_718_6305)">
<path d="M17 13.0358V17.84C16.9998 18.0593 16.9125 18.2696 16.7574 18.4246C16.6022 18.5796 16.3918 18.6667 16.1725 18.6667H2.82752C2.71808 18.6659 2.60987 18.6436 2.50906 18.601C2.40825 18.5584 2.31681 18.4964 2.23997 18.4185C2.16313 18.3405 2.10239 18.2482 2.06122 18.1469C2.02005 18.0455 1.99925 17.9369 2.00002 17.8275V7.83333H7.00002C7.22103 7.83333 7.433 7.74554 7.58928 7.58926C7.74556 7.43297 7.83335 7.22101 7.83335 7V2H16.1684C16.6275 2 17 2.37917 17 2.82667V5.96417L9.50085 13.4642L9.49585 16.9958L13.0342 17.0008L17 13.0358ZM2.00002 6.16667L6.16669 2.0025V6.16667H2.00002Z" fill="#0A68EB"/>
<path d="M17.3038 7.82471L18.4822 9.00304L12.0005 15.4847L10.8205 15.483L10.8222 14.3064L17.3038 7.82471Z" fill="#FF5A34"/>
</g>
</svg>
