<svg width="20" height="20" viewBox="0 0 20 20" fill="none" xmlns="http://www.w3.org/2000/svg">
<g clip-path="url(#clip0_718_6320)">
<path d="M9.16749 15H6.61832C6.37082 13.9391 5.25415 13.0716 4.79582 12.5C4.01098 11.5194 3.51911 10.337 3.37687 9.08912C3.23464 7.8412 3.44782 6.57849 3.99187 5.44643C4.53591 4.31438 5.38868 3.35904 6.45195 2.69047C7.51522 2.02189 8.74573 1.66728 10.0017 1.66748C11.2577 1.66768 12.4881 2.02269 13.5512 2.6916C14.6142 3.36052 15.4667 4.31613 16.0104 5.44836C16.5541 6.58059 16.7668 7.84337 16.6242 9.09124C16.4816 10.3391 15.9893 11.5213 15.2042 12.5016C14.7458 13.0725 13.6308 13.94 13.3833 15H10.8342V10.8333H9.16749V15Z" fill="#0A68EB"/>
<path d="M13.3327 16.6665V17.4998C13.3327 17.9419 13.1571 18.3658 12.8445 18.6783C12.532 18.9909 12.108 19.1665 11.666 19.1665H8.33268C7.89065 19.1665 7.46673 18.9909 7.15417 18.6783C6.84161 18.3658 6.66602 17.9419 6.66602 17.4998V16.6665H13.3327Z" fill="#FF5A34"/>
</g>
<defs>
<clipPath id="clip0_718_6320">
<rect width="20" height="20" fill="white"/>
</clipPath>
</defs>
</svg>
