<svg width="20" height="20" viewBox="0 0 20 20" fill="none" xmlns="http://www.w3.org/2000/svg">
<g clip-path="url(#clip0_718_6326)">
<path d="M11.666 2.5V17.5H2.49935C2.27834 17.5 2.06637 17.4122 1.91009 17.2559C1.75381 17.0996 1.66602 16.8877 1.66602 16.6667V12.0833C2.21855 12.0833 2.74845 11.8638 3.13915 11.4731C3.52986 11.0824 3.74935 10.5525 3.74935 10C3.74935 9.44747 3.52986 8.91756 3.13915 8.52686C2.74845 8.13616 2.21855 7.91667 1.66602 7.91667V3.33333C1.66602 3.11232 1.75381 2.90036 1.91009 2.74408C2.06637 2.5878 2.27834 2.5 2.49935 2.5H11.666Z" fill="#0A68EB"/>
<path d="M13 2.5H17.1667C17.3877 2.5 17.5996 2.5878 17.7559 2.74408C17.9122 2.90036 18 3.11232 18 3.33333V7.91667C17.4475 7.91667 16.9176 8.13616 16.5269 8.52686C16.1362 8.91756 15.9167 9.44747 15.9167 10C15.9167 10.5525 16.1362 11.0824 16.5269 11.4731C16.9176 11.8638 17.4475 12.0833 18 12.0833V16.6667C18 16.8877 17.9122 17.0996 17.7559 17.2559C17.5996 17.4122 17.3877 17.5 17.1667 17.5H13V2.5Z" fill="#FF5A34"/>
</g>
<defs>
<clipPath id="clip0_718_6326">
<rect width="20" height="20" fill="white"/>
</clipPath>
</defs>
</svg>
