<svg width="20" height="20" viewBox="0 0 20 20" fill="none" xmlns="http://www.w3.org/2000/svg">
<g clip-path="url(#clip0_718_6333)">
<path d="M17.5007 6.66691C17.9427 6.66691 18.3666 6.8425 18.6792 7.15507C18.9917 7.46763 19.1673 7.89155 19.1673 8.33358V11.6669C19.1673 12.1089 18.9917 12.5329 18.6792 12.8454C18.3666 13.158 17.9427 13.3336 17.5007 13.3336H16.6157C16.4125 14.9447 15.6284 16.4262 14.4104 17.5002C13.1925 18.5743 11.6245 19.1669 10.0007 19.1669V17.5002C11.3267 17.5002 12.5985 16.9735 13.5362 16.0358C14.4739 15.0981 15.0007 13.8263 15.0007 12.5002V7.50024C15.0007 6.17416 14.4739 4.90239 13.5362 3.96471C12.5985 3.02703 11.3267 2.50024 10.0007 2.50024C8.67457 2.50024 7.4028 3.02703 6.46512 3.96471C5.52744 4.90239 5.00065 6.17416 5.00065 7.50024V13.3336H2.50065C2.05862 13.3336 1.6347 13.158 1.32214 12.8454C1.00958 12.5329 0.833984 12.1089 0.833984 11.6669V8.33358C0.833984 7.89155 1.00958 7.46763 1.32214 7.15507C1.6347 6.8425 2.05862 6.66691 2.50065 6.66691H3.38565C3.58901 5.05599 4.37322 3.57464 5.59113 2.50081C6.80904 1.42697 8.37695 0.834473 10.0007 0.834473C11.6244 0.834473 13.1923 1.42697 14.4102 2.50081C15.6281 3.57464 16.4123 5.05599 16.6157 6.66691H17.5007Z" fill="#0A68EB"/>
<path d="M6.66602 13.155L7.54935 11.7417C8.34358 12.2392 9.26215 12.5024 10.1993 12.5009C11.1365 12.5024 12.0551 12.2392 12.8493 11.7417L13.7327 13.155C12.6737 13.8185 11.449 14.1695 10.1993 14.1675C8.94973 14.1695 7.72497 13.8185 6.66602 13.155Z" fill="#FF5A34"/>
</g>
<defs>
<clipPath id="clip0_718_6333">
<rect width="20" height="20" fill="white"/>
</clipPath>
</defs>
</svg>
